<svg width="98" height="94" viewBox="0 0 98 94" fill="none" xmlns="http://www.w3.org/2000/svg">
<path d="M93.9688 39.8192C94.1859 39.3009 94.3125 38.7391 94.3125 38.1473V5.18783C94.3125 2.70988 92.2094 0.693359 89.625 0.693359H52.125C49.5406 0.693359 47.4375 2.70988 47.4375 5.18783V38.1473C47.4375 38.7391 47.5641 39.3009 47.7812 39.8192C45.7891 40.3361 44.3125 42.068 44.3125 44.1399V51.6307H41.1875V57.6233H38.0625V62.4848L27.5156 65.3748C26.9172 64.3486 26.2719 63.3493 25.5625 62.392V51.5723C27.1578 51.4299 28.6453 50.7962 29.7938 49.6951C31.0953 48.4456 31.8125 46.7842 31.8125 45.0178V42.2238L36.5 40.7256V39.6454C36.5 36.5473 34.6188 32.3794 33.0422 29.4295C32.8875 29.1404 32.7062 28.8722 32.5109 28.616C35.75 27.434 38.0625 24.4347 38.0625 20.9185C38.0625 16.3746 34.2078 12.6786 29.4688 12.6786H21.4391C9.92813 12.6786 0.5625 21.6586 0.5625 32.6955C0.5625 40.3271 4.98438 47.1872 12.1016 50.6L13.0625 51.0599V53.5888L12.1281 53.9244C5.31563 56.3754 0.714063 62.6511 0.575 69.6086H0.5625V93.5791H31.8125V84.9962L38.0625 82.8493V93.5791H58.375C60.9594 93.5791 63.0625 91.5626 63.0625 89.0846V66.6123H66.475C66.3 67.0827 66.1875 67.5831 66.1875 68.1104V86.0883C66.1875 88.5663 68.2906 90.5828 70.875 90.5828H89.625C92.2094 90.5828 94.3125 88.5663 94.3125 86.0883V68.1104C94.3125 67.5187 94.1859 66.9568 93.9688 66.4385C95.9609 65.9201 97.4375 64.1898 97.4375 62.1178V44.1399C97.4375 42.068 95.9609 40.3361 93.9688 39.8192ZM66.1875 3.68967H75.5625V9.6823H66.1875V3.68967ZM50.5625 5.18783C50.5625 4.36235 51.2641 3.68967 52.125 3.68967H63.0625V12.6786H78.6875V3.68967H89.625C90.4859 3.68967 91.1875 4.36235 91.1875 5.18783V38.1473C91.1875 38.9728 90.4859 39.6454 89.625 39.6454H74H67.75H52.125C51.2641 39.6454 50.5625 38.9728 50.5625 38.1473V5.18783ZM81.8125 42.6418H84.9375V45.6381H81.8125V42.6418ZM56.8125 42.6418H59.9375V45.6381H56.8125V42.6418ZM44.3125 54.627H58.375C59.2359 54.627 59.9375 55.2982 59.9375 56.1252C59.9375 56.9522 59.2359 57.6233 58.375 57.6233H44.3125V54.627ZM18.5688 78.4327L40.8469 72.3292L41.9719 69.0962C42.2547 68.2812 42.9297 67.634 43.7797 67.3628C44.8109 67.0348 45.9313 67.2864 46.7031 68.025L48.3531 69.6086H50.8078C52.3953 69.6086 53.6875 70.8476 53.6875 72.3712C53.6875 73.6042 52.8219 74.6978 51.4781 75.0619L26.1313 83.7662C24.5375 84.3115 22.8703 84.5902 21.175 84.5902H19.0781C17.0875 84.5902 15.1375 84.1887 13.3313 83.4531L18.5688 78.4327ZM38.0625 65.6025V69.9771L30.4297 72.0671C30.0172 70.7127 29.5281 69.3869 28.9375 68.1029L38.0625 65.6025ZM33.2875 38.5937L28.6875 40.0649V45.0193C28.6875 45.9856 28.2953 46.8935 27.5812 47.5782C26.8703 48.2613 25.9234 48.6374 24.9156 48.6374L19.3125 48.6344V51.6307L22.4375 51.6322V58.7739C20.575 56.8982 18.4828 55.2353 16.1875 53.8315V42.0215L13.5203 39.4642C13.225 39.181 13.0625 38.8035 13.0625 38.4035V38.1473C13.0625 37.3218 13.7641 36.6491 14.625 36.6491H16.1875V32.1547C16.1875 30.5022 17.5891 29.1583 19.3125 29.1583H27.125H27.4734C28.6531 29.1583 29.7203 29.7861 30.2609 30.7958C31.9406 33.9375 32.9875 36.6491 33.2875 38.5937ZM3.6875 32.6955C3.6875 23.311 11.6516 15.6749 21.4391 15.6749H29.4688C32.4844 15.6749 34.9375 18.027 34.9375 20.9185C34.9375 23.8099 32.4844 26.162 29.4688 26.162H27.4734H27.125H19.3125C15.8656 26.162 13.0625 28.8497 13.0625 32.1547V33.909C11.2437 34.5277 9.9375 36.1937 9.9375 38.1473V38.4035C9.9375 39.6035 10.425 40.7331 11.3109 41.5826L13.0625 43.262V47.6711C7.27656 44.6987 3.6875 39.0192 3.6875 32.6955ZM13.2266 56.7304L14.4234 56.299C20.6984 60.1103 25.3484 66.0624 27.4297 72.8895L18.7594 75.2641L18.1437 73.4948C16.6984 69.3389 13.1875 66.2213 8.75313 65.1591L7.99531 68.0655C11.3875 68.879 14.0734 71.2641 15.1797 74.4446L15.9625 76.6964L10.4969 81.9369C10.1594 81.7047 9.82969 81.459 9.5125 81.1983L8.82187 80.6305C5.55937 77.9473 3.6875 74.0476 3.6875 69.9277C3.6875 64.0849 7.52031 58.7814 13.2266 56.7304ZM28.6875 90.5828H3.6875V79.5534C4.56094 80.7788 5.58594 81.9159 6.7875 82.9032L7.47813 83.471C10.7063 86.1243 14.825 87.5865 19.0781 87.5865H21.175C23.2297 87.5865 25.2516 87.2494 27.1859 86.5857L28.6875 86.0703V90.5828ZM58.375 90.5828H41.1875V81.7751L52.4266 77.9144C55.0094 77.2207 56.8125 74.942 56.8125 72.3712C56.8125 69.1966 54.1188 66.6123 50.8078 66.6123H49.6469L48.9109 65.9066C47.2984 64.359 44.9531 63.8272 42.7906 64.5193C42.2047 64.7066 41.6781 65.0062 41.1875 65.3493V60.6196H58.375C58.925 60.6196 59.4469 60.5118 59.9375 60.344V89.0846C59.9375 89.9116 59.2359 90.5828 58.375 90.5828ZM63.0625 56.1252C63.0625 53.6472 60.9594 51.6307 58.375 51.6307H47.4375V44.1399C47.4375 43.3144 48.1391 42.6418 49 42.6418H52.125H53.6875V48.6344H63.0625V42.6418H67.75C68.6109 42.6418 69.3125 43.3144 69.3125 44.1399V62.1178C69.3125 62.9448 68.6109 63.616 67.75 63.616H63.0625V56.1252ZM91.1875 86.0883C91.1875 86.9153 90.4859 87.5865 89.625 87.5865H70.875C70.0141 87.5865 69.3125 86.9153 69.3125 86.0883V68.1104C69.3125 67.2834 70.0141 66.6123 70.875 66.6123H74H75.5625V72.6049H84.9375V66.6123H89.625C90.4859 66.6123 91.1875 67.2834 91.1875 68.1104V86.0883ZM78.6875 66.6123H81.8125V69.6086H78.6875V66.6123ZM94.3125 62.1178C94.3125 62.9448 93.6109 63.616 92.75 63.616H89.625H74C73.1391 63.616 72.4375 62.9448 72.4375 62.1178V44.1399C72.4375 43.3144 73.1391 42.6418 74 42.6418H78.6875V48.6344H88.0625V42.6418H89.625H92.75C93.6109 42.6418 94.3125 43.3144 94.3125 44.1399V62.1178Z" fill="#77150C"/>
</svg>
