<svg width="100" height="76" viewBox="0 0 100 76" fill="none" xmlns="http://www.w3.org/2000/svg">
<path d="M96.6781 20.7377L56.8156 1.28717C53.3792 -0.429055 47.5372 -0.429055 44.1008 1.28717L3.32188 20.7377C0.45819 22.1107 0 24.0557 0 25.0854C0 26.1152 0.45819 27.9458 3.32188 29.4332L6.64376 31.035V49.3414C4.5819 50.1423 3.09278 52.2017 3.09278 54.49C3.09278 56.7783 4.5819 58.8378 6.52921 59.6387L1.37457 76H15.8076L10.6529 59.6387C12.7148 58.8378 14.0893 56.7783 14.0893 54.49C14.0893 52.0873 12.6002 50.1423 10.5384 49.3414V32.9801L16.6094 35.9548V59.7531C16.6094 60.0963 16.7239 60.4396 16.953 60.7828C17.5258 61.4693 28.1787 76 49.9427 76C71.7068 76 82.3597 61.3549 82.8179 60.7828C83.047 60.4396 83.1615 60.0963 83.1615 59.7531V36.0693L96.6781 29.4332C99.5418 28.0602 100 26.1152 100 25.0854C99.8855 24.0557 99.5418 22.1107 96.6781 20.7377ZM79.496 59.181C77.6632 61.4693 67.8121 72.4531 49.9427 72.4531C32.0733 72.4531 22.2222 61.4693 20.3895 59.181V37.5566L44.1008 48.8837C45.819 49.6846 48.11 50.1423 50.4009 50.1423C52.8064 50.1423 55.0974 49.6846 56.8156 48.7693L79.496 37.6711V59.181ZM95.0745 26.2296L81.3288 32.9801C80.756 32.9801 80.2978 33.2089 80.0687 33.6665L55.2119 45.6801C52.8064 46.9387 48.11 46.9387 45.5899 45.6801L15.0057 31.035L50.1718 26.9161C51.2027 26.8017 51.89 25.8863 51.7755 24.971C51.6609 23.9413 50.7446 23.2548 49.8282 23.3692L9.04926 28.1746L4.92554 26.2296C3.89462 25.7719 3.66552 25.1999 3.66552 25.1999C3.66552 25.0854 3.89462 24.6278 4.92554 24.1701L45.7045 4.60519C46.9645 4.03312 48.6827 3.68988 50.4009 3.68988C52.2337 3.68988 54.0664 4.03312 55.2119 4.60519L95.0745 24.0557C96.1054 24.5134 96.3345 24.971 96.3345 25.1999C96.3345 25.1999 95.9908 25.7719 95.0745 26.2296Z" fill="#77150C"/>
</svg>
