<svg width="79" height="92" viewBox="0 0 79 92" fill="none" xmlns="http://www.w3.org/2000/svg">
<path d="M46.9219 80.4131C45.8977 80.4131 45.0664 81.21 45.0664 82.1919C45.0664 83.1738 45.8977 83.9707 46.9219 83.9707C47.9461 83.9707 48.7773 83.1738 48.7773 82.1919C48.7773 81.21 47.9461 80.4131 46.9219 80.4131Z" fill="#77150C"/>
<path d="M72.8984 8.18368H67.332V5.33718C67.332 2.39426 64.8349 0 61.7656 0H17.2344C14.1651 0 11.668 2.39426 11.668 5.33718V8.18368H6.10156C3.03225 8.18368 0.535156 10.5779 0.535156 13.5209C0.535156 25.0949 6.18357 33.6006 15.347 35.9687C18.4883 42.5984 23.455 48.2342 29.7592 52.3067C31.2113 53.2448 32.0781 54.8507 32.0781 56.6026V66.405C30.8062 66.7178 29.6393 67.3518 28.6861 68.2659C27.284 69.6105 26.5117 71.3972 26.5117 73.2973H24.6562C21.5869 73.2973 19.0898 75.6915 19.0898 78.6345V89.3088C19.0898 90.2914 19.9207 91.0879 20.9453 91.0879H58.0547C59.0793 91.0879 59.9102 90.2914 59.9102 89.3088V78.6345C59.9102 75.6915 57.4131 73.2973 54.3438 73.2973H52.4883C52.4883 69.9875 50.1194 67.1981 46.9219 66.4063V56.6115C46.9219 54.8539 47.7893 53.245 49.2427 52.3069C55.5474 48.2341 60.5141 42.598 63.6552 35.9682C72.8174 33.5992 78.4648 25.094 78.4648 13.5209C78.4648 10.5779 75.9678 8.18368 72.8984 8.18368ZM4.24609 13.5209C4.24609 12.5399 5.07846 11.7418 6.10156 11.7418H11.668V19.6942C11.668 23.7496 12.3087 27.7208 13.5735 31.5452C7.66888 28.7409 4.24609 22.2642 4.24609 13.5209ZM54.3438 76.8554C55.3669 76.8554 56.1992 77.6535 56.1992 78.6345V87.5298H22.8008V78.6345C22.8008 77.6535 23.6331 76.8554 24.6562 76.8554H54.3438ZM63.6211 19.6942C63.6211 24.5539 62.6121 29.2826 60.6215 33.7488C57.7901 40.103 53.1384 45.4998 47.1698 49.3556C44.6909 50.9555 43.2109 53.668 43.2109 56.6115V67.9601C43.2109 68.9427 44.0418 69.7392 45.0664 69.7392C47.1126 69.7392 48.7773 71.3353 48.7773 73.2973H30.2227C30.2227 72.3476 30.609 71.4544 31.3101 70.7819C31.977 70.1425 32.8522 69.7764 33.7881 69.7418C33.8362 69.7454 33.8846 69.7472 33.9334 69.7472C34.958 69.7472 35.7889 68.9427 35.7889 67.9601V56.6026C35.7889 53.6654 34.3099 50.9564 31.8326 49.3559C25.8634 45.5 21.2118 40.1032 18.3799 33.7484C16.3887 29.2839 15.3789 24.5553 15.3789 19.6942V5.33718C15.3789 4.35621 16.2113 3.55812 17.2344 3.55812H61.7656C62.7887 3.55812 63.6211 4.35621 63.6211 5.33718V19.6942ZM65.4272 31.5449C66.6915 27.7195 67.332 23.7485 67.332 19.6942V11.7418H72.8984C73.9215 11.7418 74.7539 12.5399 74.7539 13.5209C74.7539 22.2637 71.3315 28.7402 65.4272 31.5449Z" fill="#77150C"/>
<path d="M54.1836 21.0218C53.9656 20.3776 53.3848 19.9081 52.6857 19.811L44.6782 18.6966L41.0966 11.7379C40.784 11.1305 40.139 10.7461 39.4326 10.7461C38.7263 10.7461 38.0813 11.1305 37.7686 11.7379L34.187 18.6966L26.1798 19.811C25.4806 19.9083 24.9 20.3778 24.6817 21.0218C24.4635 21.6659 24.6455 22.3729 25.1513 22.8456L30.9466 28.261L29.5788 35.9085C29.4595 36.576 29.7456 37.2504 30.3171 37.6486C30.8886 38.0465 31.6462 38.099 32.2711 37.7839L39.4328 34.1738L46.5962 37.7839C47.2252 38.101 47.9825 38.044 48.5502 37.6484C49.1215 37.2502 49.4076 36.5756 49.2881 35.9081L47.9188 28.2608L53.714 22.8456C54.22 22.3729 54.4018 21.6659 54.1836 21.0218ZM44.63 26.3656C44.1926 26.7744 43.9928 27.3635 44.0963 27.9408L44.9946 32.9571L40.296 30.589C39.7551 30.3167 39.1094 30.3167 38.5693 30.5892L33.8722 32.9571L34.7695 27.9404C34.8726 27.3631 34.673 26.7743 34.2357 26.3656L30.4349 22.814L35.6861 22.0831C36.2906 21.999 36.8131 21.635 37.0834 21.1098L39.4328 16.545L41.7822 21.1098C42.0526 21.635 42.5751 21.999 43.1796 22.0831L48.4309 22.814L44.63 26.3656Z" fill="#77150C"/>
<path d="M39.5 80.4131H32.0781C31.0535 80.4131 30.2227 81.2095 30.2227 82.1919C30.2227 83.1743 31.0535 83.9707 32.0781 83.9707H39.5C40.5246 83.9707 41.3555 83.1743 41.3555 82.1919C41.3555 81.2095 40.5246 80.4131 39.5 80.4131Z" fill="#77150C"/>
<path d="M68.0762 85.751H69.1106C68.5836 85.6506 68.2292 85.6406 68.0762 85.751Z" fill="#77150C"/>
</svg>
