<svg width="100" height="94" viewBox="0 0 100 94" fill="none" xmlns="http://www.w3.org/2000/svg">
<path d="M56.667 34.3984H43.3337C42.4132 34.3984 41.667 35.1139 41.667 35.9964V80.7399C41.667 81.6224 42.4132 82.3379 43.3337 82.3379H56.667C57.5874 82.3379 58.3337 81.6224 58.3337 80.7399V35.9964C58.3337 35.1137 57.5874 34.3984 56.667 34.3984ZM55.0003 79.1419H45.0003V37.5944H55.0003V79.1419Z" fill="#77150C"/>
<path d="M96.667 28.0049H83.3337C82.4132 28.0049 81.667 28.7204 81.667 29.6029V80.7399C81.667 81.6224 82.4132 82.3379 83.3337 82.3379H96.667C97.5874 82.3379 98.3337 81.6224 98.3337 80.7399V29.6029C98.3337 28.7202 97.5874 28.0049 96.667 28.0049ZM95.0003 79.1418H85.0003V31.2009H95.0003V79.1418Z" fill="#77150C"/>
<path d="M76.667 63.1621H63.3337C62.4132 63.1621 61.667 63.8776 61.667 64.7601V80.7399C61.667 81.6224 62.4132 82.3379 63.3337 82.3379H76.667C77.5874 82.3379 78.3337 81.6224 78.3337 80.7399V64.7601C78.3337 63.8774 77.5874 63.1621 76.667 63.1621ZM75.0003 79.1419H65.0003V66.3581H75.0003V79.1419Z" fill="#77150C"/>
<path d="M16.667 40.79H3.33366C2.41324 40.79 1.66699 41.5055 1.66699 42.388V80.739C1.66699 81.6214 2.41324 82.3369 3.33366 82.3369H16.667C17.5874 82.3369 18.3337 81.6214 18.3337 80.739V42.388C18.3337 41.5053 17.5874 40.79 16.667 40.79ZM15.0003 79.141H5.00033V43.986H15.0003V79.141Z" fill="#77150C"/>
<path d="M36.667 50.377H23.3337C22.4132 50.377 21.667 51.0925 21.667 51.975V80.7389C21.667 81.6214 22.4132 82.3369 23.3337 82.3369H36.667C37.5874 82.3369 38.3337 81.6214 38.3337 80.7389V51.975C38.3337 51.0923 37.5874 50.377 36.667 50.377ZM35.0003 79.1409H25.0003V53.5729H35.0003V79.1409Z" fill="#77150C"/>
<path d="M90.0964 0.74724C86.3879 0.721672 83.36 3.58329 83.3333 7.13904C83.3198 8.93439 84.0887 10.6536 85.4548 11.8817L71.6214 36.208C70.3683 35.8754 69.0373 35.9344 67.8214 36.3758L54.9529 17.86C57.4185 15.2383 57.2006 11.1964 54.466 8.83251C51.7314 6.46867 47.516 6.67741 45.0506 9.29933C43.2391 11.2257 42.8212 14.0106 43.9929 16.3485L33.8745 24.423C31.0987 22.4816 27.232 22.9161 24.9995 25.4201L16.5145 21.3516C17.2841 17.8994 14.9889 14.5026 11.3885 13.7649C7.78786 13.0271 4.24515 15.2275 3.47578 18.6798C2.70619 22.1321 5.00119 25.5288 8.60182 26.2665C9.0612 26.3606 9.52974 26.4079 9.99953 26.4077C11.9214 26.4017 13.7458 25.5959 14.9995 24.1993L23.4845 28.2678C22.6839 31.7135 24.9483 35.1292 28.542 35.8968C32.1358 36.6645 35.6983 34.4934 36.4989 31.0477C36.8245 29.6465 36.6487 28.1809 35.9995 26.8871L46.1179 18.8124C47.8618 20.0499 50.1385 20.3623 52.1745 19.6434L65.0395 38.1594C62.5806 40.7869 62.8089 44.8282 65.5495 47.1859C68.29 49.5435 72.505 49.3246 74.9639 46.6969C77.3927 44.1015 77.2039 40.1189 74.5398 37.7455L88.3731 13.4192C88.9043 13.5522 89.4508 13.6209 89.9998 13.6237C93.7083 13.6493 96.7362 10.7877 96.7629 7.23192C96.7896 3.67617 93.8048 0.773008 90.0964 0.74724ZM9.99953 23.2117C8.15849 23.2117 6.6662 21.7809 6.6662 20.0157C6.6662 18.2505 8.15849 16.8197 9.99953 16.8197C11.8406 16.8197 13.3329 18.2505 13.3329 20.0157C13.3329 21.7809 11.8406 23.2117 9.99953 23.2117ZM29.9995 32.7997C28.1585 32.7997 26.6662 31.3689 26.6662 29.6037C26.6662 27.8385 28.1585 26.4077 29.9995 26.4077C31.8406 26.4077 33.3329 27.8385 33.3329 29.6037C33.3329 31.3689 31.8406 32.7997 29.9995 32.7997ZM49.9995 16.8197C48.1585 16.8197 46.6662 15.3889 46.6662 13.6237C46.6662 11.8585 48.1585 10.4277 49.9995 10.4277C51.8406 10.4277 53.3329 11.8585 53.3329 13.6237C53.3329 15.3889 51.8406 16.8197 49.9995 16.8197ZM69.9995 45.5837C68.1585 45.5837 66.6662 44.1529 66.6662 42.3877C66.6662 40.6225 68.1585 39.1917 69.9995 39.1917C71.8406 39.1917 73.3329 40.6225 73.3329 42.3877C73.3329 44.1529 71.8406 45.5837 69.9995 45.5837ZM89.9995 10.4277C88.1585 10.4277 86.6662 8.99691 86.6662 7.23172C86.6662 5.46653 88.1585 4.03572 89.9995 4.03572C91.8406 4.03572 93.3329 5.46653 93.3329 7.23172C93.3329 8.99691 91.8406 10.4277 89.9995 10.4277Z" fill="#77150C"/>
<path d="M98.3333 83.9355H1.66667C0.74625 83.9355 0 84.6511 0 85.5337V91.9263C0 92.8088 0.74625 93.5244 1.66667 93.5244H98.3333C99.2537 93.5244 100 92.8088 100 91.9263V85.5337C100 84.6509 99.2537 83.9355 98.3333 83.9355ZM96.6667 90.3281H3.33333V87.1318H96.6667V90.3281Z" fill="#77150C"/>
</svg>
