<svg width="95" height="92" viewBox="0 0 95 92" fill="none" xmlns="http://www.w3.org/2000/svg">
<path d="M64.1992 56.7523C63.1746 56.7523 62.3438 57.5487 62.3438 58.5313V70.8067C62.3438 75.7116 58.1819 79.702 53.0664 79.702H33.0333C32.0089 79.702 31.1786 80.4978 31.1778 81.4798L31.1752 85.0169L26.7466 80.7708C26.4599 80.1398 25.8038 79.702 25.0449 79.702H12.9883C7.87275 79.702 3.71094 75.7116 3.71094 70.8067V43.4094C3.71094 38.5046 7.87275 34.5142 12.9883 34.5142H31.7285C32.7531 34.5142 33.584 33.7177 33.584 32.7351C33.584 31.7525 32.7531 30.9561 31.7285 30.9561H12.9883C5.82654 30.9561 0 36.5426 0 43.4094V70.8067C0 77.6735 5.82654 83.2601 12.9883 83.2601H24.0947L31.7153 90.5668C32.0703 90.9071 32.5447 91.0879 33.0277 91.0879C33.2665 91.0879 33.5075 91.0436 33.7367 90.9527C34.4301 90.6776 34.8823 90.0294 34.8828 89.3101L34.8873 83.2601H53.0664C60.2281 83.2601 66.0547 77.6735 66.0547 70.8067V58.5313C66.0547 57.5487 65.2238 56.7523 64.1992 56.7523Z" fill="#77150C"/>
<path d="M68.0317 0H63.3357C48.4652 0 36.3672 11.5997 36.3672 25.8576C36.3672 40.1155 48.4652 51.715 63.3355 51.715H68.0315C70.3525 51.715 72.6498 51.4323 74.8763 50.8737L81.8134 57.5213C82.1683 57.8612 82.6426 58.042 83.1254 58.042C83.3645 58.042 83.6058 57.9977 83.8353 57.9064C84.5285 57.631 84.9805 56.9824 84.9805 56.263V45.9701C87.9175 43.6896 90.3572 40.8088 92.0695 37.5905C94.0142 33.9353 95 29.9878 95 25.8576C95 11.5997 82.902 0 68.0317 0ZM82.0086 43.6816C81.5434 44.0177 81.2695 44.5439 81.2695 45.1027V51.9698L76.729 47.6186C76.3757 47.2802 75.9018 47.0979 75.4172 47.0979C75.2354 47.0979 75.0517 47.1237 74.8724 47.1765C72.6639 47.8273 70.3623 48.1571 68.0317 48.1571H63.3357C50.5112 48.1571 40.0781 38.1536 40.0781 25.8576C40.0781 13.5616 50.5114 3.55808 63.3357 3.55808H68.0317C80.8559 3.55808 91.2891 13.5616 91.2891 25.8576C91.2891 32.9259 87.9065 39.4226 82.0086 43.6816Z" fill="#77150C"/>
<path d="M74.0396 19.4669C73.7718 15.7424 70.6405 12.74 66.7559 12.4833C64.5538 12.3383 62.4523 13.0505 60.8438 14.4903C59.2574 15.9102 58.3477 17.9173 58.3477 19.9972C58.3477 20.9798 59.1785 21.7763 60.2031 21.7763C61.2277 21.7763 62.0586 20.9798 62.0586 19.9972C62.0586 18.8837 62.5266 17.8517 63.376 17.0915C64.2247 16.332 65.3339 15.9561 66.501 16.0333C68.5472 16.1685 70.1965 17.7499 70.3375 19.7117C70.48 21.693 69.1242 23.444 67.114 23.8752C65.4853 24.2246 64.3479 25.5817 64.3479 27.1752V31.4494C64.3479 32.432 65.1788 33.2285 66.2033 33.2285C67.2281 33.2285 68.0588 32.432 68.0586 31.4494V27.3174C71.7974 26.4513 74.3058 23.1711 74.0396 19.4669Z" fill="#77150C"/>
<path d="M67.5149 37.2293C67.1698 36.8984 66.6911 36.708 66.2031 36.708C65.7151 36.708 65.2364 36.8984 64.8913 37.2293C64.5462 37.5603 64.3477 38.0193 64.3477 38.4873C64.3477 38.957 64.5464 39.4161 64.8913 39.747C65.2364 40.078 65.7151 40.2666 66.2031 40.2666C66.6911 40.2666 67.1698 40.078 67.5149 39.747C67.8601 39.4143 68.0586 38.957 68.0586 38.4873C68.0586 38.0193 67.8599 37.5603 67.5149 37.2293Z" fill="#77150C"/>
<path d="M51.0254 55.1504H11.875C10.8504 55.1504 10.0195 55.947 10.0195 56.9297C10.0195 57.9124 10.8504 58.709 11.875 58.709H51.0254C52.0502 58.709 52.8809 57.9124 52.8809 56.9297C52.8809 55.947 52.05 55.1504 51.0254 55.1504Z" fill="#77150C"/>
<path d="M52.337 65.6353C51.9921 65.3045 51.5134 65.1143 51.0254 65.1143C50.5374 65.1143 50.0587 65.3045 49.7136 65.6353C49.3683 65.9661 49.1699 66.4249 49.1699 66.8926C49.1699 67.3603 49.3685 67.8191 49.7136 68.1499C50.0587 68.4806 50.5374 68.6709 51.0254 68.6709C51.5134 68.6709 51.9921 68.4806 52.337 68.1499C52.6823 67.8191 52.8809 67.3621 52.8809 66.8926C52.8809 66.4249 52.6821 65.9661 52.337 65.6353Z" fill="#77150C"/>
<path d="M43.7273 65.1143H11.875C10.8504 65.1143 10.0195 65.9104 10.0195 66.8926C10.0195 67.8747 10.8504 68.6709 11.875 68.6709H43.7273C44.752 68.6709 45.5827 67.8747 45.5827 66.8926C45.5827 65.9104 44.7519 65.1143 43.7273 65.1143Z" fill="#77150C"/>
<path d="M38.9648 45.1885H11.875C10.8504 45.1885 10.0195 45.9848 10.0195 46.9673C10.0195 47.9497 10.8504 48.7461 11.875 48.7461H38.9648C39.9896 48.7461 40.8203 47.9497 40.8203 46.9673C40.8203 45.9848 39.9894 45.1885 38.9648 45.1885Z" fill="#77150C"/>
</svg>
