<svg width="95" height="92" viewBox="0 0 95 92" fill="none" xmlns="http://www.w3.org/2000/svg">
<path d="M40.2837 49.9479L31.3378 58.5261C30.6132 59.2208 30.6132 60.3474 31.3378 61.0424C31.7002 61.3898 32.175 61.5635 32.6498 61.5635C33.1246 61.5635 33.5996 61.3898 33.9618 61.0424L42.9078 52.4642C43.6323 51.7694 43.6323 50.6429 42.9078 49.9479C42.1832 49.253 41.0083 49.2531 40.2837 49.9479Z" fill="#77150C"/>
<path d="M61.0295 30.0571L52.0916 38.6261C51.3671 39.3208 51.3671 40.4472 52.0916 41.142C52.454 41.4895 52.9288 41.6631 53.4036 41.6631C53.8785 41.6631 54.3533 41.4895 54.7157 41.142L63.6535 32.573C64.378 31.8784 64.378 30.752 63.6535 30.0571C62.9289 29.3625 61.7544 29.3625 61.0295 30.0571Z" fill="#77150C"/>
<path d="M86.6675 61.208C83.1161 59.242 79.0276 58.6035 75.0431 59.3731L60.6197 45.5437L75.0539 31.7039C76.1313 31.9091 77.2129 32.0089 78.2861 32.0087C84.1426 32.0085 89.7278 29.0366 92.7606 24C95.5407 19.3832 95.7435 13.7622 93.3029 8.96405C92.4934 7.3725 91.4467 6.54416 90.1922 6.50218C88.9579 6.46215 87.8936 7.17538 87.0208 8.62514L84.1448 13.4014C83.6548 14.215 83.4034 14.2152 82.9868 14.2152H80.8532C79.5222 14.2152 79.2936 14.0885 78.6281 12.9833L77.5614 11.2119C77.3459 10.8541 77.2272 10.6568 77.7172 9.84345L80.5932 5.06718C81.4662 3.61724 81.5779 2.37402 80.925 1.37223C80.2598 0.351575 78.9893 -0.103512 77.1461 0.0201338C71.5923 0.392671 66.6168 3.37137 63.8367 7.98841C61.786 11.3937 61.1201 15.3143 61.9231 19.1343L47.4997 32.9637L33.0655 19.124C34.4467 12.4535 31.2462 5.5872 25.0309 2.14648C20.2151 -0.518924 14.3527 -0.713377 9.34846 1.62681C7.68873 2.40302 6.82482 3.40642 6.78103 4.60924C6.73798 5.78984 7.48296 6.81298 8.99518 7.65003L13.9764 10.4076C14.8251 10.8774 14.8251 11.105 14.8251 11.5179V13.5637C14.8251 14.8398 14.693 15.0591 13.5404 15.6971L11.6927 16.7199C11.3195 16.9265 11.114 17.0403 10.2654 16.5706L5.28402 13.8131C3.7718 12.9759 2.47518 12.8689 1.43036 13.4948C0.365866 14.1326 -0.108582 15.3516 0.0201891 17.1181C0.408728 22.4434 3.51537 27.2141 8.33073 29.8797C11.8823 31.8457 15.9709 32.4842 19.9554 31.7144L34.3788 45.5439L19.9446 59.3834C12.9882 58.0593 5.82656 61.1278 2.23787 67.0873C-0.542209 71.7042 -0.745014 77.325 1.69569 82.1232C2.50524 83.7147 3.55174 84.543 4.80623 84.585C6.03902 84.6277 7.10462 83.912 7.97782 82.4621L10.8538 77.686C11.3439 76.8722 11.5812 76.8722 12.012 76.8722H14.1455C15.4762 76.8722 15.705 76.9989 16.3706 78.104L17.4371 79.8755C17.6525 80.2334 17.7713 80.4305 17.2814 81.2439L14.4054 86.0202C13.5322 87.4701 13.4207 88.7134 14.0736 89.7152C14.6678 90.6268 15.7451 91.087 17.2809 91.087C17.4647 91.087 17.6555 91.0804 17.8523 91.0673C23.4064 90.6947 28.382 87.716 31.1619 83.0991C33.2124 79.6938 33.8786 75.7733 33.0757 71.9533L47.4989 58.124L61.9331 71.9638C60.5521 78.6342 63.7526 85.5005 69.968 88.9413C72.5475 90.3691 75.4266 91.0879 78.3141 91.0879C80.8168 91.0877 83.3262 90.5476 85.6496 89.4611C87.3093 88.6849 88.1733 87.6815 88.217 86.4787C88.2601 85.2981 87.5153 84.2749 86.0029 83.4377L81.0215 80.6803C80.173 80.2105 80.173 79.9829 80.173 79.5698V77.5243C80.173 76.2481 80.3051 76.0288 81.4577 75.3908L83.3052 74.368C83.6783 74.1613 83.8837 74.0476 84.7324 74.5173L89.7139 77.2748C91.2259 78.1121 92.5225 78.219 93.5677 77.5929C94.632 76.9551 95.1067 75.7361 94.9777 73.9699C94.5895 68.6442 91.4827 63.8736 86.6675 61.208ZM21.8498 28.4986C21.3806 28.0488 20.6963 27.8734 20.0556 28.0387C16.7005 28.9046 13.1954 28.4639 10.1866 26.7983C6.50048 24.7577 4.1017 21.1302 3.73858 17.0659L8.41033 19.6522C9.57112 20.2948 11.3665 21.0094 13.5485 19.8014L15.3962 18.7786C17.6852 17.5114 18.5363 16.0981 18.5363 13.5638V11.5179C18.5361 9.10229 16.9929 7.96866 15.8321 7.32606L11.1603 4.74018C15.0129 3.00933 19.4891 3.18759 23.175 5.22818C28.2562 8.04125 30.7474 13.7965 29.2326 19.2243C29.0613 19.8381 29.2443 20.493 29.713 20.9422L44.8751 35.4798L42.2513 37.9956L33.9697 30.0551C33.2451 29.3604 32.0702 29.3604 31.3454 30.0551C30.6207 30.7498 30.6209 31.8763 31.3454 32.5712L39.627 40.5118L37.0028 43.0279L21.8498 28.4986ZM29.7219 70.1368C29.2526 70.5868 29.0697 71.2427 29.2423 71.8572C30.1451 75.0743 29.6857 78.4348 27.9484 81.3199C25.8204 84.854 22.0372 87.1542 17.7982 87.5023L20.4955 83.023C21.1655 81.91 21.9107 80.1884 20.6512 78.0964L19.5844 76.3248C18.2628 74.1301 16.789 73.3141 14.1458 73.3141H12.012C9.49282 73.3141 8.31032 74.7937 7.63993 75.9067L4.9428 80.3861C3.13778 76.6922 3.3237 72.4005 5.45176 68.8664C8.38565 63.9943 14.388 61.6055 20.0491 63.0583C20.6892 63.2221 21.3722 63.0471 21.8407 62.5977L65.2766 20.9507C65.7458 20.5008 65.9288 19.8448 65.7562 19.2304C64.8533 16.0133 65.3125 12.6528 67.05 9.76784C69.1783 6.23354 72.9616 3.93355 77.2005 3.58539L74.5031 8.06456C73.8329 9.17754 73.0876 10.899 74.3473 12.9912L75.414 14.7628C76.7357 16.9576 78.2097 17.7735 80.8528 17.7735H82.9866C85.506 17.7733 86.6883 16.2936 87.3585 15.1808L90.0558 10.7015C91.8609 14.3954 91.6749 18.6868 89.5467 22.2211C86.613 27.0933 80.6099 29.4814 74.9494 28.0293C74.3091 27.8651 73.6262 28.0407 73.1577 28.4899L29.7219 70.1368ZM86.5881 71.4356C85.4271 70.793 83.6312 70.0788 81.4501 71.2863L79.6024 72.3091C77.3135 73.5761 76.4624 74.9894 76.4624 77.5235V79.5695C76.4624 81.9851 78.0056 83.1187 79.1664 83.7615L83.8381 86.3475C79.9857 88.0784 75.5098 87.9001 71.8236 85.8596C66.7422 83.0465 64.2512 77.291 65.766 71.8634C65.9373 71.2496 65.7543 70.5948 65.2856 70.1456L50.1233 55.6077L52.7476 53.0916L61.0379 61.0406C61.4003 61.3881 61.8751 61.5617 62.3499 61.5617C62.8247 61.5617 63.2995 61.3879 63.6619 61.0406C64.3865 60.3459 64.3865 59.2194 63.6619 58.5247L55.3716 50.5756L57.9954 48.0598L73.1486 62.589C73.6177 63.0387 74.3018 63.2141 74.9429 63.0489C78.2974 62.183 81.803 62.6237 84.8119 64.2894C88.498 66.33 90.8969 69.9573 91.2599 74.0216L86.5881 71.4356Z" fill="#77150C"/>
<path d="M47.5004 43.7646H47.4991C46.4743 43.7646 45.6443 44.5612 45.6443 45.5439C45.6443 46.5267 46.4756 47.3232 47.5004 47.3232C48.5251 47.3232 49.3558 46.5267 49.3558 45.5439C49.3558 44.5612 48.5251 43.7646 47.5004 43.7646Z" fill="#77150C"/>
</svg>
