<svg width="97" height="96" viewBox="0 0 97 96" fill="none" xmlns="http://www.w3.org/2000/svg">
<path d="M47.8422 55.5417L47.8422 55.5417C47.1523 55.0906 46.2274 55.2838 45.7763 55.9738C45.3251 56.6635 45.5185 57.5884 46.2083 58.0396L46.263 57.9559L46.2083 58.0396C47.9326 59.1675 49.1303 59.5267 50.6408 59.6255V60.9891C50.6408 61.8134 51.309 62.4816 52.1333 62.4816C52.9575 62.4816 53.6257 61.8136 53.6257 60.9891V59.5015C56.6955 58.8528 58.486 56.3012 58.8862 53.9206C59.4078 50.818 57.7815 48.1179 54.7528 47.0472C54.3821 46.9161 54.0038 46.7793 53.6257 46.6371V40.4098C54.5212 40.6579 55.052 41.1072 55.0997 41.1489C55.7061 41.6974 56.6423 41.6557 57.1977 41.0538L57.1977 41.0538C57.7565 40.4479 57.7187 39.5036 57.1125 38.9449C57.0284 38.8673 55.7395 37.7073 53.6257 37.3585V36.1425C53.6257 35.3182 52.9575 34.65 52.1333 34.65C51.309 34.65 50.6408 35.318 50.6408 36.1425V37.4705C50.4665 37.5106 50.2896 37.5562 50.1089 37.6105L50.1088 37.6105C48.1046 38.2142 46.6101 39.9282 46.2048 42.0787C45.8352 44.0397 46.4623 45.9416 47.8567 47.0353C48.5692 47.5941 49.4493 48.1047 50.6408 48.6395V56.6335C49.6778 56.5455 48.9762 56.2833 47.8422 55.5417ZM49.6989 44.6864L49.6988 44.6864C49.1994 44.2947 48.9716 43.5141 49.1382 42.6316L49.1382 42.6316C49.2786 41.887 49.7482 41.0087 50.641 40.5939V45.3041C50.2882 45.1046 49.9694 44.8988 49.6989 44.6864ZM55.9424 53.4257L56.041 53.4422L55.9424 53.4257C55.7461 54.5939 54.9564 55.8274 53.6255 56.3766V49.8142C53.6691 49.8298 53.713 49.8455 53.7578 49.8613C54.9852 50.2951 55.5523 51.0322 55.8042 51.7323C56.0579 52.4376 55.9947 53.115 55.9424 53.4257Z" fill="#77150C" stroke="black" stroke-width="0.2"/>
<mask id="path-2-outside-1" maskUnits="userSpaceOnUse" x="0" y="0" width="97" height="96" fill="black">
<rect fill="white" width="97" height="96"/>
<path d="M94.8831 72.4509C93.0341 69.5875 89.4332 68.4813 86.2994 69.8045L82.5577 71.0402V69.1591C82.5577 66.5179 80.4091 64.3692 77.7679 64.3692C77.1405 64.3692 76.6302 63.8588 76.6302 63.2315V37.7368C76.6302 32.5924 73.9711 27.873 69.5172 25.1122L61.2213 19.9699V15.4368C62.6362 14.4534 65.6205 11.816 67.327 6.22093C67.7051 4.98059 67.4802 3.67229 66.7095 2.63138C65.9416 1.59475 64.7616 1 63.4713 1H41.0406C39.7503 1 38.5703 1.59475 37.8024 2.63138C37.0317 3.67229 36.8067 4.98059 37.1849 6.22093C38.8911 11.816 41.8757 14.4534 43.2905 15.4368V19.9699L34.9947 25.1122C30.5408 27.873 27.8817 32.5924 27.8817 37.7368V44.0601C27.8817 44.8292 28.505 45.4526 29.2742 45.4526C30.0434 45.4526 30.6667 44.8292 30.6667 44.0601V37.7368C30.6667 33.5631 32.8332 29.7287 36.462 27.4793L45.0634 22.1474H59.4488L68.0502 27.4793C71.679 29.7285 73.8456 33.5631 73.8456 37.7368V63.2319C73.8456 65.3949 75.6051 67.1544 77.7681 67.1544C78.8736 67.1544 79.773 68.0537 79.773 69.1593V71.96L65.3334 76.7289C65.3788 76.538 65.4152 76.343 65.4416 76.1445C65.6475 74.5999 65.2395 73.0678 64.2932 71.8301C63.3559 70.6044 62.0016 69.8129 60.4756 69.5976C60.4756 69.5976 37.4901 65.0548 36.446 65.1249C33.7238 65.2993 31.4465 66.949 29.4371 68.4044C29.1977 68.5779 28.9625 68.7483 28.7312 68.9122C27.4216 69.8415 26.1058 70.3871 24.7392 70.6342V69.1593C24.7392 68.0537 25.6388 67.1544 26.7442 67.1544C28.9072 67.1544 30.6667 65.3949 30.6667 63.2319V50.486C30.6667 49.717 30.0434 49.0935 29.2742 49.0935C28.505 49.0935 27.8817 49.717 27.8817 50.486V63.2319C27.8817 63.8592 27.3713 64.3696 26.7438 64.3696C24.1028 64.3696 21.9541 66.5183 21.9541 69.1594V70.7562C20.4542 70.6411 18.869 70.2676 17.1482 69.7255V68.6453C17.1482 66.3008 15.2409 64.3934 12.8963 64.3934H5.25209C2.90753 64.3932 1 66.3006 1 68.6451V90.9847C1 93.3292 2.90753 95.2366 5.25209 95.2366H12.8963C15.2409 95.2366 17.1482 93.3292 17.1482 90.9847V89.2164L27.0657 88.6373C27.078 88.6366 27.0905 88.6356 27.103 88.6345C29.2623 88.4503 31.4787 88.7485 33.5127 89.4978C44.1234 93.4061 44.2558 93.4547 44.2558 93.4547C46.4335 94.2569 48.5364 94.58 50.5834 94.58C54.9357 94.58 59.0323 93.1179 63.035 91.6891C63.946 91.364 64.8876 91.0279 65.8164 90.7148C69.4967 89.4751 73.2292 88.3524 76.737 87.3087C77.4741 87.0895 77.894 86.314 77.6746 85.577C77.4554 84.8399 76.6806 84.421 75.9429 84.6394C72.4108 85.6902 68.6509 86.821 64.9271 88.0755C63.9746 88.3963 63.0211 88.7369 62.0988 89.066C56.4311 91.0889 51.0782 92.9994 45.2172 90.8409C45.1562 90.8184 34.4748 86.884 34.4748 86.884C32.0662 85.997 29.4414 85.6419 26.8844 85.8578L17.1479 86.4263V72.6406C21.2296 73.8467 25.7928 74.4115 30.3425 71.183C30.5806 71.0141 30.8231 70.8383 31.07 70.6594C32.7736 69.4254 34.7048 68.0267 36.6235 67.9036C37.5039 67.845 42.6112 68.8958 44.5342 69.2904C45.0943 69.4051 59.9767 72.3377 59.9767 72.3377C60.0048 72.3431 60.0333 72.3477 60.0616 72.3516C60.8688 72.4591 61.5858 72.8745 62.0803 73.5214C62.5749 74.1683 62.7881 74.969 62.6805 75.7762C62.4583 77.4422 60.9234 78.6178 59.2559 78.3949C59.2436 78.3932 59.2313 78.3917 59.2187 78.3906L46.9207 77.0862C46.1578 77.005 45.4703 77.5592 45.3891 78.3239C45.3079 79.0887 45.8621 79.7743 46.6268 79.8555L58.9079 81.1582C59.7484 81.2677 60.5707 81.1897 61.3344 80.9593C61.412 80.9478 87.2282 72.4306 87.2282 72.4306C87.2677 72.4175 87.3068 72.4027 87.345 72.3861C89.238 71.5664 91.4243 72.2289 92.543 73.9618C93.1922 74.9669 93.3819 76.205 93.0633 77.3586C92.7521 78.4857 91.9831 79.4334 90.9468 79.9702C88.3909 80.8519 85.6296 81.7353 82.0109 82.8294C81.2748 83.052 80.8584 83.829 81.0811 84.5653C81.263 85.1671 81.8157 85.555 82.4134 85.555C82.547 85.555 82.6827 85.5356 82.8169 85.495C86.5134 84.3774 89.3289 83.476 91.9451 82.5719C92.0004 82.5529 92.0544 82.5302 92.1067 82.5043C93.891 81.6235 95.2181 80.0181 95.7477 78.0999C96.278 76.1814 95.9626 74.1225 94.8831 72.4509ZM58.4366 19.3626H46.0753V16.0567H58.4366V19.3626ZM59.4537 13.2717H45.0588C44.7174 13.0524 44.0547 12.5731 43.2896 11.7413C42.2595 10.6214 40.826 8.61353 39.8486 5.4085C39.7304 5.021 39.8004 4.61283 40.0404 4.28864C40.2777 3.96855 40.6421 3.78476 41.0406 3.78476H63.4713C63.8698 3.78476 64.2342 3.96836 64.4714 4.28864C64.7115 4.61283 64.7815 5.02119 64.6632 5.4085C63.6858 8.61353 62.2524 10.6212 61.2223 11.7413C60.4549 12.5753 59.7905 13.0552 59.4537 13.2717ZM14.3633 90.9847C14.3633 91.7935 13.7052 92.4516 12.8963 92.4516H5.25209C4.44301 92.4516 3.78494 91.7935 3.78494 90.9847V68.6451C3.78494 67.8363 4.44301 67.1782 5.25209 67.1782H12.8963C13.7052 67.1782 14.3633 67.8363 14.3633 68.6451V90.9847Z"/>
</mask>
<path d="M94.8831 72.4509C93.0341 69.5875 89.4332 68.4813 86.2994 69.8045L82.5577 71.0402V69.1591C82.5577 66.5179 80.4091 64.3692 77.7679 64.3692C77.1405 64.3692 76.6302 63.8588 76.6302 63.2315V37.7368C76.6302 32.5924 73.9711 27.873 69.5172 25.1122L61.2213 19.9699V15.4368C62.6362 14.4534 65.6205 11.816 67.327 6.22093C67.7051 4.98059 67.4802 3.67229 66.7095 2.63138C65.9416 1.59475 64.7616 1 63.4713 1H41.0406C39.7503 1 38.5703 1.59475 37.8024 2.63138C37.0317 3.67229 36.8067 4.98059 37.1849 6.22093C38.8911 11.816 41.8757 14.4534 43.2905 15.4368V19.9699L34.9947 25.1122C30.5408 27.873 27.8817 32.5924 27.8817 37.7368V44.0601C27.8817 44.8292 28.505 45.4526 29.2742 45.4526C30.0434 45.4526 30.6667 44.8292 30.6667 44.0601V37.7368C30.6667 33.5631 32.8332 29.7287 36.462 27.4793L45.0634 22.1474H59.4488L68.0502 27.4793C71.679 29.7285 73.8456 33.5631 73.8456 37.7368V63.2319C73.8456 65.3949 75.6051 67.1544 77.7681 67.1544C78.8736 67.1544 79.773 68.0537 79.773 69.1593V71.96L65.3334 76.7289C65.3788 76.538 65.4152 76.343 65.4416 76.1445C65.6475 74.5999 65.2395 73.0678 64.2932 71.8301C63.3559 70.6044 62.0016 69.8129 60.4756 69.5976C60.4756 69.5976 37.4901 65.0548 36.446 65.1249C33.7238 65.2993 31.4465 66.949 29.4371 68.4044C29.1977 68.5779 28.9625 68.7483 28.7312 68.9122C27.4216 69.8415 26.1058 70.3871 24.7392 70.6342V69.1593C24.7392 68.0537 25.6388 67.1544 26.7442 67.1544C28.9072 67.1544 30.6667 65.3949 30.6667 63.2319V50.486C30.6667 49.717 30.0434 49.0935 29.2742 49.0935C28.505 49.0935 27.8817 49.717 27.8817 50.486V63.2319C27.8817 63.8592 27.3713 64.3696 26.7438 64.3696C24.1028 64.3696 21.9541 66.5183 21.9541 69.1594V70.7562C20.4542 70.6411 18.869 70.2676 17.1482 69.7255V68.6453C17.1482 66.3008 15.2409 64.3934 12.8963 64.3934H5.25209C2.90753 64.3932 1 66.3006 1 68.6451V90.9847C1 93.3292 2.90753 95.2366 5.25209 95.2366H12.8963C15.2409 95.2366 17.1482 93.3292 17.1482 90.9847V89.2164L27.0657 88.6373C27.078 88.6366 27.0905 88.6356 27.103 88.6345C29.2623 88.4503 31.4787 88.7485 33.5127 89.4978C44.1234 93.4061 44.2558 93.4547 44.2558 93.4547C46.4335 94.2569 48.5364 94.58 50.5834 94.58C54.9357 94.58 59.0323 93.1179 63.035 91.6891C63.946 91.364 64.8876 91.0279 65.8164 90.7148C69.4967 89.4751 73.2292 88.3524 76.737 87.3087C77.4741 87.0895 77.894 86.314 77.6746 85.577C77.4554 84.8399 76.6806 84.421 75.9429 84.6394C72.4108 85.6902 68.6509 86.821 64.9271 88.0755C63.9746 88.3963 63.0211 88.7369 62.0988 89.066C56.4311 91.0889 51.0782 92.9994 45.2172 90.8409C45.1562 90.8184 34.4748 86.884 34.4748 86.884C32.0662 85.997 29.4414 85.6419 26.8844 85.8578L17.1479 86.4263V72.6406C21.2296 73.8467 25.7928 74.4115 30.3425 71.183C30.5806 71.0141 30.8231 70.8383 31.07 70.6594C32.7736 69.4254 34.7048 68.0267 36.6235 67.9036C37.5039 67.845 42.6112 68.8958 44.5342 69.2904C45.0943 69.4051 59.9767 72.3377 59.9767 72.3377C60.0048 72.3431 60.0333 72.3477 60.0616 72.3516C60.8688 72.4591 61.5858 72.8745 62.0803 73.5214C62.5749 74.1683 62.7881 74.969 62.6805 75.7762C62.4583 77.4422 60.9234 78.6178 59.2559 78.3949C59.2436 78.3932 59.2313 78.3917 59.2187 78.3906L46.9207 77.0862C46.1578 77.005 45.4703 77.5592 45.3891 78.3239C45.3079 79.0887 45.8621 79.7743 46.6268 79.8555L58.9079 81.1582C59.7484 81.2677 60.5707 81.1897 61.3344 80.9593C61.412 80.9478 87.2282 72.4306 87.2282 72.4306C87.2677 72.4175 87.3068 72.4027 87.345 72.3861C89.238 71.5664 91.4243 72.2289 92.543 73.9618C93.1922 74.9669 93.3819 76.205 93.0633 77.3586C92.7521 78.4857 91.9831 79.4334 90.9468 79.9702C88.3909 80.8519 85.6296 81.7353 82.0109 82.8294C81.2748 83.052 80.8584 83.829 81.0811 84.5653C81.263 85.1671 81.8157 85.555 82.4134 85.555C82.547 85.555 82.6827 85.5356 82.8169 85.495C86.5134 84.3774 89.3289 83.476 91.9451 82.5719C92.0004 82.5529 92.0544 82.5302 92.1067 82.5043C93.891 81.6235 95.2181 80.0181 95.7477 78.0999C96.278 76.1814 95.9626 74.1225 94.8831 72.4509ZM58.4366 19.3626H46.0753V16.0567H58.4366V19.3626ZM59.4537 13.2717H45.0588C44.7174 13.0524 44.0547 12.5731 43.2896 11.7413C42.2595 10.6214 40.826 8.61353 39.8486 5.4085C39.7304 5.021 39.8004 4.61283 40.0404 4.28864C40.2777 3.96855 40.6421 3.78476 41.0406 3.78476H63.4713C63.8698 3.78476 64.2342 3.96836 64.4714 4.28864C64.7115 4.61283 64.7815 5.02119 64.6632 5.4085C63.6858 8.61353 62.2524 10.6212 61.2223 11.7413C60.4549 12.5753 59.7905 13.0552 59.4537 13.2717ZM14.3633 90.9847C14.3633 91.7935 13.7052 92.4516 12.8963 92.4516H5.25209C4.44301 92.4516 3.78494 91.7935 3.78494 90.9847V68.6451C3.78494 67.8363 4.44301 67.1782 5.25209 67.1782H12.8963C13.7052 67.1782 14.3633 67.8363 14.3633 68.6451V90.9847Z" fill="#77150C"/>
<path d="M94.8831 72.4509C93.0341 69.5875 89.4332 68.4813 86.2994 69.8045L82.5577 71.0402V69.1591C82.5577 66.5179 80.4091 64.3692 77.7679 64.3692C77.1405 64.3692 76.6302 63.8588 76.6302 63.2315V37.7368C76.6302 32.5924 73.9711 27.873 69.5172 25.1122L61.2213 19.9699V15.4368C62.6362 14.4534 65.6205 11.816 67.327 6.22093C67.7051 4.98059 67.4802 3.67229 66.7095 2.63138C65.9416 1.59475 64.7616 1 63.4713 1H41.0406C39.7503 1 38.5703 1.59475 37.8024 2.63138C37.0317 3.67229 36.8067 4.98059 37.1849 6.22093C38.8911 11.816 41.8757 14.4534 43.2905 15.4368V19.9699L34.9947 25.1122C30.5408 27.873 27.8817 32.5924 27.8817 37.7368V44.0601C27.8817 44.8292 28.505 45.4526 29.2742 45.4526C30.0434 45.4526 30.6667 44.8292 30.6667 44.0601V37.7368C30.6667 33.5631 32.8332 29.7287 36.462 27.4793L45.0634 22.1474H59.4488L68.0502 27.4793C71.679 29.7285 73.8456 33.5631 73.8456 37.7368V63.2319C73.8456 65.3949 75.6051 67.1544 77.7681 67.1544C78.8736 67.1544 79.773 68.0537 79.773 69.1593V71.96L65.3334 76.7289C65.3788 76.538 65.4152 76.343 65.4416 76.1445C65.6475 74.5999 65.2395 73.0678 64.2932 71.8301C63.3559 70.6044 62.0016 69.8129 60.4756 69.5976C60.4756 69.5976 37.4901 65.0548 36.446 65.1249C33.7238 65.2993 31.4465 66.949 29.4371 68.4044C29.1977 68.5779 28.9625 68.7483 28.7312 68.9122C27.4216 69.8415 26.1058 70.3871 24.7392 70.6342V69.1593C24.7392 68.0537 25.6388 67.1544 26.7442 67.1544C28.9072 67.1544 30.6667 65.3949 30.6667 63.2319V50.486C30.6667 49.717 30.0434 49.0935 29.2742 49.0935C28.505 49.0935 27.8817 49.717 27.8817 50.486V63.2319C27.8817 63.8592 27.3713 64.3696 26.7438 64.3696C24.1028 64.3696 21.9541 66.5183 21.9541 69.1594V70.7562C20.4542 70.6411 18.869 70.2676 17.1482 69.7255V68.6453C17.1482 66.3008 15.2409 64.3934 12.8963 64.3934H5.25209C2.90753 64.3932 1 66.3006 1 68.6451V90.9847C1 93.3292 2.90753 95.2366 5.25209 95.2366H12.8963C15.2409 95.2366 17.1482 93.3292 17.1482 90.9847V89.2164L27.0657 88.6373C27.078 88.6366 27.0905 88.6356 27.103 88.6345C29.2623 88.4503 31.4787 88.7485 33.5127 89.4978C44.1234 93.4061 44.2558 93.4547 44.2558 93.4547C46.4335 94.2569 48.5364 94.58 50.5834 94.58C54.9357 94.58 59.0323 93.1179 63.035 91.6891C63.946 91.364 64.8876 91.0279 65.8164 90.7148C69.4967 89.4751 73.2292 88.3524 76.737 87.3087C77.4741 87.0895 77.894 86.314 77.6746 85.577C77.4554 84.8399 76.6806 84.421 75.9429 84.6394C72.4108 85.6902 68.6509 86.821 64.9271 88.0755C63.9746 88.3963 63.0211 88.7369 62.0988 89.066C56.4311 91.0889 51.0782 92.9994 45.2172 90.8409C45.1562 90.8184 34.4748 86.884 34.4748 86.884C32.0662 85.997 29.4414 85.6419 26.8844 85.8578L17.1479 86.4263V72.6406C21.2296 73.8467 25.7928 74.4115 30.3425 71.183C30.5806 71.0141 30.8231 70.8383 31.07 70.6594C32.7736 69.4254 34.7048 68.0267 36.6235 67.9036C37.5039 67.845 42.6112 68.8958 44.5342 69.2904C45.0943 69.4051 59.9767 72.3377 59.9767 72.3377C60.0048 72.3431 60.0333 72.3477 60.0616 72.3516C60.8688 72.4591 61.5858 72.8745 62.0803 73.5214C62.5749 74.1683 62.7881 74.969 62.6805 75.7762C62.4583 77.4422 60.9234 78.6178 59.2559 78.3949C59.2436 78.3932 59.2313 78.3917 59.2187 78.3906L46.9207 77.0862C46.1578 77.005 45.4703 77.5592 45.3891 78.3239C45.3079 79.0887 45.8621 79.7743 46.6268 79.8555L58.9079 81.1582C59.7484 81.2677 60.5707 81.1897 61.3344 80.9593C61.412 80.9478 87.2282 72.4306 87.2282 72.4306C87.2677 72.4175 87.3068 72.4027 87.345 72.3861C89.238 71.5664 91.4243 72.2289 92.543 73.9618C93.1922 74.9669 93.3819 76.205 93.0633 77.3586C92.7521 78.4857 91.9831 79.4334 90.9468 79.9702C88.3909 80.8519 85.6296 81.7353 82.0109 82.8294C81.2748 83.052 80.8584 83.829 81.0811 84.5653C81.263 85.1671 81.8157 85.555 82.4134 85.555C82.547 85.555 82.6827 85.5356 82.8169 85.495C86.5134 84.3774 89.3289 83.476 91.9451 82.5719C92.0004 82.5529 92.0544 82.5302 92.1067 82.5043C93.891 81.6235 95.2181 80.0181 95.7477 78.0999C96.278 76.1814 95.9626 74.1225 94.8831 72.4509ZM58.4366 19.3626H46.0753V16.0567H58.4366V19.3626ZM59.4537 13.2717H45.0588C44.7174 13.0524 44.0547 12.5731 43.2896 11.7413C42.2595 10.6214 40.826 8.61353 39.8486 5.4085C39.7304 5.021 39.8004 4.61283 40.0404 4.28864C40.2777 3.96855 40.6421 3.78476 41.0406 3.78476H63.4713C63.8698 3.78476 64.2342 3.96836 64.4714 4.28864C64.7115 4.61283 64.7815 5.02119 64.6632 5.4085C63.6858 8.61353 62.2524 10.6212 61.2223 11.7413C60.4549 12.5753 59.7905 13.0552 59.4537 13.2717ZM14.3633 90.9847C14.3633 91.7935 13.7052 92.4516 12.8963 92.4516H5.25209C4.44301 92.4516 3.78494 91.7935 3.78494 90.9847V68.6451C3.78494 67.8363 4.44301 67.1782 5.25209 67.1782H12.8963C13.7052 67.1782 14.3633 67.8363 14.3633 68.6451V90.9847Z" stroke="black" stroke-width="0.4" mask="url(#path-2-outside-1)"/>
</svg>
