<svg width="94" height="90" viewBox="0 0 94 90" fill="none" xmlns="http://www.w3.org/2000/svg">
<path d="M86.0625 8.98891H78.25V5.99261C78.25 4.40327 77.5915 2.87903 76.4194 1.75519C75.2473 0.631362 73.6576 0 72 0C70.3424 0 68.7527 0.631362 67.5806 1.75519C66.4085 2.87903 65.75 4.40327 65.75 5.99261V8.98891H53.25V5.99261C53.25 4.40327 52.5915 2.87903 51.4194 1.75519C50.2473 0.631362 48.6576 0 47 0C45.3424 0 43.7527 0.631362 42.5806 1.75519C41.4085 2.87903 40.75 4.40327 40.75 5.99261V8.98891H28.25V5.99261C28.25 4.40327 27.5915 2.87903 26.4194 1.75519C25.2473 0.631362 23.6576 0 22 0C20.3424 0 18.7527 0.631362 17.5806 1.75519C16.4085 2.87903 15.75 4.40327 15.75 5.99261V8.98891H7.9375C5.8655 8.98891 3.87836 9.77811 2.41323 11.1829C0.9481 12.5877 0.125 14.493 0.125 16.4797V76.4057C0.125 78.3924 0.9481 80.2977 2.41323 81.7025C3.87836 83.1073 5.8655 83.8965 7.9375 83.8965H51.6875C52.1019 83.8965 52.4993 83.7386 52.7924 83.4577C53.0854 83.1767 53.25 82.7957 53.25 82.3983C53.25 82.001 53.0854 81.6199 52.7924 81.339C52.4993 81.058 52.1019 80.9002 51.6875 80.9002H7.9375C6.69544 80.8966 5.50531 80.422 4.62704 79.5799C3.74876 78.7378 3.25371 77.5966 3.25 76.4057V29.963H90.75V55.4316C90.75 55.8289 90.9146 56.21 91.2076 56.491C91.5007 56.7719 91.8981 56.9298 92.3125 56.9298C92.7269 56.9298 93.1243 56.7719 93.4174 56.491C93.7104 56.21 93.875 55.8289 93.875 55.4316V16.4797C93.875 14.493 93.0519 12.5877 91.5868 11.1829C90.1216 9.77811 88.1345 8.98891 86.0625 8.98891ZM68.875 5.99261C68.875 5.19794 69.2042 4.43582 69.7903 3.8739C70.3763 3.31198 71.1712 2.9963 72 2.9963C72.8288 2.9963 73.6237 3.31198 74.2097 3.8739C74.7958 4.43582 75.125 5.19794 75.125 5.99261V14.9815C75.125 15.7762 74.7958 16.5383 74.2097 17.1002C73.6237 17.6621 72.8288 17.9778 72 17.9778C71.1712 17.9778 70.3763 17.6621 69.7903 17.1002C69.2042 16.5383 68.875 15.7762 68.875 14.9815V5.99261ZM43.875 5.99261C43.875 5.19794 44.2042 4.43582 44.7903 3.8739C45.3763 3.31198 46.1712 2.9963 47 2.9963C47.8288 2.9963 48.6237 3.31198 49.2097 3.8739C49.7958 4.43582 50.125 5.19794 50.125 5.99261V14.9815C50.125 15.7762 49.7958 16.5383 49.2097 17.1002C48.6237 17.6621 47.8288 17.9778 47 17.9778C46.1712 17.9778 45.3763 17.6621 44.7903 17.1002C44.2042 16.5383 43.875 15.7762 43.875 14.9815V5.99261ZM18.875 5.99261C18.875 5.19794 19.2042 4.43582 19.7903 3.8739C20.3763 3.31198 21.1712 2.9963 22 2.9963C22.8288 2.9963 23.6237 3.31198 24.2097 3.8739C24.7958 4.43582 25.125 5.19794 25.125 5.99261V14.9815C25.125 15.7762 24.7958 16.5383 24.2097 17.1002C23.6237 17.6621 22.8288 17.9778 22 17.9778C21.1712 17.9778 20.3763 17.6621 19.7903 17.1002C19.2042 16.5383 18.875 15.7762 18.875 14.9815V5.99261ZM90.75 26.9667H3.25V16.4797C3.25371 15.2888 3.74876 14.1476 4.62704 13.3055C5.50531 12.4634 6.69544 11.9888 7.9375 11.9852H15.75V14.9815C15.75 16.5709 16.4085 18.0951 17.5806 19.2189C18.7527 20.3428 20.3424 20.9741 22 20.9741C23.6576 20.9741 25.2473 20.3428 26.4194 19.2189C27.5915 18.0951 28.25 16.5709 28.25 14.9815V11.9852H40.75V14.9815C40.75 16.5709 41.4085 18.0951 42.5806 19.2189C43.7527 20.3428 45.3424 20.9741 47 20.9741C48.6576 20.9741 50.2473 20.3428 51.4194 19.2189C52.5915 18.0951 53.25 16.5709 53.25 14.9815V11.9852H65.75V14.9815C65.75 16.5709 66.4085 18.0951 67.5806 19.2189C68.7527 20.3428 70.3424 20.9741 72 20.9741C73.6576 20.9741 75.2473 20.3428 76.4194 19.2189C77.5915 18.0951 78.25 16.5709 78.25 14.9815V11.9852H86.0625C87.3046 11.9888 88.4947 12.4634 89.373 13.3055C90.2512 14.1476 90.7463 15.2888 90.75 16.4797V26.9667Z" fill="#77150C"/>
<path d="M43.875 40.4495C43.875 39.6548 43.5458 38.8927 42.9597 38.3307C42.3737 37.7688 41.5788 37.4531 40.75 37.4531H34.5C33.6712 37.4531 32.8763 37.7688 32.2903 38.3307C31.7042 38.8927 31.375 39.6548 31.375 40.4495V44.9441C31.375 45.7387 31.7042 46.5009 32.2903 47.0628C32.8763 47.6247 33.6712 47.9404 34.5 47.9404H40.75C41.5788 47.9404 42.3737 47.6247 42.9597 47.0628C43.5458 46.5009 43.875 45.7387 43.875 44.9441V40.4495ZM34.5 44.9441V40.4495H40.75V44.9441H34.5Z" fill="#77150C"/>
<path d="M25.125 40.4495C25.125 39.6548 24.7958 38.8927 24.2097 38.3307C23.6237 37.7688 22.8288 37.4531 22 37.4531H15.75C14.9212 37.4531 14.1263 37.7688 13.5403 38.3307C12.9542 38.8927 12.625 39.6548 12.625 40.4495V44.9441C12.625 45.7387 12.9542 46.5009 13.5403 47.0628C14.1263 47.6247 14.9212 47.9404 15.75 47.9404H22C22.8288 47.9404 23.6237 47.6247 24.2097 47.0628C24.7958 46.5009 25.125 45.7387 25.125 44.9441V40.4495ZM15.75 44.9441V40.4495H22V44.9441H15.75Z" fill="#77150C"/>
<path d="M78.25 47.9404C79.0788 47.9404 79.8737 47.6247 80.4597 47.0628C81.0458 46.5009 81.375 45.7387 81.375 44.9441V40.4495C81.375 39.6548 81.0458 38.8927 80.4597 38.3307C79.8737 37.7688 79.0788 37.4531 78.25 37.4531H72C71.1712 37.4531 70.3763 37.7688 69.7903 38.3307C69.2042 38.8927 68.875 39.6548 68.875 40.4495V44.9441C68.875 45.7387 69.2042 46.5009 69.7903 47.0628C70.3763 47.6247 71.1712 47.9404 72 47.9404H78.25ZM72 40.4495H78.25V44.9441H72V40.4495Z" fill="#77150C"/>
<path d="M43.875 53.9329C43.875 53.1382 43.5458 52.3761 42.9597 51.8141C42.3737 51.2522 41.5788 50.9365 40.75 50.9365H34.5C33.6712 50.9365 32.8763 51.2522 32.2903 51.8141C31.7042 52.3761 31.375 53.1382 31.375 53.9329V58.4275C31.375 59.2221 31.7042 59.9843 32.2903 60.5462C32.8763 61.1081 33.6712 61.4238 34.5 61.4238H40.75C41.5788 61.4238 42.3737 61.1081 42.9597 60.5462C43.5458 59.9843 43.875 59.2221 43.875 58.4275V53.9329ZM34.5 58.4275V53.9329H40.75V58.4275H34.5Z" fill="#77150C"/>
<path d="M25.125 53.9329C25.125 53.1382 24.7958 52.3761 24.2097 51.8141C23.6237 51.2522 22.8288 50.9365 22 50.9365H15.75C14.9212 50.9365 14.1263 51.2522 13.5403 51.8141C12.9542 52.3761 12.625 53.1382 12.625 53.9329V58.4275C12.625 59.2221 12.9542 59.9843 13.5403 60.5462C14.1263 61.1081 14.9212 61.4238 15.75 61.4238H22C22.8288 61.4238 23.6237 61.1081 24.2097 60.5462C24.7958 59.9843 25.125 59.2221 25.125 58.4275V53.9329ZM15.75 58.4275V53.9329H22V58.4275H15.75Z" fill="#77150C"/>
<path d="M40.75 64.4199H34.5C33.6712 64.4199 32.8763 64.7356 32.2903 65.2975C31.7042 65.8595 31.375 66.6216 31.375 67.4163V71.9109C31.375 72.7055 31.7042 73.4677 32.2903 74.0296C32.8763 74.5915 33.6712 74.9072 34.5 74.9072H40.75C41.5788 74.9072 42.3737 74.5915 42.9597 74.0296C43.5458 73.4677 43.875 72.7055 43.875 71.9109V67.4163C43.875 66.6216 43.5458 65.8595 42.9597 65.2975C42.3737 64.7356 41.5788 64.4199 40.75 64.4199ZM34.5 71.9109V67.4163H40.75V71.9109H34.5Z" fill="#77150C"/>
<path d="M53.25 47.9404H59.5C60.3288 47.9404 61.1237 47.6247 61.7097 47.0628C62.2958 46.5009 62.625 45.7387 62.625 44.9441V40.4495C62.625 39.6548 62.2958 38.8927 61.7097 38.3307C61.1237 37.7688 60.3288 37.4531 59.5 37.4531H53.25C52.4212 37.4531 51.6263 37.7688 51.0403 38.3307C50.4542 38.8927 50.125 39.6548 50.125 40.4495V44.9441C50.125 45.7387 50.4542 46.5009 51.0403 47.0628C51.6263 47.6247 52.4212 47.9404 53.25 47.9404ZM53.25 40.4495H59.5V44.9441H53.25V40.4495Z" fill="#77150C"/>
<path d="M50.125 58.4275C50.125 59.2221 50.4542 59.9843 51.0403 60.5462C51.6263 61.1081 52.4212 61.4238 53.25 61.4238C53.6644 61.4238 54.0618 61.266 54.3549 60.985C54.6479 60.7041 54.8125 60.323 54.8125 59.9256C54.8125 59.5283 54.6479 59.1472 54.3549 58.8663C54.0618 58.5853 53.6644 58.4275 53.25 58.4275V53.9329H59.5C59.9144 53.9329 60.3118 53.7751 60.6049 53.4941C60.8979 53.2131 61.0625 52.8321 61.0625 52.4347C61.0625 52.0374 60.8979 51.6563 60.6049 51.3753C60.3118 51.0944 59.9144 50.9365 59.5 50.9365H53.25C52.4212 50.9365 51.6263 51.2522 51.0403 51.8141C50.4542 52.3761 50.125 53.1382 50.125 53.9329V58.4275Z" fill="#77150C"/>
<path d="M22 64.4199H15.75C14.9212 64.4199 14.1263 64.7356 13.5403 65.2975C12.9542 65.8595 12.625 66.6216 12.625 67.4163V71.9109C12.625 72.7055 12.9542 73.4677 13.5403 74.0296C14.1263 74.5915 14.9212 74.9072 15.75 74.9072H22C22.8288 74.9072 23.6237 74.5915 24.2097 74.0296C24.7958 73.4677 25.125 72.7055 25.125 71.9109V67.4163C25.125 66.6216 24.7958 65.8595 24.2097 65.2975C23.6237 64.7356 22.8288 64.4199 22 64.4199ZM15.75 71.9109V67.4163H22V71.9109H15.75Z" fill="#77150C"/>
<path d="M73.5625 50.9365C69.5451 50.9365 65.6179 52.0788 62.2775 54.2188C58.9371 56.3589 56.3336 59.4006 54.7962 62.9594C53.2588 66.5182 52.8565 70.4342 53.6403 74.2122C54.4241 77.9902 56.3587 81.4605 59.1994 84.1842C62.0402 86.908 65.6595 88.7629 69.5997 89.5144C73.54 90.2659 77.6241 89.8802 81.3358 88.4061C85.0474 86.932 88.2198 84.4357 90.4517 81.2329C92.6837 78.0301 93.875 74.2646 93.875 70.4126C93.8688 65.249 91.7267 60.2987 87.9188 56.6475C84.1108 52.9963 78.9478 50.9425 73.5625 50.9365ZM73.5625 86.8923C70.1631 86.8923 66.8401 85.9258 64.0136 84.115C61.1872 82.3042 58.9842 79.7304 57.6833 76.7191C56.3825 73.7078 56.0421 70.3943 56.7053 67.1976C57.3684 64.0008 59.0054 61.0644 61.4091 58.7596C63.8128 56.4549 66.8753 54.8854 70.2094 54.2495C73.5434 53.6136 76.9993 53.94 80.1399 55.1873C83.2805 56.4346 85.9648 58.5469 87.8534 61.2569C89.742 63.967 90.75 67.1532 90.75 70.4126C90.7446 74.7817 88.9321 78.9704 85.71 82.0598C82.4878 85.1493 78.1193 86.8872 73.5625 86.8923Z" fill="#77150C"/>
<path d="M82.5908 64.1315L70.4377 75.7842L64.9142 70.4867C64.6195 70.2138 64.2248 70.0628 63.8152 70.0662C63.4055 70.0696 63.0136 70.2271 62.7239 70.5049C62.4342 70.7827 62.2699 71.1584 62.2663 71.5513C62.2627 71.9441 62.4202 72.3225 62.7048 72.6051L69.333 78.9618C69.626 79.2426 70.0233 79.4004 70.4377 79.4004C70.852 79.4004 71.2493 79.2426 71.5423 78.9618L84.8002 66.2499C85.0848 65.9673 85.2423 65.5889 85.2387 65.1961C85.2352 64.8033 85.0708 64.4275 84.7811 64.1497C84.4914 63.872 84.0995 63.7144 83.6898 63.711C83.2802 63.7076 82.8855 63.8586 82.5908 64.1315Z" fill="#77150C"/>
</svg>
