<svg width="100" height="97" viewBox="0 0 100 97" fill="none" xmlns="http://www.w3.org/2000/svg">
<path d="M98.419 62.911L93.7875 61.0414L92.0692 57.0674L93.9691 52.5932C94.2218 51.9979 94.0781 51.3154 93.6042 50.861L88.1727 45.6549C87.6987 45.2005 86.9869 45.0627 86.3661 45.305L81.6996 47.1266L77.553 45.4791L75.6064 41.0385C75.3462 40.4456 74.7406 40.0603 74.0698 40.0605H66.3884C65.7172 40.0605 65.1116 40.4466 64.8518 41.0401L62.9018 45.4791L58.757 47.1266L54.0905 45.305C53.4697 45.0627 52.7578 45.2005 52.2839 45.6549L46.8524 50.8626C46.3784 51.317 46.2347 51.9995 46.4874 52.5948L48.3873 57.069L46.6691 61.043L42.0392 62.9126C41.4203 63.1617 41.0176 63.7423 41.0176 64.3859V71.7492C41.0174 72.3924 41.4192 72.973 42.0375 73.2225L46.6691 75.0921L48.3873 79.0677L46.4874 83.542C46.2347 84.1372 46.3784 84.8197 46.8524 85.2741L52.2855 90.4802C52.7595 90.9346 53.4713 91.0724 54.0921 90.8302L58.7587 89.0101L62.9035 90.656L64.8534 95.0982C65.1136 95.6911 65.7193 96.0764 66.3901 96.0762H74.0698C74.7402 96.0766 75.3456 95.6921 75.6064 95.0998L77.5564 90.6576L81.7029 89.0101L86.3694 90.8317C86.9896 91.0722 87.6996 90.9338 88.1727 90.4802L93.6058 85.2709C94.0798 84.8165 94.2235 84.134 93.9708 83.5388L92.0725 79.0645L93.7892 75.0889L98.4223 73.2193C99.0388 72.969 99.4392 72.3894 99.439 71.7476V64.3843C99.4392 63.7411 99.0373 63.1605 98.419 62.911ZM96.1057 70.6866L91.8625 72.4012C91.4582 72.5644 91.1372 72.8737 90.9692 73.2624L88.7276 78.4525C88.5618 78.8406 88.5618 79.2757 88.7276 79.6638L90.4626 83.7689L86.6061 87.4681L82.3312 85.7998C81.9256 85.6417 81.4719 85.6417 81.0662 85.7998L75.6548 87.9507C75.2498 88.1113 74.9271 88.4185 74.7565 88.8056L72.9615 92.8771H67.495L65.7101 88.8088C65.5399 88.4211 65.2172 88.1133 64.8118 87.9523L59.3986 85.803C58.9934 85.6437 58.5389 85.6437 58.1337 85.803L53.8588 87.4697L49.9939 83.7689L51.7339 79.6702C51.9014 79.2819 51.9014 78.8456 51.7339 78.4573L49.4906 73.2688C49.3231 72.8805 49.0027 72.5711 48.599 72.4075L44.3558 70.693V65.4517L48.5973 63.7403C49.0017 63.5772 49.3227 63.2678 49.4906 62.8791L51.7339 57.6906C51.9005 57.3015 51.9005 56.8652 51.7339 56.4761L49.9939 52.3774L53.8588 48.6718L58.1337 50.3401C58.5389 50.5023 58.9951 50.5023 59.4003 50.3401L64.8118 48.1892C65.2172 48.0283 65.5399 47.7204 65.7101 47.3327L67.495 43.266H72.9615L74.7498 47.3343C74.9204 47.7214 75.2431 48.0287 75.6481 48.1892L81.0596 50.3401C81.4644 50.5015 81.9198 50.5015 82.3245 50.3401L86.6061 48.6654L90.4709 52.371L88.731 56.4697C88.5643 56.8588 88.5643 57.2951 88.731 57.6842L90.9742 62.8727C91.1422 63.2614 91.4632 63.5708 91.8675 63.734L96.1057 65.4453V70.6866Z" fill="#77150C"/>
<path d="M70.2286 52.0879C61.0241 52.0879 53.5625 59.2419 53.5625 68.0669C53.5625 76.8919 61.0241 84.0459 70.2286 84.0459C79.4331 84.0459 86.8947 76.8919 86.8947 68.0669C86.8847 59.2459 79.4289 52.0975 70.2286 52.0879ZM70.2286 80.8501C62.8651 80.8501 56.8957 75.1268 56.8957 68.0669C56.8957 61.007 62.8651 55.2837 70.2286 55.2837C77.5921 55.2837 83.5615 61.007 83.5615 68.0669C83.5532 75.1236 77.5888 80.8421 70.2286 80.8501Z" fill="#77150C"/>
<path d="M71.8957 66.4697H68.5625V69.665H71.8957V66.4697Z" fill="#77150C"/>
<path d="M65.2297 66.4697H61.8965V69.665H65.2297V66.4697Z" fill="#77150C"/>
<path d="M78.5559 66.4697H75.2227V69.665H78.5559V66.4697Z" fill="#77150C"/>
<path d="M70.2024 18.078L65.7992 15.9031L65.0292 14.123L66.5392 9.59285C66.729 9.02358 66.5715 8.40018 66.1309 7.97732L62.9893 4.96519C62.5483 4.54273 61.8981 4.39173 61.3044 4.57369L56.5795 6.02143L54.7229 5.28318L52.4547 1.0614C52.1688 0.529483 51.597 0.195312 50.973 0.195312H46.5282C45.9042 0.195312 45.3324 0.529483 45.0466 1.0614L42.7733 5.28318L40.9184 6.02143L36.2002 4.57369C35.6058 4.39113 34.955 4.54213 34.5136 4.96519L31.3703 7.97732C30.9297 8.40018 30.7722 9.02358 30.962 9.59285L32.4703 14.123L31.7003 15.9031L27.2988 18.078C26.744 18.352 26.3955 18.9003 26.3955 19.4985V23.7603C26.3955 24.3585 26.744 24.9068 27.2988 25.1808L31.7003 27.3604L32.4703 29.139L30.962 33.6675C30.7716 34.2374 30.9291 34.8614 31.3703 35.2847L34.5119 38.2984C34.9529 38.7209 35.6031 38.8719 36.1969 38.6899L40.9217 37.2437L42.7733 37.9772L45.0416 42.1974C45.3274 42.7293 45.8992 43.0635 46.5232 43.0635H50.973C51.597 43.0635 52.1688 42.7293 52.4547 42.1974L54.7229 37.9772L56.5795 37.239L61.3044 38.6851C61.8981 38.8671 62.5483 38.7161 62.9893 38.2936L66.1309 35.2815C66.5715 34.8586 66.729 34.2352 66.5392 33.6659L65.0292 29.1358L65.7992 27.3604L70.2024 25.1856C70.7588 24.9108 71.1076 24.3603 71.1057 23.7603V19.4985C71.1057 18.9003 70.7572 18.352 70.2024 18.078ZM67.7725 22.7871L63.7293 24.7845C63.3789 24.9575 63.1037 25.244 62.9526 25.5931L61.7177 28.4534C61.5668 28.802 61.5502 29.1905 61.671 29.5496L63.056 33.7043L61.3494 35.3502L57.0162 34.0223C56.641 33.907 56.2354 33.9228 55.8712 34.067L52.888 35.2527C52.5249 35.3973 52.2267 35.6606 52.0463 35.9958L49.9631 39.8724H47.5431L45.4599 35.9894C45.2799 35.6534 44.9809 35.3899 44.6166 35.2463L41.6333 34.0606C41.2698 33.916 40.8646 33.9 40.49 34.0159L36.1569 35.3438L34.4402 33.7091L35.8252 29.5544C35.9454 29.1947 35.9289 28.8058 35.7785 28.4566L34.5419 25.5963C34.3921 25.247 34.1173 24.9603 33.7669 24.7877L29.7237 22.7903V20.4717L33.7669 18.4742C34.1165 18.3013 34.3911 18.0154 34.5419 17.6673L35.7785 14.807C35.9289 14.4578 35.9454 14.0689 35.8252 13.7092L34.4402 9.5497L36.1519 7.9134L40.485 9.2413C40.86 9.35795 41.2661 9.34197 41.63 9.19656L44.6132 8.01248C44.9774 7.86766 45.2761 7.6038 45.4565 7.26783L47.5431 3.39121H49.9581L52.0413 7.26783C52.2213 7.6036 52.5194 7.86746 52.883 8.01248L55.8662 9.19656C56.2301 9.34197 56.6362 9.35795 57.0112 9.2413L61.3444 7.9134L63.056 9.5497L61.671 13.7044C61.5508 14.0641 61.5673 14.453 61.7177 14.8022L62.9526 17.6625C63.1039 18.011 63.3791 18.2969 63.7293 18.4695L67.7725 20.4717V22.7871Z" fill="#77150C"/>
<path d="M40.2035 54.3438L35.8587 52.1961L35.3404 51.0008L36.8303 46.5265C37.0203 45.9564 36.862 45.3322 36.4203 44.9093L33.9204 42.5124C33.479 42.0893 32.8282 41.9383 32.2338 42.1209L27.5673 43.5495L26.319 43.0541L24.0791 38.8866C23.7933 38.3547 23.2214 38.0205 22.5975 38.0205H19.0642C18.4407 38.0211 17.8699 38.3553 17.5843 38.8866L15.3427 43.0541L14.0961 43.5495L9.44123 42.1225C8.84646 41.9393 8.1946 42.0903 7.75295 42.514L5.25303 44.9109C4.80638 45.3344 4.64597 45.9626 4.83805 46.5361L6.328 51.0104L5.81135 52.2057L1.46483 54.3438C0.910678 54.6176 0.562148 55.1649 0.561523 55.7627V59.16C0.561523 59.7583 0.910053 60.3066 1.46483 60.5806L5.81135 62.7235L6.328 63.9204L4.83805 68.3947C4.64764 68.9646 4.80513 69.5886 5.24637 70.0118L7.74628 72.4088C8.19002 72.8336 8.845 72.9836 9.44123 72.7971L14.1077 71.3685L15.3544 71.8655L17.5943 76.0314C17.8799 76.5627 18.4507 76.8969 19.0742 76.8975H22.6075C23.2314 76.8975 23.8033 76.5633 24.0891 76.0314L26.329 71.8655L27.5773 71.3685L32.2438 72.7971C32.8382 72.9796 33.489 72.8286 33.9304 72.4056L36.4303 70.0086C36.872 69.5858 37.0303 68.9616 36.8403 68.3915L35.3504 63.9172L35.8687 62.7203L40.2135 60.5726C40.7616 60.2974 41.1058 59.7535 41.1068 59.16V55.7627C41.1062 55.1649 40.7577 54.6176 40.2035 54.3438ZM37.7736 58.1821L33.7871 60.1524C33.4363 60.3243 33.1613 60.6112 33.0121 60.9609L32.0288 63.2364C31.8774 63.5858 31.8603 63.9755 31.9805 64.3358L33.3471 68.4346L32.2805 69.4573L28.0056 68.147C27.63 68.0301 27.2229 68.0465 26.859 68.1933L24.4857 69.1361C24.1209 69.2792 23.8218 69.5428 23.6424 69.8792L21.5875 73.7015H20.0875L18.0326 69.8792C17.8532 69.5428 17.5541 69.2792 17.1893 69.1361L14.8144 68.1933C14.4509 68.0465 14.0444 68.0301 13.6694 68.147L9.39456 69.4573L8.32793 68.4346L9.69455 64.3358C9.81559 63.9751 9.79913 63.585 9.64789 63.2348L8.66292 60.9593C8.51168 60.6108 8.23648 60.3249 7.88628 60.1524L3.89475 58.1821V56.7439L7.87961 54.7736C8.22981 54.601 8.50501 54.3152 8.65625 53.9666L9.64122 51.6895C9.79309 51.3402 9.80955 50.9503 9.68789 50.5901L8.32127 46.4913L9.3879 45.4686L13.6628 46.779C14.0384 46.8954 14.445 46.8796 14.8094 46.7342L17.1843 45.7898C17.5447 45.6432 17.8397 45.3795 18.0176 45.0452L20.0725 41.2244H21.5725L23.6274 45.0452C23.8053 45.3795 24.1003 45.6432 24.4607 45.7898L26.834 46.7342C27.1992 46.8792 27.606 46.895 27.9823 46.779L32.2571 45.4686L33.3238 46.4913L31.9571 50.5901C31.8374 50.9501 31.8544 51.339 32.0055 51.6879L32.9888 53.965C33.1379 54.3148 33.4129 54.6016 33.7638 54.7736L37.7736 56.7375V58.1821Z" fill="#77150C"/>
<path d="M48.7522 10.4434C42.3091 10.4434 37.0859 15.4517 37.0859 21.6299C37.0859 27.808 42.3091 32.8164 48.7522 32.8164C55.1953 32.8164 60.4185 27.808 60.4185 21.6299C60.4101 15.4551 55.1918 10.4513 48.7522 10.4434ZM48.7522 29.6203C44.1501 29.6203 40.4192 26.0428 40.4192 21.6299C40.4192 17.217 44.1501 13.6395 48.7522 13.6395C53.3543 13.6395 57.0852 17.217 57.0852 21.6299C57.0798 26.0406 53.352 29.6151 48.7522 29.6203Z" fill="#77150C"/>
<path d="M47.0852 20.0312H43.752V23.2266H47.0852V20.0312Z" fill="#77150C"/>
<path d="M53.7521 20.0312H50.4189V23.2266H53.7521V20.0312Z" fill="#77150C"/>
<path d="M20.834 49.4707C16.2319 49.4707 12.501 53.0479 12.501 57.4604C12.501 61.873 16.2319 65.4502 20.834 65.4502C25.4362 65.4502 29.1671 61.873 29.1671 57.4604C29.1617 53.0501 25.4339 49.4759 20.834 49.4707ZM20.834 62.2543C18.0727 62.2543 15.8342 60.1081 15.8342 57.4604C15.8342 54.8128 18.0727 52.6666 20.834 52.6666C23.5954 52.6666 25.8339 54.8128 25.8339 57.4604C25.8339 60.1081 23.5954 62.2543 20.834 62.2543Z" fill="#77150C"/>
<path d="M22.5012 55.8623H19.168V59.0576H22.5012V55.8623Z" fill="#77150C"/>
<path d="M77.2174 18.3584L74.9941 20.7394C81.4673 26.2967 85.7848 33.7938 87.2421 42.0068L90.5286 41.4795C88.9466 32.5508 84.254 24.4001 77.2174 18.3584Z" fill="#77150C"/>
<path d="M21.8787 18.1719C16.0293 23.1118 11.744 29.527 9.51074 36.6875L12.704 37.6016C14.7591 31.0139 18.7025 25.1122 24.0853 20.5688L21.8787 18.1719Z" fill="#77150C"/>
<path d="M28.2463 78.7627L26.4014 81.4249C30.7618 84.2115 35.6356 86.1768 40.7625 87.2158L41.4525 84.0886C36.7379 83.1325 32.2562 81.325 28.2463 78.7627Z" fill="#77150C"/>
</svg>
