<svg width="80" height="75" viewBox="0 0 80 75" fill="none" xmlns="http://www.w3.org/2000/svg">
<path d="M21.4003 47.7156C22.1474 47.2887 22.4032 46.3411 21.9722 45.601C21.5407 44.8614 20.5849 44.6075 19.8379 45.0344C19.0908 45.4619 18.8344 46.4095 19.266 47.149C19.6969 47.8891 20.6533 48.1431 21.4003 47.7156Z" fill="#77150C"/>
<path d="M14.9975 58.4L22.8661 71.9035C24.5641 74.8205 28.3837 75.9005 31.4043 74.1705C34.3932 72.4592 35.4204 68.6756 33.6913 65.712L29.0038 57.6671L33.0632 55.3451C33.8103 54.917 34.0666 53.9706 33.6351 53.2305L31.6033 49.7438C31.8456 49.6972 33.4386 49.3876 61.5312 43.9278C65.0041 43.741 67.0847 39.9779 65.3306 36.9696L60.1377 28.0588L63.4562 23.0791C63.7821 22.5893 63.8017 21.9598 63.5056 21.4519L60.3806 16.0894C60.0846 15.5815 59.5225 15.284 58.9335 15.3184L52.9222 15.6758L47.1574 5.78297C46.3225 4.34984 44.8265 3.4821 43.1566 3.46154C43.1364 3.46094 43.1169 3.46094 43.0968 3.46094C41.483 3.46094 40.0182 4.25672 39.1502 5.60217L18.7389 31.3634L5.46932 38.9536C0.250218 41.9378 -1.55764 48.5713 1.46603 53.7559C4.22848 58.4968 10.0524 60.3616 14.9975 58.4ZM30.9856 67.2606C31.8486 68.7397 31.3378 70.6324 29.8406 71.4893C28.3385 72.3497 26.4257 71.8212 25.5724 70.3561L17.7599 56.9481L23.1725 53.8521C32.2142 69.3698 30.8403 67.0121 30.9856 67.2606ZM27.4413 54.9853L25.8788 52.3041L28.5851 50.756L30.1476 53.4373L27.4413 54.9853ZM58.1571 18.4659L60.3166 22.1714L58.3909 25.0607L54.669 18.6733L58.1571 18.4659ZM41.7638 7.29955C42.1831 6.61987 42.8484 6.54973 43.1181 6.55698C43.3849 6.56001 44.0495 6.64224 44.4505 7.33039L62.6243 38.5176C63.2163 39.5329 62.4967 40.8094 61.3096 40.8384C61.0966 40.8433 60.9983 40.8814 60.4527 40.9823L41.2285 7.99314C41.6319 7.47914 41.6838 7.42956 41.7638 7.29955ZM39.149 10.6175L57.2111 41.6124L29.9517 46.9096L21.6631 32.6865L39.149 10.6175ZM4.17233 52.2079C3.48629 51.0318 3.12374 49.6966 3.12374 48.3457C3.12374 45.5847 4.62154 43.0135 7.03181 41.6348L19.2101 34.6687L27.0226 48.0748L14.8443 55.0415C11.1132 57.1749 6.32625 55.9038 4.17233 52.2079Z" fill="#77150C"/>
<path d="M16.5601 48.6961C16.1286 47.9559 15.1728 47.702 14.4257 48.1295L11.7194 49.6775C10.9736 50.1044 10.0159 49.8499 9.58504 49.1109C9.15353 48.3708 8.19772 48.1168 7.45065 48.5443C6.70358 48.9718 6.44723 49.9188 6.87875 50.6589C8.16476 52.8661 11.0334 53.6443 13.2819 52.3587L15.9882 50.8107C16.7353 50.3832 16.9916 49.4369 16.5601 48.6961Z" fill="#77150C"/>
<path d="M77.6782 6.77202L68.9716 11.5721C68.2178 11.9881 67.9462 12.9308 68.3661 13.6776C68.7848 14.4238 69.7357 14.6941 70.4913 14.2775L79.1974 9.47743C79.9518 9.0614 80.2227 8.11867 79.8028 7.37188C79.3835 6.62447 78.432 6.35599 77.6782 6.77202Z" fill="#77150C"/>
<path d="M76.7646 22.8041L70.7276 21.2016C69.8939 20.9803 69.037 21.4701 68.8136 22.2961C68.5902 23.1221 69.0852 23.9705 69.9189 24.1918L75.9565 25.7943C76.7951 26.0174 77.6478 25.5197 77.8699 24.6998C78.0933 23.8738 77.5983 23.0248 76.7646 22.8041Z" fill="#77150C"/>
<path d="M61.5932 1.14767L59.9739 7.12932C59.7505 7.95533 60.2449 8.80372 61.0787 9.02565C61.9118 9.24636 62.7687 8.75777 62.9927 7.93115L64.6114 1.94949C64.8347 1.12348 64.3404 0.274486 63.5066 0.0531674C62.6735 -0.168151 61.8166 0.321652 61.5932 1.14767Z" fill="#77150C"/>
</svg>
