<svg width="80" height="80" viewBox="0 0 80 80" fill="none" xmlns="http://www.w3.org/2000/svg">
<path d="M2.49991 67.5004C2.49767 69.2563 2.95782 70.9818 3.83407 72.5034C4.71033 74.0251 5.9718 75.2892 7.49162 76.1686C9.01144 77.048 10.736 77.5117 12.4919 77.5131C14.2478 77.5145 15.9732 77.0535 17.4944 76.1765C19.0156 75.2996 20.2791 74.0375 21.1578 72.5172C22.0364 70.997 22.4993 69.2722 22.4999 67.5163C22.5005 65.7604 22.0387 64.0353 21.161 62.5145C20.2832 60.9937 19.0206 59.7308 17.4999 58.8528V21.1928C19.0323 20.321 20.3039 19.0554 21.183 17.5271C22.062 15.9988 22.5167 14.2633 22.4999 12.5003C22.5212 10.2994 21.841 8.14885 20.5579 6.36049C19.2748 4.57213 17.4555 3.2389 15.3637 2.5541C15.1768 2.49726 14.9792 2.485 14.7868 2.5183C14.5944 2.55159 14.4124 2.62951 14.2555 2.74582C14.0986 2.86212 13.9712 3.01356 13.8834 3.18801C13.7956 3.36246 13.7499 3.55505 13.7499 3.75035V11.2503H11.2499V3.75035C11.25 3.55505 11.2043 3.36246 11.1164 3.18801C11.0286 3.01356 10.9012 2.86212 10.7443 2.74582C10.5874 2.62951 10.4054 2.55159 10.213 2.5183C10.0206 2.485 9.823 2.49726 9.63616 2.5541C7.54435 3.2389 5.725 4.57213 4.44188 6.36049C3.15877 8.14885 2.47857 10.2994 2.49991 12.5003C2.4831 14.2633 2.93778 15.9988 3.81686 17.5271C4.69594 19.0554 5.9675 20.321 7.49991 21.1928V58.8528C5.98159 59.7295 4.72041 60.9898 3.84284 62.5076C2.96527 64.0253 2.50214 65.7471 2.49991 67.5004ZM4.99991 12.5003C5.00334 11.1402 5.34855 9.80274 6.0038 8.61083C6.65905 7.41892 7.60334 6.4108 8.74991 5.6791V12.5003C8.74991 12.8319 8.8816 13.1498 9.11602 13.3842C9.35044 13.6187 9.66839 13.7503 9.99991 13.7503H14.9999C15.3314 13.7503 15.6494 13.6187 15.8838 13.3842C16.1182 13.1498 16.2499 12.8319 16.2499 12.5003V5.6791C17.3965 6.4108 18.3408 7.41892 18.996 8.61083C19.6513 9.80274 19.9965 11.1402 19.9999 12.5003C20.0104 13.4882 19.8236 14.4682 19.4505 15.3829C19.0773 16.2976 18.5252 17.1286 17.8267 17.8271C17.1281 18.5257 16.2972 19.0777 15.3825 19.4509C14.4678 19.8241 13.4877 20.0109 12.4999 20.0003C11.5121 20.0109 10.5321 19.8241 9.61736 19.4509C8.70266 19.0777 7.87167 18.5257 7.17312 17.8271C6.47457 17.1286 5.92252 16.2976 5.54934 15.3829C5.17616 14.4682 4.98937 13.4882 4.99991 12.5003ZM14.9999 22.1853V57.8291C13.3621 57.3908 11.6378 57.3908 9.99991 57.8291V22.1853C11.6401 22.6053 13.3597 22.6053 14.9999 22.1853ZM12.4999 60.0003C13.9833 60.0003 15.4333 60.4402 16.6667 61.2643C17.9001 62.0884 18.8613 63.2598 19.429 64.6302C19.9967 66.0007 20.1452 67.5087 19.8558 68.9635C19.5664 70.4184 18.8521 71.7548 17.8032 72.8036C16.7543 73.8525 15.4179 74.5668 13.9631 74.8562C12.5082 75.1456 11.0002 74.9971 9.62978 74.4294C8.25934 73.8618 7.088 72.9005 6.26388 71.6671C5.43977 70.4338 4.99991 68.9837 4.99991 67.5004C5.00189 65.5118 5.79271 63.6053 7.1988 62.1992C8.60489 60.7931 10.5114 60.0023 12.4999 60.0003Z" fill="#77150C"/>
<path d="M12.5 72.5C13.4889 72.5 14.4556 72.2068 15.2778 71.6574C16.1001 71.108 16.7409 70.3271 17.1194 69.4134C17.4978 68.4998 17.5968 67.4945 17.4039 66.5246C17.211 65.5547 16.7348 64.6637 16.0355 63.9645C15.3362 63.2652 14.4453 62.789 13.4754 62.5961C12.5055 62.4031 11.5002 62.5022 10.5866 62.8806C9.67292 63.259 8.89203 63.8999 8.34262 64.7222C7.79321 65.5444 7.49997 66.5111 7.49997 67.5C7.49997 68.8261 8.02675 70.0979 8.96444 71.0355C9.90212 71.9732 11.1739 72.5 12.5 72.5ZM12.5 65C12.9944 65 13.4778 65.1466 13.8889 65.4213C14.3 65.696 14.6205 66.0865 14.8097 66.5433C14.9989 67.0001 15.0484 67.5028 14.9519 67.9877C14.8555 68.4727 14.6174 68.9181 14.2677 69.2678C13.9181 69.6174 13.4726 69.8555 12.9877 69.952C12.5027 70.0484 12.0001 69.9989 11.5433 69.8097C11.0864 69.6205 10.696 69.3001 10.4213 68.8889C10.1466 68.4778 9.99997 67.9945 9.99997 67.5C9.99997 66.837 10.2634 66.2011 10.7322 65.7322C11.201 65.2634 11.8369 65 12.5 65Z" fill="#77150C"/>
<path d="M73.7501 42.5V19.125L76.0401 15.69C76.1336 15.5496 76.1978 15.3918 76.2287 15.2259C76.2597 15.0601 76.2567 14.8897 76.2201 14.725L73.7201 3.475C73.6576 3.19811 73.5028 2.95073 73.2811 2.77352C73.0593 2.59632 72.7839 2.49986 72.5001 2.5H67.5001C67.2157 2.50005 66.9399 2.59705 66.7181 2.77499C66.4963 2.95293 66.3418 3.20117 66.2801 3.47875L63.7801 14.7288C63.7434 14.8934 63.7404 15.0638 63.7714 15.2297C63.8023 15.3955 63.8665 15.5534 63.9601 15.6938L66.2501 19.125V42.5C65.5248 42.4968 64.8143 42.7049 64.2053 43.0989C63.5964 43.4929 63.1154 44.0557 62.821 44.7186C62.5267 45.3814 62.4318 46.1157 62.548 46.8316C62.6641 47.5476 62.9863 48.2142 63.4751 48.75C62.8509 49.4333 62.5033 50.3245 62.5001 51.25V73.75C62.5001 74.7446 62.8952 75.6984 63.5984 76.4016C64.3017 77.1049 65.2555 77.5 66.2501 77.5H73.7501C74.7446 77.5 75.6984 77.1049 76.4017 76.4016C77.105 75.6984 77.5001 74.7446 77.5001 73.75V51.25C77.4968 50.3245 77.1492 49.4333 76.5251 48.75C77.0139 48.2142 77.336 47.5476 77.4521 46.8316C77.5683 46.1157 77.4734 45.3814 77.1791 44.7186C76.8848 44.0557 76.4037 43.4929 75.7948 43.0989C75.1859 42.7049 74.4753 42.4968 73.7501 42.5ZM68.5001 5H71.5001L73.6663 14.75L71.8313 17.5H68.1688L66.3363 14.75L68.5001 5ZM71.2501 20V42.5H68.7501V20H71.2501ZM75.0001 73.75C75.0001 74.0815 74.8684 74.3995 74.6339 74.6339C74.3995 74.8683 74.0816 75 73.7501 75H70.0001V67.5H67.5001V75H66.2501C65.9185 75 65.6006 74.8683 65.3662 74.6339C65.1318 74.3995 65.0001 74.0815 65.0001 73.75V51.25C65.0001 50.9185 65.1318 50.6005 65.3662 50.3661C65.6006 50.1317 65.9185 50 66.2501 50H73.7501C74.0816 50 74.3995 50.1317 74.6339 50.3661C74.8684 50.6005 75.0001 50.9185 75.0001 51.25V73.75ZM73.7501 47.5H66.2501C65.9185 47.5 65.6006 47.3683 65.3662 47.1339C65.1318 46.8995 65.0001 46.5815 65.0001 46.25C65.0001 45.9185 65.1318 45.6005 65.3662 45.3661C65.6006 45.1317 65.9185 45 66.2501 45H73.7501C74.0816 45 74.3995 45.1317 74.6339 45.3661C74.8684 45.6005 75.0001 45.9185 75.0001 46.25C75.0001 46.5815 74.8684 46.8995 74.6339 47.1339C74.3995 47.3683 74.0816 47.5 73.7501 47.5Z" fill="#77150C"/>
<path d="M46.6165 24.1159L36.6163 34.1162L38.384 35.884L48.3843 25.8837L46.6165 24.1159Z" fill="#77150C"/>
<path d="M46.6161 30.3669L36.6159 40.3672L38.3836 42.135L48.3839 32.1347L46.6161 30.3669Z" fill="#77150C"/>
<path d="M60 70V10C60 8.67392 59.4732 7.40215 58.5355 6.46447C57.5978 5.52678 56.3261 5 55 5H30C28.6739 5 27.4021 5.52678 26.4644 6.46447C25.5268 7.40215 25 8.67392 25 10V70C25 71.3261 25.5268 72.5979 26.4644 73.5355C27.4021 74.4732 28.6739 75 30 75H55C56.3261 75 57.5978 74.4732 58.5355 73.5355C59.4732 72.5979 60 71.3261 60 70ZM36.25 7.5H48.75V10H36.25V7.5ZM27.5 10C27.5 9.33696 27.7634 8.70107 28.2322 8.23223C28.701 7.76339 29.3369 7.5 30 7.5H33.75V11.25C33.75 11.5815 33.8817 11.8995 34.1161 12.1339C34.3505 12.3683 34.6684 12.5 35 12.5H50C50.3315 12.5 50.6494 12.3683 50.8839 12.1339C51.1183 11.8995 51.25 11.5815 51.25 11.25V7.5H55C55.663 7.5 56.2989 7.76339 56.7677 8.23223C57.2366 8.70107 57.5 9.33696 57.5 10V57.5H27.5V10ZM27.5 70V60H57.5V70C57.5 70.663 57.2366 71.2989 56.7677 71.7678C56.2989 72.2366 55.663 72.5 55 72.5H30C29.3369 72.5 28.701 72.2366 28.2322 71.7678C27.7634 71.2989 27.5 70.663 27.5 70Z" fill="#77150C"/>
<path d="M50 15H47.5V17.5H50V15Z" fill="#77150C"/>
<path d="M55 15H52.5V17.5H55V15Z" fill="#77150C"/>
<path d="M42.5 62.5C41.7583 62.5 41.0333 62.7199 40.4166 63.132C39.7999 63.544 39.3193 64.1297 39.0354 64.8149C38.7516 65.5002 38.6773 66.2542 38.822 66.9816C38.9667 67.709 39.3239 68.3772 39.8483 68.9017C40.3728 69.4261 41.041 69.7833 41.7684 69.928C42.4958 70.0726 43.2498 69.9984 43.935 69.7146C44.6203 69.4307 45.2059 68.9501 45.618 68.3334C46.03 67.7167 46.25 66.9917 46.25 66.25C46.25 65.2554 45.8549 64.3016 45.1516 63.5984C44.4484 62.8951 43.4945 62.5 42.5 62.5ZM42.5 67.5C42.2527 67.5 42.0111 67.4267 41.8055 67.2893C41.6 67.152 41.4397 66.9568 41.3451 66.7284C41.2505 66.4999 41.2258 66.2486 41.274 66.0061C41.3222 65.7637 41.4413 65.5409 41.6161 65.3661C41.7909 65.1913 42.0136 65.0723 42.2561 65.024C42.4986 64.9758 42.7499 65.0005 42.9783 65.0952C43.2067 65.1898 43.402 65.35 43.5393 65.5555C43.6767 65.7611 43.75 66.0028 43.75 66.25C43.75 66.5815 43.6183 66.8995 43.3839 67.1339C43.1494 67.3683 42.8315 67.5 42.5 67.5Z" fill="#77150C"/>
</svg>
