<svg width="75" height="75" viewBox="0 0 75 75" fill="none" xmlns="http://www.w3.org/2000/svg">
<path d="M75 39.6283C75 35.2819 72.7213 31.2696 69.0822 29.0168C69.8858 27.3422 70.3055 25.5063 70.3055 23.6291C70.3055 18.2282 63.6366 13.8517 59.2699 11.5657C58.8037 5.10982 53.4045 0 46.8349 0C43.1191 0 39.7201 1.50073 37.3963 4.09277C35.052 1.50103 31.7253 0 28.1651 0C23.8431 0 19.7536 2.31841 17.5096 6.0085C16.4736 7.71211 15.8553 9.65977 15.7251 11.6495C15.7244 11.661 15.7228 11.6725 15.722 11.684C15.4588 11.8181 15.1396 11.9859 14.7498 12.1964C13.7697 12.7255 12.2893 13.5822 10.8032 14.6583C6.74985 17.5931 4.69453 20.6112 4.69453 23.6291C4.69453 25.5063 5.11406 27.3422 5.91768 29.0168C2.27871 31.2696 0 35.2819 0 39.6283C0 43.8286 2.08491 47.6837 5.52231 49.9865C4.97842 51.4074 4.69453 52.9286 4.69453 54.4534C4.69453 58.9598 7.0749 63.0432 10.9516 65.2685C12.581 70.9472 19.0666 75 26.6981 75C30.6466 75 34.5119 73.8412 37.4918 71.7977C40.4533 73.8677 44.2437 75 48.3019 75C55.9334 75 62.4192 70.9472 64.0484 65.2685C67.9252 63.0434 70.3055 58.9598 70.3055 54.4534C70.3055 52.9288 70.0216 51.4075 69.4777 49.9865C72.9151 47.6837 75 43.8287 75 39.6283ZM26.6981 72.0703C20.2453 72.0703 14.6347 68.5919 13.6474 63.9791C13.5546 63.5458 13.2706 63.1777 12.8751 62.978C10.5081 61.7833 8.79756 59.7164 8.04756 57.2763C9.27188 57.8864 10.5908 58.1968 11.9665 58.1968H11.9708C13.9639 58.1968 16.0096 57.4664 17.5471 56.202C18.1523 55.7042 18.2421 54.7393 17.75 54.1395C17.2554 53.5368 16.2886 53.4448 15.6885 53.9369C14.6265 54.807 13.3403 55.2669 11.9678 55.2669C10.3252 55.2669 8.79141 54.5927 7.68179 53.4035C7.8082 52.2397 8.1457 51.1216 8.69165 50.0682C9.06328 49.3512 8.78438 48.4688 8.06836 48.0954C4.89858 46.4427 2.92969 43.1982 2.92969 39.6283C2.92969 35.8947 5.12754 32.4831 8.52891 30.9369C8.9168 30.7605 9.20889 30.4241 9.32856 30.0151C9.44824 29.6061 9.38393 29.1652 9.15249 28.8075C8.15273 27.2629 7.62422 25.4722 7.62422 23.6291C7.62422 20.1562 12.6075 16.6898 15.9341 14.8745C16.5362 17.9205 18.2646 20.683 20.8097 22.5461C21.4285 22.9991 22.3935 22.8625 22.8571 22.2294C23.335 21.5766 23.1932 20.66 22.5403 20.1822C18.8455 17.4775 17.5833 12.2963 19.6362 8.20518C21.2398 5.00903 24.5871 2.92969 28.1651 2.92969C31.274 2.92969 34.1512 4.42661 35.9435 6.95464L35.9436 7.10244C35.9377 8.06821 35.9351 10.2111 35.9383 15.0542H27.7894C27.197 15.0542 26.6629 15.411 26.4362 15.9583C26.2094 16.5056 26.3347 17.1356 26.7533 17.5545C29.0427 19.8451 29.0427 23.572 26.7535 25.8625C24.5326 28.0847 20.6662 28.078 18.4519 25.8625C17.88 25.2904 16.9526 25.2901 16.3803 25.8621C15.8082 26.434 15.8079 27.3615 16.3799 27.9337C16.6061 28.16 16.8434 28.3712 17.0887 28.5694L13.3799 32.3783C11.3862 34.3806 11.3886 37.6323 13.3869 39.6316C15.3463 41.5922 18.6955 41.5834 20.6461 39.6318C21.218 39.0595 21.2177 38.1321 20.6455 37.5602C20.073 36.9883 19.1459 36.9885 18.5741 37.5605C17.7674 38.3675 16.2929 38.3949 15.4592 37.5608C14.6 36.7011 14.6 35.3022 15.4592 34.4423C15.4636 34.4377 15.4682 34.4332 15.4726 34.4287C15.4726 34.4287 19.7467 30.0393 19.7471 30.0387C19.7969 29.9875 21.2795 30.4154 21.4658 30.4396C24.1604 30.7882 26.9065 29.8537 28.8255 27.9337C31.5101 25.2476 32.0938 21.2433 30.5769 17.9839H35.9408C35.9442 21.7304 35.9502 26.6867 35.9594 33.2465H32.373V32.8764C32.373 32.0673 31.7172 31.4115 30.9082 31.4115C30.0992 31.4115 29.4434 32.0673 29.4434 32.8764V36.5459C29.4434 37.355 30.0992 38.0108 30.9082 38.0108C31.7172 38.0108 32.373 37.355 32.373 36.5459V36.1764H35.9635C35.9646 36.8691 35.9742 43.3916 35.9782 45.87H31.8781C31.6302 45.1865 31.234 44.5453 30.687 43.998C29.7176 43.028 28.4287 42.4939 27.0576 42.4939C25.6865 42.4939 24.3974 43.028 23.428 43.998C22.8561 44.5704 22.8564 45.4978 23.4286 46.0698C24.0009 46.6415 24.9281 46.6414 25.5001 46.0693C27.4453 44.124 30.6335 47.1681 28.6148 49.1877C28.043 49.7599 28.0431 50.6874 28.6153 51.2593C29.1671 51.8108 30.1207 51.8253 30.6869 51.2588C31.3879 50.5573 31.8425 49.7016 32.0521 48.7998H35.9829C35.9886 52.1738 35.9943 55.3677 36 58.2038H24.5074C24.1188 58.2038 23.7461 58.3582 23.4713 58.6332C21.4707 60.6349 21.4707 63.8918 23.4712 65.8937C25.4153 67.8391 28.7969 67.8283 30.7302 65.8938C31.3021 65.3215 31.302 64.3941 30.7298 63.8222C30.1575 63.2503 29.2304 63.2505 28.6585 63.8224C27.8348 64.6462 26.3621 64.6417 25.5435 63.8227C24.8159 63.0946 24.7043 61.98 25.2091 61.1335H36.0062C36.0116 63.6352 36.0265 68.7872 36.0289 69.2518C33.5105 71.0495 30.1526 72.0703 26.6981 72.0703ZM66.9318 48.0955C66.2158 48.4689 65.9369 49.3513 66.3085 50.0684C67.0166 51.4349 67.3758 52.9103 67.3758 54.4535C67.3758 58.077 65.3638 61.3434 62.125 62.9782C61.7294 63.1778 61.4455 63.5459 61.3528 63.9793C60.3653 68.5919 54.7547 72.0703 48.3019 72.0703C44.8014 72.0703 41.4406 71.0499 38.9638 69.2534L38.952 61.1334H44.2466C44.7795 63.3996 46.8161 65.0922 49.2417 65.0922C52.0718 65.0922 54.3743 62.7889 54.3743 59.9578C54.3743 57.1267 52.0718 54.8234 49.2417 54.8234C47.0273 54.8234 45.1361 56.2337 44.418 58.2037H38.9477L38.9341 48.7997H52.5388C53.1708 50.9191 55.136 52.4692 57.4573 52.4692C60.2874 52.4692 62.5898 50.1659 62.5898 47.3348C62.5898 44.5037 60.2874 42.2004 57.4573 42.2004C55.136 42.2004 53.1708 43.7505 52.5388 45.87H38.9297L38.9156 36.1764H42.1226C42.7545 38.2958 44.7198 39.846 47.0411 39.846C49.8712 39.846 52.1736 37.5426 52.1736 34.7115C52.1736 31.8804 49.8712 29.5771 47.0411 29.5771C44.7198 29.5771 42.7545 31.1272 42.1226 33.2467H38.9114L38.8891 17.984H43.1678C43.8195 20.0711 45.7698 21.5903 48.0681 21.5903C50.8982 21.5903 53.2006 19.287 53.2006 16.4559C53.2006 13.6248 50.8982 11.3215 48.0681 11.3215C45.7238 11.3215 43.743 12.9025 43.1316 15.0543H38.8849L38.873 6.94175C40.6116 4.42163 43.5565 2.92969 46.8349 2.92969C52.0941 2.92969 56.3729 7.21113 56.3729 12.4736C56.3729 13.3777 57.0845 13.7382 57.3883 13.8921C63.642 17.0599 67.3756 20.6999 67.3758 23.6291C67.3759 27.2769 64.9862 31.5703 60.9873 31.6994C60.5962 31.7111 60.2329 31.8751 59.9648 32.1608C59.6968 32.445 59.5562 32.8185 59.5693 33.2096C59.5811 33.5919 59.7393 33.9494 60.0146 34.216C60.2886 34.4826 60.6504 34.6291 61.0327 34.6291H61.0371C61.0503 34.6291 61.0648 34.6291 61.078 34.6276C63.5268 34.3516 65.9062 33.4273 67.5287 31.5026C70.3206 33.225 72.0703 36.2979 72.0703 39.6283C72.0703 43.1982 70.1014 46.4427 66.9318 48.0955ZM47.0389 59.9578C47.0389 58.7421 48.0271 57.7531 49.2417 57.7531C50.4564 57.7531 51.4446 58.7421 51.4446 59.9578C51.4446 61.1735 50.4564 62.1625 49.2417 62.1625C48.0271 62.1625 47.0389 61.1735 47.0389 59.9578ZM55.2545 47.3347C55.2545 46.119 56.2427 45.1299 57.4573 45.1299C58.672 45.1299 59.6602 46.119 59.6602 47.3347C59.6602 48.5503 58.672 49.5394 57.4573 49.5394C56.2427 49.5394 55.2545 48.5505 55.2545 47.3347ZM44.8384 34.7114C44.8384 33.4957 45.8266 32.5066 47.0413 32.5066C48.2559 32.5066 49.2441 33.4957 49.2441 34.7114C49.2441 35.9271 48.2559 36.9161 47.0413 36.9161C45.8266 36.9161 44.8384 35.9271 44.8384 34.7114ZM45.8653 16.4558C45.8653 15.2401 46.8535 14.251 48.0681 14.251C49.2828 14.251 50.271 15.2401 50.271 16.4558C50.271 17.6714 49.2828 18.6605 48.0681 18.6605C46.8535 18.6605 45.8653 17.6714 45.8653 16.4558Z" fill="#77150C"/>
<path d="M19.4006 48.564C18.9934 48.5288 18.5891 48.6665 18.2873 48.9419C18.0148 49.1909 17.8478 49.5308 17.8171 49.8985C17.7834 50.2896 17.9035 50.669 18.1569 50.9678C18.4089 51.2666 18.7619 51.4497 19.1516 51.4834C19.194 51.4864 19.2351 51.4878 19.2775 51.4878C19.6438 51.4878 19.9938 51.3516 20.2648 51.104C20.5373 50.855 20.7043 50.5152 20.7365 50.1475C20.7365 50.146 20.7365 50.146 20.7351 50.146C20.8024 49.3418 20.2048 48.6314 19.4006 48.564Z" fill="#77150C"/>
<path d="M56.73 30.0571C56.73 30.0571 56.73 30.0571 56.7285 30.0557C56.4546 29.7905 56.0928 29.6455 55.7119 29.6455C55.3106 29.6455 54.9356 29.8037 54.6572 30.0923C54.3863 30.3735 54.2398 30.7441 54.2471 31.1353C54.2529 31.5264 54.4112 31.8911 54.6924 32.1621C54.6924 32.1621 54.6924 32.1636 54.6939 32.1636C54.9678 32.4287 55.3296 32.5752 55.7105 32.5752C56.1118 32.5752 56.4868 32.4155 56.7652 32.127C57.3247 31.5469 57.3101 30.6196 56.73 30.0571Z" fill="#77150C"/>
</svg>
