<svg width="80" height="80" viewBox="0 0 80 80" fill="none" xmlns="http://www.w3.org/2000/svg">
<path d="M21.333 30.9277H18.6663V33.5803H21.333V30.9277Z" fill="#77150C"/>
<path d="M34.6664 30.9277H31.9997V33.5803H34.6664V30.9277Z" fill="#77150C"/>
<path d="M78.856 45.5304L73.6467 44.7903C73.3989 44.0657 73.1064 43.357 72.7707 42.6683L75.9227 38.4879C76.1152 38.2325 76.2086 37.9166 76.1859 37.5982C76.1631 37.2797 76.0256 36.9802 75.7987 36.7545L70.1413 31.1271C69.924 30.9125 69.6383 30.7798 69.3333 30.7518V17.9852C70.5808 16.9916 71.588 15.732 72.2803 14.2993C72.9727 12.8667 73.3325 11.2975 73.3333 9.70793C73.3455 7.69794 72.7775 5.7267 71.6967 4.02836C70.6158 2.33002 69.0677 0.97595 67.236 0.126988C67.0328 0.0315457 66.8087 -0.0112664 66.5844 0.00252859C66.3601 0.0163236 66.143 0.0862782 65.9531 0.205894C65.7633 0.32551 65.607 0.490907 65.4986 0.686721C65.3903 0.882535 65.3334 1.10241 65.3333 1.32593V8.75302L62.6667 9.63764L60 8.75302V1.32593C59.9991 1.10286 59.9416 0.883637 59.8328 0.688539C59.7241 0.49344 59.5677 0.328773 59.378 0.209774C59.1883 0.0907755 58.9715 0.0212896 58.7477 0.00774631C58.5238 -0.00579699 58.3001 0.0370398 58.0974 0.132293C56.2665 0.980878 54.7189 2.33413 53.6381 4.03143C52.5574 5.72874 51.9888 7.69884 52 9.70793C52.0008 11.2975 52.3607 12.8667 53.053 14.2993C53.7454 15.732 54.7525 16.9916 56 17.9852V26.9494H52C51.6792 26.9493 51.3691 27.0644 51.1266 27.2734C50.8841 27.4824 50.7256 27.7714 50.68 28.0873L49.8174 34.094L52.4574 34.4693L53.156 29.6019H58.844L59.5427 34.4693C59.5791 34.7215 59.6877 34.9579 59.8556 35.1503C60.0234 35.3427 60.2435 35.4829 60.4894 35.5542C61.6007 35.8736 62.6737 36.3125 63.6893 36.8632C63.9141 36.9858 64.1695 37.0413 64.4251 37.0232C64.6807 37.0051 64.9257 36.9141 65.1307 36.7611L69.0787 33.8168L73.1 37.8168L70.1333 41.7439C69.9795 41.9478 69.888 42.1914 69.8698 42.4457C69.8516 42.7 69.9075 42.954 70.0307 43.1776C70.5843 44.1879 71.0256 45.2552 71.3467 46.3606C71.4184 46.6052 71.5593 46.824 71.7527 46.991C71.9462 47.158 72.1838 47.2661 72.4373 47.3022L77.3307 47.9972V53.6551L72.4373 54.35C72.1838 54.3862 71.9462 54.4943 71.7527 54.6612C71.5593 54.8282 71.4184 55.0471 71.3467 55.2917C71.0256 56.3971 70.5843 57.4644 70.0307 58.4747C69.9075 58.6982 69.8516 58.9523 69.8698 59.2066C69.888 59.4609 69.9795 59.7045 70.1333 59.9084L73.0933 63.8355L69.072 67.8355L65.1267 64.8806C64.9217 64.7276 64.6768 64.6366 64.4211 64.6185C64.1655 64.6003 63.9101 64.6559 63.6853 64.7785C62.6697 65.3291 61.5967 65.7681 60.4854 66.0875C60.2395 66.1588 60.0194 66.299 59.8516 66.4914C59.6837 66.6838 59.5751 66.9202 59.5387 67.1724L58.844 72.0424H53.3334V66.4336C53.3324 65.0325 53.1304 63.6387 52.7334 62.2944C55.273 63.0339 57.986 62.9283 60.4597 61.9935C62.9335 61.0587 65.0327 59.346 66.4381 57.1157C67.8435 54.8854 68.4782 52.2595 68.2458 49.6375C68.0134 47.0155 66.9265 44.5407 65.1504 42.5894C63.3743 40.6382 61.0062 39.3172 58.4061 38.8275C55.8061 38.3377 53.1164 38.7059 50.7461 39.8761C48.3757 41.0463 46.4544 42.9545 45.2743 45.3104C44.0941 47.6664 43.7197 50.3413 44.208 52.9283C44.176 52.915 44.1454 52.8991 44.1134 52.8872L33.3334 48.598V46.5595C35.1151 45.6529 36.6932 44.3958 37.972 42.8646H41.3334C42.3942 42.8646 43.4116 42.4454 44.1618 41.6992C44.9119 40.953 45.3334 39.941 45.3334 38.8858V35.9892C46.1106 35.7159 46.7839 35.2104 47.2612 34.5419C47.7386 33.8733 47.9966 33.0744 48 32.2544V28.2756C47.9966 27.4557 47.7386 26.6568 47.2612 25.9882C46.7839 25.3197 46.1106 24.8142 45.3334 24.5409V22.9706C45.3334 18.0461 43.3667 13.3233 39.866 9.84123C36.3654 6.3591 31.6174 4.40287 26.6667 4.40287C21.716 4.40287 16.9681 6.3591 13.4674 9.84123C9.96673 13.3233 8.00007 18.0461 8.00007 22.9706V24.5409C7.22286 24.8142 6.54952 25.3197 6.07219 25.9882C5.59485 26.6568 5.33682 27.4557 5.3334 28.2756V32.2544C5.3334 33.3097 5.75483 34.3217 6.50498 35.0679C7.25512 35.814 8.27254 36.2332 9.3334 36.2332H12.0001C12.0854 36.2332 12.1681 36.22 12.2521 36.2147C12.662 38.4136 13.5737 40.4897 14.9169 42.2831C16.2602 44.0766 17.9991 45.5396 20.0001 46.5595V48.598L9.22007 52.8872C6.49284 53.9622 4.15449 55.8297 2.50987 58.2461C0.865246 60.6624 -0.00935663 63.5156 7.54936e-05 66.4336V78.6737C7.54936e-05 79.0255 0.140551 79.3628 0.390599 79.6115C0.640648 79.8603 0.979786 80 1.33341 80H52C52.3536 80 52.6928 79.8603 52.9428 79.6115C53.1929 79.3628 53.3334 79.0255 53.3334 78.6737V74.6949H60C60.3209 74.695 60.631 74.5799 60.8734 74.3709C61.1159 74.1619 61.2745 73.8729 61.32 73.557L62.064 68.3753C62.7925 68.1288 63.505 67.8378 64.1973 67.5039L68.4 70.6392C68.6568 70.8307 68.9744 70.9237 69.2945 70.901C69.6146 70.8783 69.9157 70.7416 70.1427 70.5159L75.8 64.8885C76.0269 64.6628 76.1644 64.3632 76.1872 64.0448C76.21 63.7264 76.1165 63.4105 75.924 63.1551L72.772 58.9747C73.1077 58.286 73.4003 57.5773 73.648 56.8527L78.8573 56.1126C79.1745 56.0671 79.4645 55.9094 79.6743 55.6685C79.8842 55.4277 79.9998 55.1197 80 54.801V46.8434C80 46.5242 79.8844 46.2158 79.6742 45.9746C79.4641 45.7334 79.1736 45.5757 78.856 45.5304ZM64.1893 34.1404C64.1267 34.1099 64.056 34.09 63.9933 34.0608V17.6655H61.3334V28.1828L61.32 28.0873C61.2745 27.7714 61.1159 27.4824 60.8734 27.2734C60.631 27.0644 60.3209 26.9493 60 26.9494H58.6667V17.3207C58.6667 17.1068 58.6147 16.896 58.5151 16.7064C58.4155 16.5168 58.2712 16.354 58.0947 16.2318C57.1035 15.5454 56.2815 14.6448 55.6902 13.5973C55.0988 12.5498 54.7536 11.3828 54.6804 10.1837C54.6071 8.98464 54.8078 7.78462 55.2672 6.67366C55.7267 5.56269 56.433 4.56962 57.3334 3.76891V9.70793C57.3333 9.9864 57.4213 10.2578 57.585 10.4837C57.7487 10.7096 57.9797 10.8786 58.2453 10.9666L62.2453 12.2928C62.5189 12.3834 62.8145 12.3834 63.088 12.2928L67.088 10.9666C67.3536 10.8786 67.5846 10.7096 67.7483 10.4837C67.912 10.2578 68.0001 9.9864 68 9.70793V3.76891C68.9011 4.5696 69.6081 5.56291 70.068 6.67427C70.5279 7.78564 70.7288 8.98619 70.6555 10.1858C70.5823 11.3854 70.2368 12.553 69.645 13.6008C69.0532 14.6486 68.2305 15.5495 67.2387 16.2358C67.0627 16.3576 66.9188 16.5198 66.8192 16.7086C66.7196 16.8975 66.6673 17.1074 66.6667 17.3207V32.2982L64.1893 34.1404ZM46.6667 50.8222C46.652 48.7484 47.3308 46.7286 48.5964 45.0806C49.8619 43.4326 51.6424 42.2498 53.6576 41.7184C55.6729 41.1869 57.8085 41.337 59.7286 42.145C61.6488 42.9529 63.2444 44.3729 64.2645 46.1815C65.2845 47.9901 65.6712 50.0847 65.3636 52.1359C65.056 54.187 64.0716 56.0782 62.5653 57.5119C61.0589 58.9457 59.1162 59.8406 57.0426 60.056C54.969 60.2713 52.8823 59.7948 51.1107 58.7015C50.189 57.2328 49.0098 55.9404 47.6294 54.8858C46.995 53.6242 46.6654 52.2328 46.6667 50.8222ZM41.3334 40.212H39.7147C40.3645 38.9533 40.8249 37.6065 41.0814 36.2147C41.1654 36.2147 41.248 36.2332 41.3334 36.2332H42.6667V38.8858C42.6667 39.2375 42.5262 39.5749 42.2762 39.8236C42.0261 40.0723 41.687 40.212 41.3334 40.212ZM38.6667 25.6231C38.046 25.6216 37.4341 25.4771 36.8789 25.201C36.3237 24.9249 35.8404 24.5246 35.4667 24.0316L33.0667 20.8486C32.9596 20.7065 32.8248 20.5872 32.6704 20.4979C32.516 20.4086 32.3452 20.351 32.168 20.3287C31.9908 20.307 31.811 20.3206 31.6392 20.3687C31.4673 20.4167 31.3067 20.4982 31.1667 20.6085L26.692 24.1642C25.5114 25.104 24.0455 25.6182 22.5334 25.6231H14.6667V24.2968C14.6667 21.1311 15.931 18.0951 18.1814 15.8565C20.4319 13.618 23.4841 12.3605 26.6667 12.3605C29.8493 12.3605 32.9016 13.618 35.152 15.8565C37.4024 18.0951 38.6667 21.1311 38.6667 24.2968V25.6231ZM45.3334 32.2544C45.3334 32.6062 45.1929 32.9435 44.9428 33.1923C44.6928 33.441 44.3537 33.5807 44 33.5807H41.3334V26.9494H44C44.3537 26.9494 44.6928 27.0891 44.9428 27.3378C45.1929 27.5866 45.3334 27.9239 45.3334 28.2756V32.2544ZM26.6667 7.0554C30.9088 7.05996 34.9758 8.7382 37.9753 11.7219C40.9749 14.7056 42.6621 18.751 42.6667 22.9706V24.2968H41.3334C41.3334 20.4276 39.7881 16.7169 37.0376 13.9809C34.2871 11.245 30.5566 9.70793 26.6667 9.70793C22.7769 9.70793 19.0464 11.245 16.2958 13.9809C13.5453 16.7169 12.0001 20.4276 12.0001 24.2968H10.6667V22.9706C10.6713 18.751 12.3585 14.7056 15.3581 11.7219C18.3577 8.7382 22.4247 7.05996 26.6667 7.0554ZM9.3334 33.5807C8.97978 33.5807 8.64064 33.441 8.39059 33.1923C8.14054 32.9435 8.00007 32.6062 8.00007 32.2544V28.2756C8.00007 27.9239 8.14054 27.5866 8.39059 27.3378C8.64064 27.0891 8.97978 26.9494 9.3334 26.9494H12.0001V33.5807H9.3334ZM14.6667 33.5807V28.2756H22.5334C24.6519 28.2728 26.7069 27.5556 28.3627 26.2412L31.764 23.5342L33.3334 25.6231C33.9561 26.4448 34.7617 27.1119 35.687 27.5721C36.6123 28.0323 37.6322 28.2731 38.6667 28.2756V33.5807C38.6689 35.9428 37.9623 38.2518 36.6374 40.212H26.6667V42.8646H34.192C32.4312 44.2807 30.3032 45.1719 28.0543 45.4348C25.8054 45.6978 23.5276 45.3218 21.4846 44.3504C19.4416 43.379 17.717 41.852 16.5104 39.946C15.3038 38.04 14.6646 35.8331 14.6667 33.5807ZM26.6667 48.1696C28.0199 48.1663 29.3661 47.9762 30.6667 47.6046V49.4959C30.6667 50.5511 30.2453 51.5632 29.4951 52.3093C28.745 53.0555 27.7276 53.4747 26.6667 53.4747C25.6059 53.4747 24.5884 53.0555 23.8383 52.3093C23.0881 51.5632 22.6667 50.5511 22.6667 49.4959V47.6046C23.9673 47.9762 25.3135 48.1663 26.6667 48.1696ZM50.6667 77.3475H42.6667V62.7585H40V77.3475H13.3334V62.7585H10.6667V77.3475H2.66674V66.4336C2.65898 64.0461 3.37458 61.7116 4.72026 59.7345C6.06594 57.7575 7.97924 56.2296 10.2107 55.35L20.2947 51.3381C20.6885 52.7171 21.5237 53.9309 22.6736 54.7951C23.8235 55.6593 25.2255 56.1269 26.6667 56.1269C28.108 56.1269 29.5099 55.6593 30.6598 54.7951C31.8098 53.9309 32.645 52.7171 33.0387 51.3381L43.1227 55.35C45.3542 56.2296 47.2675 57.7575 48.6132 59.7345C49.9589 61.7116 50.6745 64.0461 50.6667 66.4336V77.3475Z" fill="#77150C"/>
<path d="M57.3334 32.2549H54.6667V34.9074H57.3334V32.2549Z" fill="#77150C"/>
<path d="M57.3334 66.7373H54.6667V69.3898H57.3334V66.7373Z" fill="#77150C"/>
<path d="M68.255 61.1382L66.3693 63.0137L68.255 64.8892L70.1408 63.0137L68.255 61.1382Z" fill="#77150C"/>
<path d="M74.6664 49.4951H71.9998V52.1476H74.6664V49.4951Z" fill="#77150C"/>
<path d="M68.256 36.7554L66.3703 38.6309L68.256 40.5063L70.1418 38.6309L68.256 36.7554Z" fill="#77150C"/>
</svg>
