<svg width="979" height="206" viewBox="0 0 979 206" fill="none" xmlns="http://www.w3.org/2000/svg">
<path d="M916.121 91.7308C916.121 86.8054 920.102 82.8125 925.027 82.8125H957.683C962.601 82.8125 966.589 86.7909 966.589 91.7308V133.268C966.589 138.194 962.608 142.187 957.683 142.187H925.027C920.108 142.187 916.121 138.208 916.121 133.268V91.7308Z" fill="#580D06"/>
<path d="M957.682 143.672H925.026C919.297 143.672 914.636 139.006 914.636 133.269V91.7303C914.636 85.9945 919.297 81.3281 925.026 81.3281H957.682C963.411 81.3281 968.074 85.9945 968.074 91.7303V133.269C968.074 139.006 963.411 143.672 957.682 143.672ZM925.026 84.2967C920.935 84.2967 917.604 87.6304 917.604 91.7303V133.269C917.604 137.369 920.935 140.703 925.026 140.703H957.682C961.775 140.703 965.104 137.369 965.104 133.269V91.7303C965.104 87.6304 961.775 84.2967 957.682 84.2967H925.026Z" fill="#580D06"/>
<path d="M925.715 70.8595C926.155 68.443 928.505 66.4844 930.955 66.4844H951.754C954.208 66.4844 956.556 68.4532 956.993 70.8595L959.167 82.8126H923.542L925.715 70.8595Z" fill="#580D06"/>
<path d="M959.167 84.2968H923.542C923.101 84.2968 922.684 84.1014 922.403 83.7633C922.12 83.4253 922.003 82.9802 922.082 82.5471L924.256 70.5956H924.254C924.825 67.4589 927.768 65 930.956 65H951.754C954.94 65 957.885 67.4572 958.455 70.5956L960.627 82.5471C960.707 82.9802 960.589 83.4253 960.307 83.7633C960.025 84.1014 959.608 84.2968 959.167 84.2968ZM925.321 81.3282H957.389L955.534 71.1256C955.223 69.4159 953.492 67.9685 951.754 67.9685H930.955C929.217 67.9685 927.486 69.4142 927.176 71.1256H927.174L925.321 81.3282ZM925.715 70.8606H925.729H925.715Z" fill="#580D06"/>
<path d="M925.715 154.14C926.155 156.556 928.505 158.515 930.955 158.515H951.754C954.208 158.515 956.556 156.546 956.993 154.14L959.167 142.188H923.542L925.715 154.14Z" fill="#580D06"/>
<path d="M951.754 160H930.955C927.767 160 924.825 157.542 924.253 154.404L922.082 142.453C922.002 142.02 922.12 141.575 922.402 141.237C922.684 140.898 923.101 140.703 923.542 140.703H959.167C959.608 140.703 960.025 140.898 960.306 141.237C960.589 141.575 960.706 142.02 960.626 142.453L958.454 154.404C957.884 157.543 954.94 160 951.754 160ZM925.321 143.672L927.175 153.874H927.176C927.487 155.586 929.217 157.031 930.955 157.031H951.754C953.493 157.031 955.223 155.585 955.534 153.874L957.389 143.672H925.321Z" fill="#580D06"/>
<path d="M920.573 91.7308C920.573 86.8054 924.554 82.8125 929.48 82.8125H962.135C967.054 82.8125 971.042 86.7909 971.042 91.7308V133.268C971.042 138.194 967.061 142.187 962.135 142.187H929.48C924.561 142.187 920.573 138.208 920.573 133.268V91.7308Z" fill="#CACACA"/>
<path d="M962.135 143.672H929.478C923.749 143.672 919.088 139.006 919.088 133.269V91.7303C919.088 85.9945 923.749 81.3281 929.478 81.3281H962.135C967.864 81.3281 972.525 85.9945 972.525 91.7303V133.269C972.525 139.006 967.864 143.672 962.135 143.672ZM929.478 84.2967C925.387 84.2967 922.056 87.6304 922.056 91.7303V133.269C922.056 137.369 925.387 140.703 929.478 140.703H962.135C966.227 140.703 969.556 137.369 969.556 133.269V91.7303C969.556 87.6304 966.227 84.2967 962.135 84.2967H929.478Z" fill="#984841"/>
<path d="M930.168 70.8595C930.608 68.443 932.957 66.4844 935.408 66.4844H956.207C958.661 66.4844 961.009 68.4532 961.447 70.8595L963.62 82.8126H927.995L930.168 70.8595Z" fill="#77150C"/>
<path d="M963.619 84.2968H927.994C927.554 84.2968 927.136 84.1014 926.855 83.7633C926.572 83.4253 926.454 82.9802 926.534 82.5471L928.707 70.5956H928.706C929.277 67.4589 932.22 65 935.408 65H956.206C959.392 65 962.337 67.4572 962.906 70.5956L965.079 82.5471C965.158 82.9802 965.041 83.4253 964.758 83.7633C964.477 84.1014 964.06 84.2968 963.619 84.2968ZM929.773 81.3282H961.841L959.987 71.1256C959.675 69.4159 957.944 67.9685 956.206 67.9685H935.407C933.669 67.9685 931.938 69.4142 931.628 71.1256H931.626L929.773 81.3282ZM930.167 70.8606H930.181H930.167Z" fill="#984841"/>
<path d="M930.168 154.14C930.608 156.556 932.957 158.515 935.408 158.515H956.207C958.661 158.515 961.009 156.546 961.447 154.14L963.62 142.188H927.995L930.168 154.14Z" fill="#77150C"/>
<path d="M956.206 160H935.407C932.22 160 929.277 157.542 928.706 154.404L926.534 142.453C926.455 142.02 926.572 141.575 926.855 141.237C927.136 140.899 927.553 140.703 927.994 140.703H963.619C964.06 140.703 964.477 140.898 964.758 141.237C965.041 141.575 965.158 142.02 965.078 142.453L962.905 154.404C962.336 157.543 959.392 160 956.206 160ZM929.773 143.672L931.628 153.874H931.628C931.939 155.586 933.669 157.031 935.408 157.031H956.206C957.945 157.031 959.675 155.585 959.987 153.874L961.841 143.672H929.773Z" fill="#984841"/>
<path d="M974.23 112.5H971.041V99.1406H974.23C975.748 99.1406 976.978 100.371 976.978 101.89V109.752C976.978 111.27 975.748 112.5 974.23 112.5Z" fill="#CACACA"/>
<path d="M974.231 113.984H971.041C970.221 113.984 969.557 113.32 969.557 112.5V99.1401C969.557 98.3196 970.221 97.6562 971.041 97.6562H974.231C976.564 97.6562 978.463 99.5546 978.463 101.889V109.751C978.463 112.085 976.564 113.984 974.231 113.984ZM972.525 111.015H974.231C974.928 111.015 975.495 110.449 975.495 109.751V101.889C975.495 101.191 974.928 100.625 974.231 100.625H972.525V111.015Z" fill="#984841"/>
<path d="M954.305 121.406H954.565C958.009 121.406 960.8 118.615 960.8 115.172C960.8 111.729 958.009 108.938 954.565 108.938C954.322 108.938 954.083 108.955 953.847 108.982C953.972 108.467 954.046 107.932 954.046 107.379C954.046 103.649 951.023 100.625 947.292 100.625C943.859 100.625 941.032 103.188 940.601 106.503C939.629 106.069 938.555 105.821 937.421 105.821C933.117 105.821 929.628 109.31 929.628 113.614C929.628 117.741 932.841 121.112 936.901 121.38V121.406H954.305Z" fill="#77150C"/>
<path d="M954.566 122.891H936.9C936.763 122.891 936.63 122.872 936.502 122.837C931.791 122.372 928.143 118.378 928.143 113.614C928.143 108.498 932.304 104.336 937.42 104.336C938.141 104.336 938.852 104.419 939.546 104.584C940.701 101.385 943.773 99.1406 947.292 99.1406C951.834 99.1406 955.53 102.836 955.53 107.379C955.53 107.424 955.53 107.467 955.528 107.512C959.331 107.988 962.283 111.242 962.283 115.172C962.283 119.428 958.822 122.891 954.566 122.891ZM937.179 119.922H954.566C957.183 119.922 959.314 117.791 959.314 115.172C959.314 112.552 957.183 110.422 954.566 110.422C954.38 110.422 954.199 110.436 954.019 110.457C953.526 110.517 953.056 110.33 952.734 109.967C952.413 109.603 952.29 109.104 952.404 108.633C952.51 108.197 952.56 107.786 952.56 107.379C952.56 104.474 950.196 102.11 947.292 102.11C944.656 102.11 942.412 104.081 942.071 106.695C942.012 107.16 941.735 107.569 941.325 107.799C940.916 108.027 940.424 108.05 939.995 107.859C939.174 107.491 938.309 107.305 937.419 107.305C933.94 107.305 931.111 110.135 931.111 113.614C931.111 116.92 933.697 119.682 936.997 119.899C937.06 119.903 937.12 119.911 937.179 119.922Z" fill="#984841"/>
<path d="M7.326 202.216C5.418 202.216 3.84 201.586 2.592 200.326C1.344 199.066 0.72 197.524 0.72 195.7C0.72 193.876 1.344 192.334 2.592 191.074C3.84 189.814 5.418 189.184 7.326 189.184C8.49 189.184 9.558 189.466 10.53 190.03C11.502 190.582 12.252 191.332 12.78 192.28L11.664 192.928C11.268 192.16 10.68 191.548 9.9 191.092C9.12 190.636 8.262 190.408 7.326 190.408C5.754 190.408 4.47 190.918 3.474 191.938C2.478 192.958 1.98 194.212 1.98 195.7C1.98 197.188 2.478 198.442 3.474 199.462C4.47 200.482 5.754 200.992 7.326 200.992C8.262 200.992 9.12 200.764 9.9 200.308C10.68 199.852 11.268 199.24 11.664 198.472L12.78 199.102C12.264 200.05 11.514 200.806 10.53 201.37C9.558 201.934 8.49 202.216 7.326 202.216ZM23.4921 193V202H22.3041V194.818L19.1541 199.93H19.0101L15.8601 194.818V202H14.6721V193H16.0401L19.0821 197.932L22.1241 193H23.4921ZM33.75 193H34.938V202H33.75V200.236C32.922 201.556 31.71 202.216 30.114 202.216C28.83 202.216 27.732 201.76 26.82 200.848C25.92 199.936 25.47 198.82 25.47 197.5C25.47 196.18 25.92 195.064 26.82 194.152C27.732 193.24 28.83 192.784 30.114 192.784C31.71 192.784 32.922 193.444 33.75 194.764V193ZM27.684 200.038C28.368 200.722 29.208 201.064 30.204 201.064C31.2 201.064 32.04 200.722 32.724 200.038C33.408 199.342 33.75 198.496 33.75 197.5C33.75 196.504 33.408 195.664 32.724 194.98C32.04 194.284 31.2 193.936 30.204 193.936C29.208 193.936 28.368 194.284 27.684 194.98C27 195.664 26.658 196.504 26.658 197.5C26.658 198.496 27 199.342 27.684 200.038ZM42.2774 192.784C43.5614 192.784 44.6534 193.24 45.5534 194.152C46.4654 195.064 46.9214 196.18 46.9214 197.5C46.9214 198.82 46.4654 199.936 45.5534 200.848C44.6534 201.76 43.5614 202.216 42.2774 202.216C40.6814 202.216 39.4694 201.556 38.6414 200.236V205.6H37.4534V193H38.6414V194.764C39.4694 193.444 40.6814 192.784 42.2774 192.784ZM39.6674 200.038C40.3514 200.722 41.1914 201.064 42.1874 201.064C43.1834 201.064 44.0234 200.722 44.7074 200.038C45.3914 199.342 45.7334 198.496 45.7334 197.5C45.7334 196.504 45.3914 195.664 44.7074 194.98C44.0234 194.284 43.1834 193.936 42.1874 193.936C41.1914 193.936 40.3514 194.284 39.6674 194.98C38.9834 195.664 38.6414 196.504 38.6414 197.5C38.6414 198.496 38.9834 199.342 39.6674 200.038ZM55.0252 193V194.152H51.8392V202H50.6512V194.152H47.4652V193H55.0252ZM64.9053 194.296C65.7693 195.172 66.2013 196.24 66.2013 197.5C66.2013 198.76 65.7693 199.828 64.9053 200.704C64.0413 201.58 62.9013 202.078 61.4853 202.198V205.6H60.2973V202.198C58.8813 202.078 57.7413 201.58 56.8773 200.704C56.0133 199.828 55.5813 198.76 55.5813 197.5C55.5813 196.24 56.0133 195.172 56.8773 194.296C57.7413 193.42 58.8813 192.922 60.2973 192.802V189.4H61.4853V192.802C62.9013 192.922 64.0413 193.42 64.9053 194.296ZM57.7233 195.124C57.0873 195.772 56.7693 196.564 56.7693 197.5C56.7693 198.436 57.0873 199.234 57.7233 199.894C58.3593 200.542 59.2173 200.92 60.2973 201.028V193.972C59.2173 194.08 58.3593 194.464 57.7233 195.124ZM61.4853 201.028C62.5653 200.92 63.4233 200.542 64.0593 199.894C64.6953 199.234 65.0133 198.436 65.0133 197.5C65.0133 196.564 64.6953 195.772 64.0593 195.124C63.4233 194.464 62.5653 194.08 61.4853 193.972V201.028ZM75.7219 200.866C74.8099 201.766 73.6939 202.216 72.3739 202.216C71.0539 202.216 69.9319 201.766 69.0079 200.866C68.0959 199.954 67.6399 198.832 67.6399 197.5C67.6399 196.168 68.0959 195.052 69.0079 194.152C69.9319 193.24 71.0539 192.784 72.3739 192.784C73.6939 192.784 74.8099 193.24 75.7219 194.152C76.6459 195.052 77.1079 196.168 77.1079 197.5C77.1079 198.832 76.6459 199.954 75.7219 200.866ZM69.8539 200.038C70.5379 200.722 71.3779 201.064 72.3739 201.064C73.3699 201.064 74.2099 200.722 74.8939 200.038C75.5779 199.342 75.9199 198.496 75.9199 197.5C75.9199 196.504 75.5779 195.664 74.8939 194.98C74.2099 194.284 73.3699 193.936 72.3739 193.936C71.3779 193.936 70.5379 194.284 69.8539 194.98C69.1699 195.664 68.8279 196.504 68.8279 197.5C68.8279 198.496 69.1699 199.342 69.8539 200.038ZM85.4679 193H86.6559V202H85.4679V198.076H80.2839V202H79.0959V193H80.2839V196.924H85.4679V193Z" fill="black"/>
<path d="M316.44 189.4V202H315.18V190.588H308.7V202H307.44V189.4H316.44ZM326.523 193V202H325.335V194.152H321.267V198.166C321.267 199.666 320.979 200.698 320.403 201.262C319.839 201.826 319.059 202.072 318.063 202V200.884C318.747 200.956 319.251 200.794 319.575 200.398C319.911 200.002 320.079 199.258 320.079 198.166V193H326.523ZM336.779 193H337.967V202H336.779V200.236C335.951 201.556 334.739 202.216 333.143 202.216C331.859 202.216 330.761 201.76 329.849 200.848C328.949 199.936 328.499 198.82 328.499 197.5C328.499 196.18 328.949 195.064 329.849 194.152C330.761 193.24 331.859 192.784 333.143 192.784C334.739 192.784 335.951 193.444 336.779 194.764V193ZM330.713 200.038C331.397 200.722 332.237 201.064 333.233 201.064C334.229 201.064 335.069 200.722 335.753 200.038C336.437 199.342 336.779 198.496 336.779 197.5C336.779 196.504 336.437 195.664 335.753 194.98C335.069 194.284 334.229 193.936 333.233 193.936C332.237 193.936 331.397 194.284 330.713 194.98C330.029 195.664 329.687 196.504 329.687 197.5C329.687 198.496 330.029 199.342 330.713 200.038ZM346.855 193H348.043V202H346.855V198.076H341.671V202H340.483V193H341.671V196.924H346.855V193ZM361.427 193H362.615V202H350.555V193H351.743V200.848H355.991V193H357.179V200.848H361.427V193ZM369.285 192.784C370.617 192.784 371.691 193.258 372.507 194.206C373.335 195.142 373.749 196.252 373.749 197.536C373.749 197.668 373.737 197.854 373.713 198.094H365.811C365.931 199.006 366.315 199.732 366.963 200.272C367.623 200.8 368.433 201.064 369.393 201.064C370.077 201.064 370.665 200.926 371.157 200.65C371.661 200.362 372.039 199.99 372.291 199.534L373.335 200.146C372.939 200.782 372.399 201.286 371.715 201.658C371.031 202.03 370.251 202.216 369.375 202.216C367.959 202.216 366.807 201.772 365.919 200.884C365.031 199.996 364.587 198.868 364.587 197.5C364.587 196.156 365.025 195.034 365.901 194.134C366.777 193.234 367.905 192.784 369.285 192.784ZM369.285 193.936C368.349 193.936 367.563 194.218 366.927 194.782C366.303 195.334 365.931 196.054 365.811 196.942H372.525C372.405 195.994 372.039 195.256 371.427 194.728C370.815 194.2 370.101 193.936 369.285 193.936ZM381.767 193V194.152H378.581V202H377.393V194.152H374.207V193H381.767Z" fill="black"/>
<path d="M619.54 189.4H620.8V202H619.54V196.114H612.7V202H611.44V189.4H612.7V194.926H619.54V189.4ZM631.036 200.866C630.124 201.766 629.008 202.216 627.688 202.216C626.368 202.216 625.246 201.766 624.322 200.866C623.41 199.954 622.954 198.832 622.954 197.5C622.954 196.168 623.41 195.052 624.322 194.152C625.246 193.24 626.368 192.784 627.688 192.784C629.008 192.784 630.124 193.24 631.036 194.152C631.96 195.052 632.422 196.168 632.422 197.5C632.422 198.832 631.96 199.954 631.036 200.866ZM625.168 200.038C625.852 200.722 626.692 201.064 627.688 201.064C628.684 201.064 629.524 200.722 630.208 200.038C630.892 199.342 631.234 198.496 631.234 197.5C631.234 196.504 630.892 195.664 630.208 194.98C629.524 194.284 628.684 193.936 627.688 193.936C626.692 193.936 625.852 194.284 625.168 194.98C624.484 195.664 624.142 196.504 624.142 197.5C624.142 198.496 624.484 199.342 625.168 200.038ZM640.539 193H641.799L637.947 202.828C637.599 203.716 637.101 204.412 636.453 204.916C635.817 205.432 635.103 205.66 634.311 205.6V204.484C635.391 204.604 636.213 203.98 636.777 202.612L637.011 202.054L632.979 193H634.239L637.623 200.542L640.539 193ZM649.715 193V194.152H646.529V202H645.341V194.152H642.155V193H649.715ZM654.807 202.216C653.511 202.216 652.431 201.79 651.567 200.938C650.703 200.074 650.271 198.958 650.271 197.59C650.271 196.054 650.499 194.878 650.955 194.062C651.411 193.234 652.335 192.484 653.727 191.812C653.991 191.68 654.339 191.524 654.771 191.344C655.215 191.164 655.545 191.02 655.761 190.912C655.989 190.804 656.235 190.666 656.499 190.498C656.763 190.318 656.961 190.12 657.093 189.904C657.225 189.688 657.309 189.43 657.345 189.13L658.281 189.67C658.233 189.958 658.137 190.228 657.993 190.48C657.849 190.732 657.699 190.936 657.543 191.092C657.399 191.248 657.165 191.422 656.841 191.614C656.529 191.794 656.283 191.926 656.103 192.01C655.935 192.082 655.635 192.208 655.203 192.388C654.783 192.568 654.501 192.688 654.357 192.748C653.517 193.108 652.899 193.486 652.503 193.882C652.107 194.266 651.825 194.77 651.657 195.394C652.065 194.854 652.581 194.458 653.205 194.206C653.841 193.942 654.459 193.81 655.059 193.81C656.259 193.81 657.249 194.206 658.029 194.998C658.821 195.778 659.217 196.78 659.217 198.004C659.217 199.216 658.797 200.224 657.957 201.028C657.129 201.82 656.079 202.216 654.807 202.216ZM654.807 201.028C655.743 201.028 656.511 200.746 657.111 200.182C657.723 199.606 658.029 198.88 658.029 198.004C658.029 197.116 657.741 196.39 657.165 195.826C656.601 195.25 655.845 194.962 654.897 194.962C654.045 194.962 653.271 195.232 652.575 195.772C651.879 196.3 651.531 197.008 651.531 197.896C651.531 198.808 651.843 199.558 652.467 200.146C653.103 200.734 653.883 201.028 654.807 201.028ZM667.152 193H668.412L664.56 202.828C664.212 203.716 663.714 204.412 663.066 204.916C662.43 205.432 661.716 205.66 660.924 205.6V204.484C662.004 204.604 662.826 203.98 663.39 202.612L663.624 202.054L659.592 193H660.852L664.236 200.542L667.152 193ZM677.12 202H675.536L671.036 197.662V202H669.848V193H671.036V196.978L675.32 193H676.94L672.296 197.32L677.12 202Z" fill="black"/>
<path d="M930.55 189.4H931.81V202H930.55V196.69C929.458 197.23 928.318 197.5 927.13 197.5C925.93 197.5 924.97 197.164 924.25 196.492C923.53 195.82 923.17 194.956 923.17 193.9V189.4H924.43V193.9C924.43 194.632 924.664 195.22 925.132 195.664C925.612 196.096 926.278 196.312 927.13 196.312C928.318 196.312 929.458 196.042 930.55 195.502V189.4ZM942.25 193H943.438V202H942.25V200.236C941.422 201.556 940.21 202.216 938.614 202.216C937.33 202.216 936.232 201.76 935.32 200.848C934.42 199.936 933.97 198.82 933.97 197.5C933.97 196.18 934.42 195.064 935.32 194.152C936.232 193.24 937.33 192.784 938.614 192.784C940.21 192.784 941.422 193.444 942.25 194.764V193ZM936.184 200.038C936.868 200.722 937.708 201.064 938.704 201.064C939.7 201.064 940.54 200.722 941.224 200.038C941.908 199.342 942.25 198.496 942.25 197.5C942.25 196.504 941.908 195.664 941.224 194.98C940.54 194.284 939.7 193.936 938.704 193.936C937.708 193.936 936.868 194.284 936.184 194.98C935.5 195.664 935.158 196.504 935.158 197.5C935.158 198.496 935.5 199.342 936.184 200.038ZM950.147 202.216C948.791 202.216 947.663 201.766 946.763 200.866C945.863 199.954 945.413 198.832 945.413 197.5C945.413 196.168 945.863 195.052 946.763 194.152C947.663 193.24 948.791 192.784 950.147 192.784C951.035 192.784 951.833 193 952.541 193.432C953.249 193.852 953.765 194.422 954.089 195.142L953.117 195.7C952.877 195.16 952.487 194.734 951.947 194.422C951.419 194.098 950.819 193.936 950.147 193.936C949.151 193.936 948.311 194.284 947.627 194.98C946.943 195.664 946.601 196.504 946.601 197.5C946.601 198.496 946.943 199.342 947.627 200.038C948.311 200.722 949.151 201.064 950.147 201.064C950.819 201.064 951.419 200.908 951.947 200.596C952.475 200.272 952.889 199.84 953.189 199.3L954.179 199.876C953.807 200.596 953.261 201.166 952.541 201.586C951.821 202.006 951.023 202.216 950.147 202.216ZM959.539 196.42C960.379 196.42 961.087 196.684 961.663 197.212C962.251 197.728 962.545 198.394 962.545 199.21C962.545 200.026 962.251 200.698 961.663 201.226C961.087 201.742 960.379 202 959.539 202H955.885V193H957.073V196.42H959.539ZM963.805 193H964.993V202H963.805V193ZM959.539 200.848C960.043 200.848 960.469 200.698 960.817 200.398C961.177 200.098 961.357 199.702 961.357 199.21C961.357 198.718 961.177 198.322 960.817 198.022C960.469 197.722 960.043 197.572 959.539 197.572H957.073V200.848H959.539Z" fill="black"/>
<path d="M719.984 3.94922C717.155 3.94922 570.837 3.94922 570.017 3.94922C562.205 3.94922 555.85 10.3043 555.85 18.116V124.377C555.85 131.286 560.97 137.274 567.783 138.365L570.335 140.402H717.465L722.218 138.365C729.031 137.274 734.151 131.286 734.151 124.377C734.151 120.842 734.151 21.3137 734.151 18.1157C734.151 10.3043 727.795 3.94922 719.984 3.94922Z" fill="#984841"/>
<path d="M569.364 124.378V18.116C569.364 10.3043 575.719 3.94922 583.53 3.94922C575.281 3.94922 570.168 3.94922 570.017 3.94922C562.205 3.94922 555.85 10.3043 555.85 18.116V124.378C555.85 131.287 560.97 137.274 567.783 138.366L570.335 140.403H583.848L581.297 138.366C574.483 137.274 569.364 131.287 569.364 124.378Z" fill="#580D06"/>
<path d="M719.7 28.9707H571.147L568.576 31.6543V123.212C568.576 124.615 569.714 125.754 571.118 125.754H718.882C720.286 125.754 721.424 124.615 721.424 123.212C721.424 120.811 721.424 34.4322 721.424 31.6543L719.7 28.9707Z" fill="#CACACA"/>
<path d="M585.098 123.212V31.6543L587.669 28.9707H571.147L568.576 31.6543V123.212C568.576 124.615 569.714 125.754 571.118 125.754H587.64C586.236 125.754 585.098 124.615 585.098 123.212Z" fill="#CACACA"/>
<path d="M585.098 16.582H571.118C569.714 16.582 568.576 17.7203 568.576 19.124V31.6563H585.098L586.185 30.4968V17.3888L585.098 16.582Z" fill="#9B9B9B"/>
<path d="M718.882 16.5801C712.319 16.5801 590.3 16.5801 585.098 16.5801V31.6543H721.424V19.122C721.424 17.7183 720.286 16.5801 718.882 16.5801Z" fill="#9B9B9B"/>
<path d="M743.635 138.365H546.365C545.059 138.365 544 139.434 544 140.754V148.969C544 155.065 548.939 160.052 554.976 160.052H735.024C741.061 160.052 746 155.065 746 148.969V140.754C746 139.434 744.941 138.365 743.635 138.365Z" fill="#77150C"/>
<path d="M568.577 148.969V140.754C568.577 139.434 569.636 138.365 570.942 138.365H546.366C545.059 138.365 544 139.434 544 140.754V148.969C544 155.065 548.94 160.052 554.976 160.052H579.553C573.516 160.052 568.577 155.065 568.577 148.969Z" fill="#580D06"/>
<path d="M615.536 138.365V143.877C615.536 146.586 617.731 148.802 620.414 148.802H669.586C672.269 148.802 674.464 146.586 674.464 143.877V138.365H615.536Z" fill="#AE6A63"/>
<path d="M640.112 143.877V138.365H615.536V143.877C615.536 146.586 617.731 148.802 620.414 148.802H644.99C642.308 148.803 640.112 146.586 640.112 143.877Z" fill="#9C5C55"/>
<path d="M393.403 159H298.223C292.945 159 288.626 154.681 288.626 149.403V9.59745C288.626 4.31878 292.945 0 298.223 0H393.403C398.681 0 403 4.31878 403 9.59745V149.403C403 154.681 398.681 159 393.403 159Z" fill="#77150C"/>
<path d="M297.055 149.403V9.59745C297.055 4.31878 301.374 0 306.653 0H298.223C292.945 0 288.626 4.31878 288.626 9.59745V149.403C288.626 154.681 292.945 159 298.223 159H306.653C301.374 159 297.055 154.681 297.055 149.403Z" fill="#580D06"/>
<path d="M392.311 14.0488H299.315C298.066 14.0488 297.055 15.0606 297.055 16.3087V135.962C297.055 137.21 298.066 138.222 299.315 138.222H392.311C393.559 138.222 394.57 137.21 394.57 135.962V16.3087C394.57 15.0606 393.558 14.0488 392.311 14.0488Z" fill="#CACACA"/>
<path d="M306.652 135.962V16.3087C306.652 15.0606 307.664 14.0488 308.912 14.0488H299.315C298.066 14.0488 297.055 15.0606 297.055 16.3087V135.962C297.055 137.21 298.066 138.222 299.315 138.222H308.912C307.664 138.222 306.652 137.21 306.652 135.962Z" fill="#9B9B9B"/>
<path d="M345.812 9.69283C345.655 9.69283 345.498 9.67699 345.345 9.64469C345.191 9.61581 345.041 9.56799 344.893 9.50712C344.75 9.44967 344.612 9.37576 344.481 9.28632C344.349 9.19999 344.228 9.10062 344.116 8.98882C344.004 8.88013 343.905 8.75498 343.818 8.62424C343.732 8.49598 343.658 8.3553 343.598 8.21152C343.537 8.06743 343.492 7.91371 343.46 7.7634C343.428 7.60657 343.412 7.45006 343.412 7.29323C343.412 7.13641 343.428 6.97958 343.46 6.82275C343.492 6.67245 343.537 6.51904 343.598 6.37495C343.658 6.23085 343.732 6.09017 343.818 5.96223C343.905 5.82776 344.004 5.70634 344.116 5.59765C344.228 5.48554 344.349 5.38648 344.481 5.29673C344.612 5.2104 344.749 5.1368 344.893 5.07593C345.041 5.01848 345.191 4.97065 345.345 4.94146C346.122 4.78153 346.954 5.03773 347.511 5.59765C347.619 5.70634 347.722 5.82776 347.808 5.96223C347.895 6.09048 347.968 6.23085 348.029 6.37495C348.09 6.51904 348.135 6.67245 348.167 6.82275C348.195 6.97958 348.211 7.13641 348.211 7.29323C348.211 7.45006 348.195 7.60657 348.167 7.7634C348.135 7.91371 348.09 8.06743 348.029 8.21152C347.968 8.3553 347.895 8.49629 347.808 8.62424C347.722 8.75498 347.619 8.88013 347.511 8.98882C347.063 9.43694 346.445 9.69283 345.812 9.69283Z" fill="#984841"/>
<path d="M346 154C345.673 154 345.346 153.967 345.027 153.9C344.706 153.839 344.394 153.74 344.087 153.613C343.787 153.493 343.5 153.339 343.227 153.153C342.953 152.973 342.7 152.766 342.466 152.533C342.233 152.306 342.026 152.045 341.846 151.773C341.667 151.506 341.513 151.212 341.386 150.913C341.259 150.613 341.166 150.292 341.1 149.979C341.033 149.652 341 149.326 341 148.999C341 148.672 341.034 148.345 341.1 148.019C341.166 147.705 341.259 147.386 341.386 147.085C341.513 146.785 341.667 146.492 341.846 146.225C342.026 145.945 342.233 145.692 342.466 145.465C342.7 145.232 342.953 145.025 343.227 144.838C343.5 144.658 343.786 144.505 344.087 144.378C344.393 144.258 344.706 144.159 345.027 144.098C346.647 143.764 348.38 144.298 349.54 145.465C349.767 145.692 349.98 145.945 350.16 146.225C350.34 146.492 350.493 146.785 350.62 147.085C350.747 147.386 350.84 147.705 350.907 148.019C350.967 148.345 351 148.672 351 148.999C351 149.326 350.967 149.652 350.907 149.979C350.84 150.292 350.747 150.613 350.62 150.913C350.493 151.212 350.34 151.506 350.16 151.773C349.98 152.045 349.767 152.306 349.54 152.533C348.606 153.467 347.32 154 346 154Z" fill="#984841"/>
<path d="M392.311 14.0488H299.315C298.066 14.0488 297.055 15.0606 297.055 16.3087V22.7426H394.57V16.3087C394.57 15.0606 393.558 14.0488 392.311 14.0488Z" fill="#9B9B9B"/>
<path d="M308.912 14.0488H299.315C298.066 14.0488 297.055 15.0606 297.055 16.3087V22.7426H306.652V16.3087C306.652 15.0606 307.664 14.0488 308.912 14.0488Z" fill="#646464"/>
<path d="M67.0625 157.389H18.9375C15.3778 157.389 12.4922 154.503 12.4922 150.943V57.0566C12.4922 53.4969 15.3778 50.6113 18.9375 50.6113H67.0625C70.6222 50.6113 73.5078 53.4969 73.5078 57.0566V150.943C73.5078 154.503 70.6222 157.389 67.0625 157.389Z" fill="#CACACA"/>
<path d="M67.0625 50.6113H60.6172C64.1769 50.6113 67.0625 53.4969 67.0625 57.0566V150.943C67.0625 154.503 64.1769 157.389 60.6172 157.389H67.0625C70.6222 157.389 73.5078 154.503 73.5078 150.943V57.0566C73.5078 53.4969 70.6222 50.6113 67.0625 50.6113Z" fill="#9B9B9B"/>
<path d="M55.4609 58.7754H30.5391C28.8779 58.7754 27.5312 57.4288 27.5312 55.7676V50.6113H58.4688V55.7676C58.4688 57.4288 57.1221 58.7754 55.4609 58.7754Z" fill="#77150C"/>
<path d="M52.0234 50.6113V55.7676C52.0234 57.4288 50.6768 58.7754 49.0156 58.7754H55.4609C57.1221 58.7754 58.4688 57.4288 58.4688 55.7676V50.6113H52.0234Z" fill="#580D06"/>
<path d="M73.5078 141.061H12.4922V147.506H73.5078V141.061Z" fill="#9B9B9B"/>
<path d="M73.5078 141.061H67.0625V147.506H73.5078V141.061Z" fill="#646464"/>
<path d="M67.0625 157.389H18.9375C15.3778 157.389 12.4922 154.503 12.4922 150.943V147.506H73.5078V150.943C73.5078 154.503 70.6222 157.389 67.0625 157.389Z" fill="#77150C"/>
<path d="M67.0625 147.506V150.943C67.0625 154.503 64.1769 157.389 60.6172 157.389H67.0625C70.6222 157.389 73.5078 154.503 73.5078 150.943V147.506H67.0625Z" fill="#580D06"/>
<path d="M47.2969 150.836H38.7031C37.8132 150.836 37.0918 151.557 37.0918 152.447C37.0918 153.337 37.8132 154.059 38.7031 154.059H47.2969C48.1868 154.059 48.9082 153.337 48.9082 152.447C48.9082 151.557 48.1868 150.836 47.2969 150.836Z" fill="#984841"/>
<path d="M33.332 56.3047C32.4421 56.3047 31.7207 55.5832 31.7207 54.6934C31.7207 53.8035 32.4421 53.082 33.332 53.082C34.2219 53.082 34.9434 53.8035 34.9434 54.6934C34.9434 55.5832 34.2219 56.3047 33.332 56.3047Z" fill="#984841"/>
<path d="M37.1992 56.3047C36.3093 56.3047 35.5879 55.5832 35.5879 54.6934C35.5879 53.8035 36.3093 53.082 37.1992 53.082C38.0891 53.082 38.8105 53.8035 38.8105 54.6934C38.8105 55.5832 38.0891 56.3047 37.1992 56.3047Z" fill="#984841"/>
<path d="M67.0625 49H18.9375C14.495 49 10.8809 52.6141 10.8809 57.0566V150.943C10.8809 155.386 14.495 159 18.9375 159H67.0625C71.505 159 75.1191 155.386 75.1191 150.943V57.0566C75.1191 52.6141 71.505 49 67.0625 49ZM71.8965 150.943C71.8965 153.609 69.7281 155.777 67.0625 155.777H18.9375C16.2719 155.777 14.1035 153.609 14.1035 150.943V57.0566C14.1035 54.3911 16.2719 52.2227 18.9375 52.2227H67.0625C69.7281 52.2227 71.8965 54.3911 71.8965 57.0566V150.943Z" fill="#77150C"/>
</svg>
