<svg width="34" height="62" viewBox="0 0 34 62" fill="none" xmlns="http://www.w3.org/2000/svg">
<path d="M1.22327 34.0693L26.8698 60.7275C28.5012 62.4242 31.1463 62.4242 32.7769 60.7275C34.4077 59.0324 34.4077 56.283 32.7769 54.588L10.0837 30.9996L32.7763 7.41195C34.407 5.71612 34.407 2.96703 32.7763 1.27188C31.1455 -0.423959 28.5005 -0.423959 26.8691 1.27188L1.22261 27.9305C0.40723 28.7785 0 29.8887 0 30.9994C0 32.1107 0.408024 33.2217 1.22327 34.0693Z" fill="#77150C"/>
<path fill-rule="evenodd" clip-rule="evenodd" d="M10.0837 30.9996L32.7769 54.588C34.4077 56.283 34.4077 59.0324 32.7769 60.7275C31.1463 62.4242 28.5012 62.4242 26.8698 60.7275L1.22327 34.0693C0.408024 33.2217 0 32.1107 0 30.9994C0 29.8887 0.40723 28.7785 1.22261 27.9305L26.8691 1.27188C28.5005 -0.423959 31.1455 -0.423959 32.7763 1.27188C34.407 2.96703 34.407 5.71612 32.7763 7.41195L10.0837 30.9996ZM32.0555 6.71881L8.69609 30.9995L32.0563 55.2813C33.3145 56.5891 33.3146 58.7262 32.0563 60.0342C30.8192 61.3214 28.8287 61.322 27.5906 60.0344L1.94399 33.3761C1.94397 33.3761 1.94401 33.3761 1.94399 33.3761C1.31876 32.726 1 31.8682 1 30.9994C1 30.1311 1.31798 29.2742 1.94327 28.6238C1.94333 28.6237 1.94321 28.6238 1.94327 28.6238L27.5898 1.96517C28.8279 0.678201 30.8182 0.67841 32.0555 1.96502C33.3137 3.27288 33.3139 5.41 32.0555 6.71881C32.0555 6.71876 32.0554 6.71886 32.0555 6.71881Z" fill="#77150C"/>
</svg>
