<svg width="1025" height="100" viewBox="0 0 1025 100" fill="none" xmlns="http://www.w3.org/2000/svg">
<path d="M6.82578 43.8949H5.71428C4.28928 43.8949 3.12078 43.4609 2.20878 42.6069C1.25403 41.6269 0.769531 40.4229 0.769531 39.0229V33.0589C0.769531 32.6249 0.926281 32.2469 1.25403 31.9389C1.58178 31.6169 1.95228 31.4629 2.39403 31.4629C2.86428 31.4629 3.24903 31.6169 3.56253 31.9389C3.89028 32.2469 4.06128 32.6249 4.06128 33.0589V39.0229C4.06128 39.3309 4.11828 39.6669 4.24653 40.0169C4.51728 40.4369 4.95903 40.6609 5.61453 40.6609H6.14178H16.644C18.0833 40.6609 19.2518 41.0949 20.1495 41.9489C21.1043 42.9289 21.5888 44.1329 21.5888 45.5329V56.9429C21.5888 57.3769 21.432 57.7409 21.1043 58.0629C20.7908 58.3709 20.406 58.5389 19.9785 58.5389C19.5083 58.5389 19.1093 58.3709 18.7958 58.0629C18.468 57.7409 18.3113 57.3769 18.3113 56.9429V45.5329C18.3113 45.2249 18.24 44.8889 18.126 44.5529C17.8553 44.1189 17.3993 43.8949 16.758 43.8949H6.82578Z" fill="#1F1B20"/>
<path d="M4.06128 52.0565V56.9425C4.06128 57.3765 3.89028 57.7405 3.57678 58.0625C3.24903 58.3845 2.86428 58.5385 2.43678 58.5385C1.96653 58.5385 1.56753 58.3845 1.25403 58.0625C0.926281 57.7405 0.769531 57.3765 0.769531 56.9425V52.0565V47.4925C0.769531 47.0585 0.926281 46.6945 1.25403 46.3725C1.56753 46.0505 1.95228 45.8965 2.39403 45.8965C2.86428 45.8965 3.24903 46.0505 3.57678 46.3725C3.89028 46.6945 4.06128 47.0585 4.06128 47.4925V52.0565Z" fill="#1F1B20"/>
<path d="M109.511 43.8942H111.606C112.048 43.8942 112.432 43.7402 112.746 43.4182C113.074 43.1102 113.23 42.7182 113.23 42.2562C113.23 41.8222 113.074 41.4442 112.746 41.1362C112.432 40.8142 112.048 40.6602 111.606 40.6602H109.511H101.973C100.548 40.6602 99.3651 41.1082 98.4246 41.9902C97.4984 42.9002 97.0281 44.0762 97.0281 45.5322V56.9422C97.0281 57.3762 97.1849 57.7542 97.5126 58.0622C97.8261 58.3842 98.2251 58.5382 98.6954 58.5382C99.1229 58.5382 99.5076 58.3842 99.8354 58.0622C100.149 57.7542 100.32 57.3762 100.32 56.9422V45.5322C100.32 44.4402 100.847 43.8942 101.93 43.8942H109.511Z" fill="#1F1B20"/>
<path d="M52.8959 52.6865V56.9425C52.8959 57.3765 52.7391 57.7405 52.4114 58.0625C52.0979 58.3845 51.7131 58.5385 51.2714 58.5385C50.8154 58.5385 50.4164 58.3845 50.1029 58.0625C49.7751 57.7405 49.6184 57.3765 49.6184 56.9425V52.6865V47.4925C49.6184 47.0585 49.7751 46.6945 50.1029 46.3725C50.4164 46.0505 50.8011 45.8965 51.2286 45.8965C51.6989 45.8965 52.0979 46.0505 52.4114 46.3725C52.7391 46.6945 52.8959 47.0585 52.8959 47.4925V52.6865Z" fill="#1F1B20"/>
<path d="M53.3376 43.8942H51.2286C50.8011 43.8942 50.4164 43.7402 50.1029 43.4182C49.7751 43.1102 49.6184 42.7182 49.6184 42.2562C49.6184 41.8222 49.7751 41.4442 50.1029 41.1362C50.4164 40.8142 50.8011 40.6602 51.2286 40.6602H53.3376H64.0394C65.4644 40.6602 66.6471 41.1082 67.5876 41.9902C68.5139 42.9002 68.9841 44.0762 68.9841 45.5322V56.9422C68.9841 57.3762 68.8274 57.7402 68.4996 58.0622C68.1861 58.3702 67.7871 58.5382 67.3169 58.5382C66.8751 58.5382 66.5046 58.3702 66.1769 58.0622C65.8634 57.7402 65.7066 57.3762 65.7066 56.9422V45.5322C65.7066 44.4402 65.1651 43.8942 64.0821 43.8942H53.3376Z" fill="#1F1B20"/>
<path d="M31.4783 58.5382H30.0676C28.6426 58.5382 27.4313 58.0622 26.4481 57.1102C25.5646 56.2142 25.1371 55.0662 25.1371 53.6662V45.5322C25.1371 44.3002 25.4933 43.2362 26.2201 42.3542C27.1321 41.2202 28.3861 40.6602 30.0248 40.6602H39.4156H41.1398C42.5648 40.6602 43.7761 41.1362 44.7736 42.0882C45.6428 42.9702 46.0846 44.1322 46.0846 45.5322V47.3102V53.6942C46.0846 54.9122 45.7141 55.9622 44.9873 56.8442C44.0468 57.9782 42.7643 58.5382 41.1398 58.5382H30.0676H31.4783ZM28.4146 51.8742V53.7642C28.4146 54.3942 28.6283 54.8422 29.0701 55.1082C29.4263 55.2342 29.7541 55.3042 30.0676 55.3042H31.4783H41.1968C41.8666 55.3042 42.3368 55.0802 42.6076 54.6462C42.7358 54.3102 42.7928 53.9742 42.7928 53.6662V47.3102V45.4342C42.7928 44.8042 42.5791 44.3422 42.1373 44.0902C41.7953 43.9642 41.4533 43.8942 41.1398 43.8942H39.4156H29.9678C29.3266 43.8942 28.8706 44.1182 28.5998 44.5522C28.4716 44.8882 28.4146 45.2242 28.4146 45.5322V53.7642V51.8742Z" fill="#1F1B20"/>
<path d="M78.8881 58.5382H77.4916C76.0524 58.5382 74.8411 58.0622 73.8579 57.1102C72.9744 56.2142 72.5469 55.0662 72.5469 53.6662V45.5322C72.5469 44.3002 72.9031 43.2362 73.6299 42.3542C74.5419 41.2202 75.8101 40.6602 77.4346 40.6602H86.8254H88.5496C89.9746 40.6602 91.1859 41.1362 92.1834 42.0882C93.0526 42.9702 93.4944 44.1322 93.4944 45.5322V47.3102V53.6942C93.4944 54.9122 93.1239 55.9622 92.3971 56.8442C91.4566 57.9782 90.1741 58.5382 88.5496 58.5382H77.4916H78.8881ZM75.8244 51.8742V53.7642C75.8244 54.3942 76.0381 54.8422 76.4799 55.1082C76.8361 55.2342 77.1639 55.3042 77.4916 55.3042H78.8881H88.6066C89.2764 55.3042 89.7466 55.0802 90.0174 54.6462C90.1456 54.3102 90.2026 53.9742 90.2026 53.6662V47.3102V45.4342C90.2026 44.8042 89.9889 44.3422 89.5614 44.0902C89.2051 43.9642 88.8631 43.8942 88.5496 43.8942H86.8254H77.3776C76.7364 43.8942 76.2804 44.1182 76.0096 44.5522C75.8814 44.8882 75.8244 45.2242 75.8244 45.5322V53.7642V51.8742Z" fill="#1F1B20"/>
<path fill-rule="evenodd" clip-rule="evenodd" d="M248.598 59.824H245.539V38.8453H253.406C256.9 38.8496 259.508 40.9361 259.524 44.527C259.538 47.4769 257.876 49.4915 255.591 50.4273L260.18 59.824H256.465L252.313 50.6458H248.598V59.824ZM252.531 41.2491H248.598V48.242H252.75C254.268 48.2606 256.442 47.3224 256.465 44.7455C256.487 42.2613 254.53 41.2504 252.531 41.2491ZM275.258 53.4867V50.8643C275.317 47.7099 273.335 44.3155 268.703 44.3085C263.486 44.3004 261.463 48.5394 261.491 52.1755C261.534 57.8238 264.516 60.4916 269.358 60.4796C271.833 60.4735 273.364 59.7477 274.821 58.9499V56.5461C273.139 57.1639 271.87 57.8778 269.358 57.8573C265.998 57.8297 264.782 55.2511 264.769 53.4867H275.258ZM264.769 51.3014H272.418V50.6458C272.395 48.7732 271.114 46.7046 268.703 46.7123C265.94 46.721 264.742 49.2265 264.769 50.6458V51.3014ZM291.211 59.1684V38.4082L288.152 39.2823V44.9641C287.278 44.4796 286.234 44.3163 285.092 44.3085C279.538 44.2696 277.846 48.3456 277.881 52.394C277.926 57.6313 280.926 60.5572 285.748 60.4796C287.832 60.4462 289.436 60.0594 291.211 59.1684ZM288.152 47.5864V57.2017C287.39 57.6569 286.606 57.7795 285.748 57.7677C281.51 57.7089 281.167 53.969 281.159 52.394C281.143 49.3233 282.197 46.886 285.311 46.9308C286.523 46.9483 287.223 47.1087 288.152 47.5864Z" fill="black"/>
<path fill-rule="evenodd" clip-rule="evenodd" d="M294.489 46.057V59.8243H297.548V47.8052C298.167 47.2801 298.894 46.9333 300.171 46.9311C301.945 46.9283 303.427 47.9036 303.449 49.9905V59.8243H306.726V48.2423C307.45 47.456 308.171 46.9342 309.786 46.9311C311.93 46.9272 312.618 48.2386 312.627 49.9905V59.8243H315.686V49.1164C315.634 45.2421 312.493 44.2998 310.441 44.3088C307.535 44.3214 306.582 45.1261 305.197 46.057C304.047 44.9602 302.974 44.2965 300.389 44.3088C297.321 44.3232 296.073 45.0671 294.489 46.057Z" fill="#0D0D0D"/>
<path fill-rule="evenodd" clip-rule="evenodd" d="M318.746 45.1816H322.024V59.823H318.746V45.1816Z" fill="black"/>
<path d="M320.385 42.779C321.532 42.779 322.461 41.8495 322.461 40.703C322.461 39.5564 321.532 38.627 320.385 38.627C319.239 38.627 318.309 39.5564 318.309 40.703C318.309 41.8495 319.239 42.779 320.385 42.779Z" fill="black"/>
<path fill-rule="evenodd" clip-rule="evenodd" d="M268.476 68.3048L269.014 68.3043L270.848 71.9418L272.436 68.3148L272.96 68.3162L270.647 73.5877C270.55 73.8334 270.242 74.254 269.559 74.2599C269.166 74.2632 268.726 74.0973 268.532 73.8058L268.93 73.5313C268.988 73.6349 269.253 73.777 269.544 73.7785C269.845 73.78 270.087 73.6546 270.2 73.4144L270.592 72.5176L268.476 68.3048ZM263.396 66.3809H263.864L263.869 68.9468C264.347 68.366 265.012 68.1568 265.692 68.1477C267.14 68.1284 267.857 69.2394 267.86 70.4496C267.862 71.8334 266.792 72.7012 265.743 72.7171C264.927 72.7296 264.273 72.3849 263.872 71.8911L263.874 72.7167L263.395 72.7195L263.396 66.3809ZM263.858 70.4483C263.862 69.423 264.464 68.6472 265.699 68.6217C266.594 68.6029 267.35 69.1774 267.366 70.4306C267.381 71.595 266.424 72.2449 265.699 72.2355C264.475 72.2195 263.855 71.3703 263.858 70.4483ZM276.433 66.6018L277.043 66.5955L279.107 69.1835L281.167 66.5979L281.784 66.5959L279.42 69.5731L281.922 72.718L281.308 72.7184L279.103 69.9621L276.906 72.7182L276.291 72.7173L278.8 69.5692L276.433 66.6018ZM283.052 68.3461H283.53V72.7182H283.052V68.3461ZM283.052 66.5955H283.53V67.2379H283.052V66.5955ZM285.509 68.9728L285.243 68.5753C285.589 68.3607 285.937 68.1448 286.806 68.1669C287.658 68.1885 288.63 68.8177 288.624 69.6568V72.7195L288.145 72.7202L288.145 72.202C287.689 72.6293 287.148 72.813 286.55 72.8283C285.584 72.8533 284.844 72.3251 284.845 71.4505C284.846 70.7735 285.136 69.8952 286.735 69.8769C287.404 69.869 288.146 70.0644 288.146 70.0644L288.146 69.7029C288.158 69.232 287.606 68.6483 286.708 68.6477C286.135 68.6474 285.841 68.7545 285.509 68.9728ZM288.146 70.5655V71.4536C287.717 72.0821 287.159 72.35 286.501 72.3498C285.756 72.3498 285.339 72.0447 285.323 71.4258C285.305 70.7235 285.8 70.3631 286.77 70.3552C287.229 70.3515 287.688 70.4344 288.146 70.5655ZM292.168 68.1623C293.415 68.1623 294.427 69.2254 294.427 70.5349C294.427 71.8443 293.415 72.9074 292.168 72.9074C290.921 72.9074 289.909 71.8443 289.909 70.5349C289.909 69.2254 290.921 68.1623 292.168 68.1623ZM292.168 68.6457C293.151 68.6457 293.949 69.4923 293.949 70.5349C293.949 71.5775 293.151 72.4241 292.168 72.4241C291.185 72.4241 290.386 71.5775 290.386 70.5349C290.386 69.4923 291.185 68.6457 292.168 68.6457ZM295.714 68.3422V72.7112H296.186V70.1013C296.193 69.5797 296.571 68.6372 297.666 68.6374C298.24 68.6376 298.876 68.9265 298.905 69.5513V72.7112H299.386V69.6907C299.39 69.2764 299.923 68.6968 300.78 68.6831C301.549 68.6706 302.054 69.1278 302.065 69.8524V72.7182H302.537V69.8758C302.548 68.8741 301.861 68.1839 300.764 68.1951C300.214 68.2005 299.672 68.3609 299.215 68.9154C298.9 68.4748 298.433 68.1488 297.626 68.1564C297.137 68.161 296.641 68.3238 296.186 68.807V68.3422H295.714ZM304.126 68.3461H304.604V72.7182H304.126V68.3461ZM304.126 66.5955H304.604V67.2379H304.126V66.5955Z" fill="black"/>
<path fill-rule="evenodd" clip-rule="evenodd" d="M805.038 55.2229C804.841 55.2192 804.646 55.2548 804.463 55.3275C804.281 55.4002 804.114 55.5086 803.974 55.6463C803.834 55.7841 803.722 55.9484 803.646 56.1298C803.57 56.3111 803.531 56.5058 803.531 56.7024C803.531 56.8991 803.57 57.0938 803.646 57.2751C803.722 57.4565 803.834 57.6208 803.974 57.7585C804.114 57.8963 804.281 58.0047 804.463 58.0774C804.646 58.1501 804.841 58.1856 805.038 58.182C805.232 58.1818 805.425 58.1432 805.604 58.0685C805.783 57.9938 805.946 57.8845 806.083 57.7467C806.22 57.609 806.329 57.4455 806.403 57.2658C806.477 57.086 806.514 56.8934 806.513 56.6991C806.513 56.5052 806.475 56.3133 806.401 56.1342C806.327 55.9551 806.218 55.7924 806.081 55.6553C805.944 55.5182 805.782 55.4095 805.603 55.3353C805.424 55.2611 805.232 55.2229 805.038 55.2229ZM805.038 58.004C804.867 58.0042 804.697 57.9706 804.539 57.905C804.381 57.8395 804.237 57.7433 804.116 57.622C803.995 57.5008 803.899 57.3568 803.834 57.1984C803.769 57.04 803.736 56.8703 803.737 56.6991C803.737 56.5284 803.771 56.3594 803.836 56.2017C803.902 56.0441 803.997 55.9009 804.118 55.7803C804.239 55.6598 804.383 55.5643 804.54 55.4993C804.698 55.4343 804.867 55.401 805.038 55.4014C805.208 55.4014 805.377 55.435 805.534 55.5002C805.692 55.5654 805.835 55.661 805.955 55.7815C806.076 55.902 806.171 56.0451 806.236 56.2025C806.302 56.3599 806.335 56.5287 806.335 56.6991C806.336 56.87 806.303 57.0394 806.238 57.1976C806.173 57.3558 806.078 57.4996 805.957 57.6209C805.837 57.7421 805.694 57.8383 805.536 57.9041C805.378 57.9698 805.209 58.0038 805.038 58.004Z" fill="black"/>
<path fill-rule="evenodd" clip-rule="evenodd" d="M805.797 56.3126C805.797 56.1731 805.736 56.0262 805.612 55.9562C805.488 55.8825 805.349 55.8753 805.209 55.8753H804.488V57.5288H804.69V56.7661H805.062L805.534 57.5288H805.774L805.275 56.7661C805.57 56.7578 805.797 56.6379 805.797 56.3126ZM805 56.6068H804.69V56.0221H805.162C805.367 56.0221 805.592 56.0532 805.592 56.309C805.593 56.6457 805.232 56.6068 805 56.6068ZM796.366 48.3186L799.391 45.0889C799.566 44.8518 799.653 44.6858 799.653 44.5436C799.653 44.3065 799.45 44.2116 798.808 44.2116H798.045V42.1726H806.306V44.2116H805.22C803.967 44.2116 803.734 44.401 801.985 46.606L797.2 51.7734V54.9269C797.2 55.7336 797.607 56.0174 798.773 56.0174H800.58V57.9848H789.01V56.0174H790.816C791.982 56.0174 792.39 55.7336 792.39 54.9269V51.7734L786.754 45.5387C785.823 44.4487 785.951 44.2116 783.358 44.2116V42.1726H793.822V44.2116H793.077C792.319 44.2116 791.998 44.3537 791.998 44.6381C791.998 44.8757 792.231 45.065 792.376 45.2544L795.228 48.3622C795.567 48.7145 795.98 48.7601 796.366 48.3186ZM726.161 42.1721H728.685V47.8615H726.354C726.147 46.7242 725.435 46.2817 724.786 45.685C723.615 44.609 721.079 43.713 718.946 43.713C716.193 43.713 713.87 44.567 713.87 45.8225C713.87 49.308 729.614 46.5344 729.614 53.1245C729.614 56.5617 726.242 58.4818 720.185 58.4818C718.089 58.4818 714.916 57.8312 713.044 56.8372C712.457 56.4984 712.208 57.1578 712.098 57.9843H709.511V52.105H711.851C712.368 53.5987 713.079 53.9063 713.733 54.4993C714.868 55.5427 717.57 56.3017 720.048 56.2773C723.784 56.2405 725.069 55.4239 725.069 54.2384C725.069 53.0534 723.798 52.7685 719.704 52.1288L716.228 51.5597C712.305 50.9667 709.449 50.0899 709.449 46.9608C709.449 43.713 713.062 41.674 718.775 41.674C721.182 41.674 723.197 41.9957 725.13 43.0883C725.665 43.4365 726.167 43.478 726.161 42.1721ZM775.42 51.6977L775.47 45.3743C775.47 44.5447 775.038 44.2604 773.805 44.2604H772.356V42.293H781.575V44.2604H780.373C779.139 44.2604 778.707 44.5452 778.707 45.3743V58.1046L775.099 58.0761L763.413 47.0101V55.0467C763.413 55.8529 763.845 56.1606 765.078 56.1606H766.682V58.1046H757.107V56.1606H758.694C759.927 56.1606 760.359 55.8524 760.359 55.0467V45.3743C760.359 44.5447 759.927 44.2604 758.694 44.2604H757.107V42.293H765.386L775.42 51.6977ZM744.538 41.5547C737.19 41.5547 732.591 44.803 732.591 50.0177C732.591 55.139 737.126 58.3625 744.314 58.3625C751.948 58.3625 756.388 55.1863 756.388 49.7573C756.389 44.8741 751.597 41.5547 744.538 41.5547ZM744.371 56.3007C740.304 56.3007 737.966 53.9535 737.966 49.8994C737.966 45.9408 740.405 43.5937 744.574 43.5937C748.573 43.5937 750.911 45.9886 750.911 50.066C750.911 54.0485 748.539 56.3007 744.371 56.3007Z" fill="black"/>
<path fill-rule="evenodd" clip-rule="evenodd" d="M1021.25 40.6881C1021.63 40.6881 1022.01 40.7856 1022.37 40.9817C1022.73 41.174 1023.03 41.467 1023.22 41.8248C1023.43 42.1895 1023.53 42.5708 1023.53 42.9677C1023.53 43.3599 1023.43 43.7376 1023.23 44.0992C1023.03 44.4552 1022.74 44.7481 1022.39 44.9432C1022.04 45.1398 1021.65 45.2435 1021.25 45.2441C1020.86 45.2434 1020.46 45.1397 1020.12 44.9432C1019.76 44.7482 1019.47 44.4553 1019.27 44.0992C1019.08 43.7545 1018.97 43.3646 1018.97 42.9677C1018.97 42.5708 1019.07 42.1895 1019.28 41.8248C1019.48 41.4667 1019.77 41.1738 1020.13 40.9817C1020.48 40.7916 1020.86 40.6906 1021.25 40.6881ZM1021.25 41.0653C1020.93 41.0653 1020.62 41.1478 1020.32 41.3117C1020.02 41.4756 1019.78 41.7106 1019.61 42.0147C1019.44 42.3197 1019.35 42.6372 1019.35 42.9677C1019.35 43.295 1019.43 43.6094 1019.6 43.9103C1019.77 44.2112 1020.01 44.4462 1020.31 44.6143C1020.6 44.7785 1020.92 44.8653 1021.25 44.8665C1021.58 44.8652 1021.91 44.7784 1022.2 44.6143C1022.49 44.4514 1022.74 44.2072 1022.9 43.9103C1023.07 43.6094 1023.15 43.295 1023.15 42.9677C1023.15 42.6367 1023.07 42.3192 1022.9 42.0147C1022.73 41.7106 1022.49 41.4756 1022.18 41.3117C1021.88 41.1478 1021.57 41.0653 1021.25 41.0653ZM1020.25 44.2263V41.7755H1021.09C1021.38 41.7755 1021.59 41.7973 1021.72 41.8424C1021.85 41.8876 1021.95 41.9669 1022.03 42.0795C1022.1 42.1931 1022.14 42.3124 1022.14 42.439C1022.14 42.6185 1022.08 42.7742 1021.95 42.9065C1021.82 43.0398 1021.65 43.1135 1021.44 43.1306C1021.53 43.1664 1021.6 43.2094 1021.65 43.2603C1021.75 43.3573 1021.87 43.5192 1022.01 43.7469L1022.31 44.2263H1021.83L1021.61 43.8398C1021.44 43.5368 1021.3 43.3464 1021.2 43.2701C1021.13 43.2136 1021.02 43.1856 1020.88 43.1856H1020.65V44.2263H1020.25ZM1020.65 42.8473H1021.13C1021.36 42.8473 1021.51 42.812 1021.6 42.7441C1021.64 42.7116 1021.67 42.6702 1021.69 42.623C1021.71 42.5758 1021.73 42.5242 1021.72 42.4722C1021.72 42.4027 1021.7 42.3347 1021.66 42.2777C1021.62 42.2196 1021.56 42.1752 1021.5 42.1501C1021.42 42.121 1021.29 42.1075 1021.1 42.1075H1020.65V42.8473ZM977.328 40.5382H977.404V45.7759H972.112V40.5382H977.328ZM954.298 51.6144L966.536 52.3734C967.045 52.3734 967.461 52.79 967.461 53.2984C967.461 53.8068 967.045 54.2234 966.536 54.2234H949.094V47.4054C949.63 49.5107 951.475 51.2325 954.298 51.6144ZM949.094 59.4907H966.926C969.525 59.4907 971.708 57.6152 972.189 55.151C972.613 57.6069 974.761 59.4907 977.328 59.4907H988.721C991.267 59.4907 993.401 57.6375 993.85 55.2106V59.4907H1012.12C1015.07 59.4907 1017.48 57.0783 1017.48 54.1284V53.3694C1017.48 50.4206 1015.07 48.0083 1012.12 48.0083L1011.11 47.9642C1005.43 47.7141 999.765 47.4277 994.089 47.1346C994.531 49.3618 996.41 51.2159 999.354 51.6144L1011.73 52.3734C1011.97 52.374 1012.21 52.4717 1012.38 52.645C1012.55 52.8183 1012.65 53.0532 1012.65 53.2984C1012.65 53.5436 1012.55 53.7785 1012.38 53.9518C1012.21 54.1251 1011.97 54.2227 1011.73 54.2234H993.937V47.1268L988.646 46.8539V52.9238C988.645 53.3331 988.482 53.7253 988.192 54.0147C987.903 54.3041 987.511 54.4672 987.101 54.4682H978.949C978.539 54.4673 978.147 54.3043 977.857 54.0148C977.568 53.7254 977.405 53.3331 977.404 52.9238V46.2739L972.112 46.0011V52.018C971.507 49.7421 969.406 48.1011 966.926 48.1011L943.62 46.5774V59.4912H949.094V59.4907ZM971.271 45.7785V40.5117H954.298C951.792 40.5117 949.674 42.2533 949.094 44.5863V40.5377H938.963L935.51 45.7759H948.938L971.271 45.7785ZM941.385 46.4477L933.017 59.4907H926.47L935.299 46.0965L941.385 46.4477ZM1017.48 45.7785V40.5117H999.353C996.437 40.5117 994.046 42.8717 993.993 45.7759L1017.48 45.7785ZM988.645 45.7759V40.5382H993.936V45.7759H988.645Z" fill="black"/>
<g clip-path="url(#clip0)">
<path d="M472.105 50.8109L472.208 42.6613L472.985 41.8844L473.762 41.1071L484.749 41.0534C495.48 41.0008 495.752 41.0093 496.419 41.4189C496.812 41.6597 497.271 42.2097 497.498 42.711C497.866 43.521 497.895 44.1372 497.899 51.2721L497.904 58.9601H494.189V51.7512C494.189 45.4727 494.147 44.5004 493.864 44.2178C493.596 43.9493 492.956 43.8935 490.149 43.8935H486.759V58.9603H483.25V43.8933H479.773C476.667 43.8933 476.26 43.9335 475.955 44.2706C475.651 44.6067 475.613 45.435 475.613 51.8042V58.9599H473.807L472.001 58.9608L472.105 50.8111V50.8109ZM503.113 58.5485C502.743 58.3229 502.256 57.8357 502.03 57.4657C501.643 56.8303 501.62 56.4151 501.62 49.982C501.62 43.5491 501.643 43.1337 502.03 42.4984C502.256 42.1285 502.743 41.6411 503.113 41.4158C503.754 41.0249 504.167 41.0056 511.887 41.0047L519.988 41.0041V43.8937H505.77L505.449 44.3524C505.217 44.6829 505.127 45.3168 505.127 46.62V48.4289L512.168 48.483L519.208 48.5375V51.4269L512.168 51.4812L505.127 51.5356V53.3445C505.127 54.6477 505.217 55.2816 505.449 55.612L505.77 56.0707H519.988V58.9603L511.887 58.9595C504.167 58.9587 503.754 58.9393 503.113 58.5485ZM523.909 49.982V41.0041H527.624V58.9599H523.909V49.982ZM531.826 58.6588C531.127 58.1689 530.844 57.2547 531.127 56.3977C531.372 55.6576 532.138 54.9286 539.481 48.4572C541.076 47.051 542.877 45.4487 543.482 44.8968L544.582 43.8935H531.546V41.0039H548.089L548.692 41.6074C549.43 42.3446 549.5 43.3712 548.869 44.1739C548.634 44.4721 546.104 46.7836 543.245 49.31C540.386 51.8365 537.537 54.3892 536.912 54.9831L535.777 56.0624L542.433 56.0666L549.089 56.0707V58.9599H540.673C533.628 58.9599 532.187 58.9108 531.826 58.6586V58.6588ZM553.815 58.4917C552.401 57.5471 552.392 57.4848 552.392 48.7954V41.0039H555.9V48.1246C555.9 54.9698 555.916 55.261 556.313 55.6578C556.705 56.0501 557.001 56.0707 562.266 56.0707C567.372 56.0707 567.834 56.041 568.149 55.6932C568.453 55.3573 568.49 54.5288 568.49 48.1598V41.0041H571.999V48.9775C571.999 56.6114 571.981 56.9795 571.583 57.6241C570.772 58.9368 570.605 58.9603 562.143 58.9603C554.558 58.9603 554.513 58.9578 553.815 58.4919L553.815 58.4917Z" fill="#21BBEF"/>
</g>
<defs>
<clipPath id="clip0">
<rect width="100" height="17.96" fill="white" transform="translate(472 41)"/>
</clipPath>
</defs>
</svg>
