<svg width="30" height="20" viewBox="0 0 30 20" fill="none" xmlns="http://www.w3.org/2000/svg">
<path d="M29.903 1.3305C29.8387 1.17546 29.7454 1.03683 29.6295 0.920814C29.6219 0.913256 29.6143 0.911967 29.608 0.905698C29.4946 0.798531 29.3647 0.70906 29.2186 0.648534C29.0988 0.599374 28.9728 0.584257 28.8467 0.57289C28.8089 0.570371 28.7774 0.552734 28.7396 0.552734H18.6557C17.9587 0.552734 17.3952 1.11616 17.3952 1.81324C17.3952 2.51032 17.9586 3.07375 18.6557 3.07375H25.7094L15.7313 13.1085L11.9347 8.24802C11.7154 7.96695 11.3889 7.79299 11.036 7.76651C10.6692 7.74002 10.3314 7.86483 10.0743 8.1081L0.39375 17.2731C-0.111731 17.7521 -0.133117 18.55 0.34459 19.0555C0.594196 19.3164 0.926944 19.4475 1.26098 19.4475C1.57234 19.4475 1.88365 19.3327 2.12693 19.1033L10.8003 10.8913L14.6234 15.7857C14.8465 16.0718 15.1805 16.2471 15.5423 16.2684C15.904 16.2886 16.2557 16.155 16.5116 15.8991L27.479 4.86862V11.8971C27.479 12.5941 28.0425 13.1576 28.7396 13.1576C29.4366 13.1576 30.0001 12.5942 30.0001 11.8971V1.8133V1.81201C29.9988 1.6469 29.966 1.4843 29.903 1.3305Z" fill="white"/>
</svg>
