<svg width="35" height="35" viewBox="0 0 35 35" fill="none" xmlns="http://www.w3.org/2000/svg">
<path d="M9.67958 14.5315L9.67949 14.5314C9.44012 14.2953 9.44025 13.9156 9.67941 13.6798L9.67958 13.6797C9.92233 13.4401 10.3189 13.4401 10.5616 13.6796L10.5616 13.6796L16.6489 19.6867L17.0001 20.0332L17.3513 19.6867L23.4384 13.6799C23.4384 13.6799 23.4384 13.6798 23.4384 13.6798C23.6814 13.4402 24.0779 13.4404 24.3206 13.6798L24.3207 13.6799C24.5597 13.9157 24.5598 14.2956 24.3206 14.5317L24.3206 14.5317L17.441 21.3204C17.441 21.3204 17.441 21.3204 17.4409 21.3205C17.3201 21.4396 17.1617 21.5 17.0001 21.5C16.8385 21.5 16.6799 21.4394 16.5591 21.3203C16.5591 21.3203 16.5591 21.3203 16.5591 21.3203L9.67958 14.5315Z" fill="#77150C" stroke="#77150C"/>
<circle cx="17.5" cy="17.5" r="16.5" stroke="#77150C" stroke-width="2"/>
</svg>
