<svg width="34" height="62" viewBox="0 0 34 62" fill="none" xmlns="http://www.w3.org/2000/svg">
<path d="M32.7767 34.0693L7.13022 60.7275C5.49879 62.4242 2.85371 62.4242 1.22308 60.7275C-0.407692 59.0324 -0.407692 56.283 1.22308 54.588L23.9163 30.9996L1.22374 7.41195C-0.407032 5.71612 -0.407032 2.96703 1.22374 1.27188C2.8545 -0.423959 5.49945 -0.423959 7.13088 1.27188L32.7774 27.9305C33.5928 28.7785 34 29.8887 34 30.9994C34 32.1107 33.592 33.2217 32.7767 34.0693Z" fill="#77150C"/>
<path fill-rule="evenodd" clip-rule="evenodd" d="M23.9163 30.9996L1.22308 54.588C-0.407692 56.283 -0.407692 59.0324 1.22308 60.7275C2.85371 62.4242 5.49879 62.4242 7.13022 60.7275L32.7767 34.0693C33.592 33.2217 34 32.1107 34 30.9994C34 29.8887 33.5928 28.7785 32.7774 27.9305L7.13088 1.27188C5.49945 -0.423959 2.8545 -0.423959 1.22374 1.27188C-0.407032 2.96703 -0.407032 5.71612 1.22374 7.41195L23.9163 30.9996ZM1.94454 6.71881L25.3039 30.9995L1.94373 55.2813C0.685464 56.5891 0.685407 58.7262 1.94374 60.0342C3.18079 61.3214 5.17132 61.322 6.40939 60.0344L32.056 33.3761C32.056 33.3761 32.056 33.3761 32.056 33.3761C32.6812 32.726 33 31.8682 33 30.9994C33 30.1311 32.682 29.2742 32.0567 28.6238C32.0567 28.6237 32.0568 28.6238 32.0567 28.6238L6.41022 1.96517C5.17213 0.678201 3.18178 0.67841 1.94454 1.96502C0.686348 3.27288 0.686112 5.41 1.94454 6.71881C1.94448 6.71876 1.94459 6.71886 1.94454 6.71881Z" fill="#77150C"/>
</svg>
